<?xml version="1.0" encoding="utf-8"?>
<!-- Generator: Adobe Illustrator 20.0.0, SVG Export Plug-In . SVG Version: 6.00 Build 0)  -->
<svg version="1.1" id="Layer_1" xmlns="http://www.w3.org/2000/svg" xmlns:xlink="http://www.w3.org/1999/xlink" x="0px" y="0px"
   viewBox="0 0 26 17" width="26" height="17" style="enable-background:new 0 0 26 17;" xml:space="preserve">
<style type="text/css">
  .st0{fill:#CE1126;}
  .st1{fill:#F9D616;}
</style>
<g>
  <rect class="st0" width="26" height="8.5"/>
  <rect y="8.5" width="26" height="8.5"/>
  <polygon class="st1" points="10.519,6.428 11.641,6.428 11.987,5.36 12.335,6.428 13.456,6.428 12.548,7.087 12.895,8.154 
    11.987,7.494 11.081,8.154 11.427,7.087  "/>
  <path class="st1" d="M14.952,12.446l0.402-0.471l0.703,0.59c0,0,0.365,0.336,0.493,0.545c0.188,0.305-0.042,0.683-0.336,0.481
    c-0.157-0.109-0.164-0.357-0.418-0.593c-0.173-0.16-0.315-0.339-0.796-0.449L14.952,12.446z"/>
  <path class="st1" d="M16.167,8.74c0.028-0.279,0.028-0.563,0-0.842L15.837,7.93c-0.025-0.263-0.078-0.518-0.152-0.762l0.317-0.097
    c-0.082-0.269-0.189-0.53-0.322-0.779L15.383,6.45c-0.124-0.229-0.269-0.444-0.434-0.642l0.263-0.216
    c-0.179-0.219-0.378-0.418-0.596-0.597l-0.219,0.268C14.196,5.1,13.979,4.957,13.75,4.835l0.164-0.309
    c-0.248-0.133-0.509-0.24-0.779-0.323l-0.102,0.337c-0.236-0.072-0.481-0.121-0.733-0.148l-0.079,0.735
    c1.621,0.17,2.891,1.527,2.891,3.193c0,0.986-0.445,1.868-1.144,2.46l0.905,0.626c0.118-0.113,0.233-0.233,0.337-0.361
    l-0.255-0.209c0.164-0.2,0.309-0.417,0.432-0.648l0.291,0.157c0.133-0.248,0.24-0.509,0.322-0.779l-0.315-0.095
    c0.074-0.246,0.125-0.5,0.15-0.763L16.167,8.74z"/>
  <path class="st1" d="M12.935,11.367c-0.33,0.114-0.68,0.179-1.048,0.179c-0.776,0-1.478-0.287-2.033-0.744l-0.472,0.575
    c0.199,0.163,0.415,0.306,0.642,0.431l-0.162,0.305c0.247,0.133,0.509,0.241,0.778,0.323l0.098-0.325
    c0.244,0.077,0.497,0.132,0.76,0.159l-0.032,0.329c0.28,0.028,0.563,0.028,0.843,0l-0.032-0.327
    c0.263-0.025,0.519-0.077,0.763-0.152l0.096,0.316c0.133-0.042,0.264-0.089,0.393-0.142l-0.174-0.677L12.935,11.367z"/>
  <path class="st1" d="M14.901,12.381c0,0-1.926-1.174-3.302-1.956C10.759,9.92,9.798,9.05,10.46,7.758
    c0.295,1.066,4.81,4.189,4.81,4.189L14.901,12.381z"/>
  <path d="M10.917,8.814c1.155,1.329,2.786,1.991,3.977,3.108l0.024-0.001l-0.001-0.024c-1.199-1.123-2.826-1.785-3.975-3.106
    L10.919,8.79L10.917,8.814z"/>
  <polygon points="15.633,12.37 15.562,12.44 15.492,12.37 15.562,12.299   "/>
  <polygon points="16.019,12.712 15.947,12.783 15.878,12.712 15.947,12.641  "/>
  <rect x="16.256" y="13.032" transform="matrix(0.7071 -0.7071 0.7071 0.7071 -4.4743 15.362)" width="0.1" height="0.1"/>
</g>
</svg>
