<?xml version="1.0" encoding="utf-8"?>
<!-- Generator: Adobe Illustrator 20.0.0, SVG Export Plug-In . SVG Version: 6.00 Build 0)  -->
<svg version="1.1" id="Layer_1" xmlns="http://www.w3.org/2000/svg" xmlns:xlink="http://www.w3.org/1999/xlink" x="0px" y="0px"
   viewBox="0 0 26 17" width="26" height="17" style="enable-background:new 0 0 26 17;" xml:space="preserve">
<style type="text/css">
  .st0{fill:#E90538;}
  .st1{fill:#01AD68;}
  .st2{fill:#0092C7;}
  .st3{fill:#FFFFFF;}
</style>
<g>
  <rect y="4.5" class="st0" width="26" height="8"/>
  <rect y="11.333" class="st1" width="26" height="5.667"/>
  <rect class="st2" width="26" height="5.666"/>
  <path class="st3" d="M12.062,6.129c0.728-0.111,1.474,0.166,2.001,0.649c-0.44-0.171-0.923-0.355-1.403-0.239
    c-0.894,0.137-1.63,0.928-1.682,1.817c-0.101,0.983,0.684,1.962,1.682,2.109c0.484,0.12,0.963-0.069,1.403-0.24
    c-0.701,0.662-1.827,0.872-2.715,0.453c-1.033-0.445-1.639-1.663-1.352-2.731C10.218,7.001,11.072,6.223,12.062,6.129z"/>
  <path class="st3" d="M14.817,7.283h0.034c0.101,0.189,0.157,0.393,0.224,0.594c0.231-0.08,0.452-0.183,0.679-0.274
    c-0.095,0.222-0.21,0.436-0.289,0.663c0.21,0.064,0.42,0.119,0.611,0.218V8.52c-0.191,0.097-0.401,0.153-0.605,0.217
    c0.082,0.227,0.188,0.445,0.28,0.667C15.523,9.31,15.307,9.2,15.075,9.122c-0.067,0.205-0.123,0.411-0.224,0.599h-0.034
    c-0.1-0.188-0.157-0.394-0.222-0.595c-0.231,0.082-0.455,0.185-0.68,0.274c0.096-0.222,0.209-0.436,0.288-0.663
    c-0.209-0.064-0.419-0.12-0.61-0.217V8.485c0.191-0.099,0.401-0.155,0.605-0.218c-0.083-0.227-0.187-0.445-0.278-0.668
    c0.226,0.095,0.444,0.206,0.675,0.283C14.66,7.676,14.717,7.472,14.817,7.283z"/>
</g>
</svg>
