<?xml version="1.0" encoding="utf-8"?>
<!-- Generator: Adobe Illustrator 20.0.0, SVG Export Plug-In . SVG Version: 6.00 Build 0)  -->
<svg version="1.1" id="Layer_1" xmlns="http://www.w3.org/2000/svg" xmlns:xlink="http://www.w3.org/1999/xlink" x="0px" y="0px"
   viewBox="0 0 26 17" style="enable-background:new 0 0 26 17;" width="26" height="17" xml:space="preserve">
<style type="text/css">
  .st0{fill:#FFFFFF;}
  .st1{fill:#006233;}
  .st2{fill:#D21034;}
</style>
<rect y="0" class="st0" width="26" height="17"/>
<rect y="0" class="st1" width="13" height="17"/>
<path class="st2" d="M16.756,6.375c-1.197-2.033-3.847-2.729-5.919-1.556S8.053,8.592,9.25,10.625s3.847,2.729,5.919,1.556
  c0.659-0.373,1.206-0.91,1.586-1.556c-1.197,1.466-3.378,1.703-4.873,0.529c-1.495-1.174-1.736-3.313-0.54-4.779
  s3.378-1.703,4.873-0.529C16.415,6.002,16.596,6.18,16.756,6.375 M16.9,8.5L13,7.253l2.427,3.258V6.488L13,9.747L16.9,8.5z"/>
</svg>
