<?xml version="1.0" encoding="utf-8"?>
<!-- Generator: Adobe Illustrator 20.0.0, SVG Export Plug-In . SVG Version: 6.00 Build 0)  -->
<svg version="1.1" id="Layer_1" xmlns="http://www.w3.org/2000/svg" xmlns:xlink="http://www.w3.org/1999/xlink" x="0px" y="0px"
   viewBox="0 0 26 17" width="26" height="17" style="enable-background:new 0 0 26 17;" xml:space="preserve">
<style type="text/css">
  .st0{fill:#FFFFFF;}
  .st1{fill:#CE1126;}
  .st2{fill:#FCD116;}
  .st3{fill:#FFCC00;}
</style>
<g>
  <polygon points="0,16.964 26,17 26,11.345 0,11.309  "/>
  <polygon class="st0" points="0,5.655 0,11.309 26,11.345 26,5.69   "/>
  <polygon class="st1" points="26,0.036 0,0 0,5.655 26,5.69   "/>
  <path class="st2" d="M13.005,10.406l-0.062,0.001c-0.203,0-0.864-0.007-1.076-0.076l-0.096-0.016c-0.104,0-0.205,0.061-0.205,0.187
    h0.017l0.004-0.017l-0.028-0.004l-0.067,0.058l-0.126,0.045l-0.005,0.034l0.105,0.087l0.074,0.108l0.005-0.017h-0.018l-0.002,0.066
    l0.121,0.125c0.306,0.07,1.358,0.1,1.359,0.1v-0.034c-0.002,0-1.054-0.03-1.352-0.099l-0.093-0.092l0.003-0.066v-0.012L11.55,10.78
    l-0.051-0.079l-0.129-0.117l-0.005,0.017v0.017l0.155-0.061l0.039-0.041l0.02,0.003l0.021,0.004v-0.021l0.171-0.153l0.086,0.013
    c0.224,0.073,0.88,0.078,1.086,0.078h0.062V10.406L13.005,10.406z"/>
  <path class="st2" d="M13.005,10.44h0.061c0.205,0,0.861-0.005,1.087-0.078l0.086-0.013l0.173,0.153v0.021l0.02-0.004l0.02-0.003
    l0.037,0.041l0.155,0.061v-0.017l-0.005-0.017l-0.127,0.117l-0.05,0.079l-0.013,0.004v0.012l0.003,0.065l-0.094,0.093
    c-0.3,0.069-1.352,0.099-1.353,0.099v0.035c0.001,0,1.052-0.03,1.36-0.1l0.12-0.126l-0.001-0.065h-0.018l0.005,0.017l0.074-0.108
    l0.104-0.087l-0.006-0.034l-0.126-0.045l-0.066-0.058l-0.028,0.004l0.004,0.017h0.018c0-0.126-0.102-0.187-0.207-0.187
    l-0.096,0.016c-0.213,0.07-0.874,0.076-1.077,0.076l-0.061-0.001V10.44L13.005,10.44z"/>
  <path class="st2" d="M12.065,10.653l-0.014,0.037l0.018,0.037l-0.047-0.009l-0.03-0.021l-0.021-0.064l-0.012,0.036l0.017,0.037
    l-0.111-0.035l-0.023-0.134l-0.013,0.044l-0.051,0.032v0.05l0.061-0.008l0.078,0.084l0.168,0.035l-0.005-0.088L12.065,10.653z
     M11.824,10.633l-0.021-0.012l0.029-0.013L11.824,10.633z M13.304,10.645l0.041-0.019l-0.037,0l-0.018,0.007l-0.031,0.024
    l0.031,0.015L13.304,10.645z M12.416,10.68l0.018-0.034l-0.036-0.034l-0.011,0.028l0.01,0.041l0.017,0.1l-0.09-0.015L12.32,10.7
    l-0.078,0.01l0.029,0.045h-0.039l-0.025-0.065l-0.005,0.028l0.012,0.038l-0.01,0.042l-0.111,0.006l0.071,0.058l0.068-0.06
    l0.057-0.014l0.144,0.041l-0.008-0.097L12.416,10.68z M12.287,10.726l-0.012-0.012l0.012-0.009l0.013,0.017L12.287,10.726z
     M11.82,10.505l0.022,0.018l0.018-0.027l-0.029-0.021l-0.015,0.021l-0.024-0.018l-0.018,0.025l0.031,0.024L11.82,10.505z
     M12.012,10.811l0.038,0.029l0.02-0.032l-0.039-0.03L12.012,10.811z M11.946,10.787l-0.024-0.018l-0.007,0.037l0.02,0.016
    l0.014-0.024l0.023,0.017l0.018-0.028l-0.029-0.024L11.946,10.787z M12.454,10.736l0.006,0.061l0.005,0.046l0.018-0.057
    l-0.019-0.155L12.454,10.736z M13.455,10.73l-0.014,0.041l0.017,0.032l-0.11,0.003l-0.025-0.135l-0.02,0.055l-0.05,0.055
    l0.008,0.035l0.06-0.026l0.019,0.058l0.075,0.003l0.06-0.02l-0.005-0.072L13.455,10.73z M13.307,10.774l-0.026-0.002l0.034-0.027
    L13.307,10.774z M13.591,10.771l0.017,0.027l-0.026,0.049l-0.053,0.036l-0.051-0.002l0.085,0.027l0.06-0.074l-0.024-0.11
    L13.591,10.771z M14.228,10.658l-0.07-0.046l-0.067,0.052l0.085,0.014l-0.106,0.028l-0.034-0.06l-0.045,0.057l-0.135,0.05
    l0.032-0.06l-0.034-0.03l-0.03,0.063l-0.047,0.038l-0.053-0.049l0.03,0.093l-0.06,0.051l-0.033,0.003l-0.034-0.002l0.088,0.03
    l0.047-0.045l0.011-0.024l0.032-0.015l0.064,0.067l0.007-0.08l0.086-0.017l0.031-0.029l0.066,0.004l0.126-0.028l0.065-0.016v-0.03
    L14.228,10.658z M13.749,10.766l0.006-0.001L13.749,10.766z M13.843,10.713l0.017,0.004l-0.033,0.028L13.843,10.713z
     M13.863,10.831l-0.042-0.028l0.037,0.008L13.863,10.831z M14.005,10.707l0.029,0.003L14.005,10.707z M14.126,10.789l0.039,0.011
    l0.021-0.042l-0.041-0.011L14.126,10.789z M13.436,10.875l-0.017,0.009l-0.03,0.027l0.037,0.001l0.018-0.007l0.03-0.03H13.436z
     M13.063,10.812l-0.053,0.007l-0.007-0.053l-0.122,0.029l-0.056,0.021l-0.021-0.048l-0.043,0.046l-0.014-0.025l-0.022-0.039
    l-0.005,0.029l0.011,0.037l-0.011,0.044l-0.107,0.015l0.031,0.037l0.045,0.013l0.061-0.066l0.054-0.022l0.081,0.027l0.113,0.002
    l0.069-0.011l0.03,0.001l0.054,0.009l-0.013-0.085L13.063,10.812z M12.931,10.821l-0.043-0.001l0.087-0.028L12.931,10.821z
     M13.087,10.808l0.028,0.01L13.087,10.808z"/>
  <path class="st2" d="M14.877,10.297l0.018-0.001c0-0.003-0.101-2.282-0.134-3.062c-0.009-0.248-0.126-0.345-0.276-0.344
    c-0.139,0-0.306,0.077-0.451,0.164c-0.115,0.07-0.234,0.092-0.364,0.092c-0.205,0-0.428-0.057-0.67-0.057
    c-0.239,0-0.462,0.057-0.667,0.057c-0.129,0-0.25-0.022-0.365-0.092c-0.145-0.087-0.31-0.164-0.45-0.164
    c-0.151-0.002-0.269,0.095-0.277,0.343c-0.032,0.78-0.132,3.06-0.132,3.062l-0.001,0.018h3.788v-0.018L14.877,10.297v-0.017h-3.752
    v0.017l0.017,0c0,0,0.1-2.282,0.132-3.063c0.011-0.239,0.108-0.308,0.242-0.31c0.127-0.001,0.291,0.073,0.433,0.159
    c0.122,0.073,0.25,0.095,0.383,0.095c0.211,0,0.433-0.057,0.667-0.056c0.237-0.001,0.459,0.056,0.67,0.056
    c0.133,0,0.259-0.022,0.381-0.095c0.142-0.087,0.307-0.16,0.434-0.16c0.133,0.003,0.229,0.072,0.242,0.31
    c0.033,0.781,0.132,3.063,0.132,3.063L14.877,10.297v-0.017V10.297z"/>
  <path class="st0" d="M13.305,7.216l0.279,0.062c0,0-0.282-0.389-0.209-0.712c0.1-0.432-0.007-0.603-0.192-0.649
    c-0.143-0.035-0.203-0.018-0.271,0.007L12.765,6.03l-0.171-0.062c-0.07-0.013-0.176,0-0.176,0.151l0.024-0.024l0.171,0.071
    c0.046,0.038,0.105,0.206,0.124,0.357c0.048,0.321-0.318,0.753-0.318,0.753l0.281-0.062l-0.104,0.127
    c0.128-0.023,0.298-0.169,0.298-0.169L13,7.32l0.11-0.147c0,0,0.171,0.147,0.299,0.169L13.305,7.216z"/>
  <path class="st2" d="M13.305,7.216l-0.004,0.017l0.279,0.062l0.045,0.01l-0.029-0.037c0-0.001-0.218-0.304-0.218-0.59l0.012-0.108
    c0.028-0.115,0.039-0.212,0.039-0.293c0.003-0.228-0.099-0.342-0.243-0.376l-0.143-0.021l-0.138,0.028l-0.143,0.104l-0.162-0.059
    l-0.045-0.005c-0.07,0.001-0.154,0.04-0.154,0.173V6.16l0.045-0.044l0.161,0.066c0.032,0.026,0.096,0.197,0.114,0.344l0.004,0.057
    c0.002,0.302-0.319,0.683-0.319,0.683l-0.031,0.039l0.282-0.062L12.58,7.331l-0.029,0.036l0.044-0.008
    c0.137-0.025,0.306-0.173,0.307-0.174l-0.011-0.013l-0.013,0.01l0.108,0.147L13,7.349l0.124-0.167l-0.014-0.01L13.1,7.186
    c0.001,0,0.17,0.149,0.307,0.174l0.045,0.008l-0.134-0.163L13.305,7.216l-0.004,0.017L13.305,7.216l-0.014,0.012l0.104,0.126
    l0.014-0.011l0.003-0.017c-0.12-0.02-0.291-0.166-0.291-0.166l-0.014-0.012L13,7.291l-0.094-0.128l-0.011-0.015L12.882,7.16
    c0,0.001-0.171,0.146-0.291,0.166l0.003,0.017l0.014,0.011l0.104-0.126l0.03-0.04l-0.329,0.073l0.004,0.017l0.014,0.011
    c0-0.001,0.325-0.382,0.327-0.705l-0.004-0.061c-0.023-0.155-0.077-0.321-0.131-0.368L12.448,6.08l-0.01-0.005l-0.033,0.032
    l0.013,0.012h0.017c0.002-0.117,0.059-0.136,0.119-0.139l0.037,0.004l0.167,0.062l0.008,0.003l0.154-0.113l0.123-0.023l0.135,0.019
    c0.129,0.034,0.216,0.124,0.217,0.343l-0.037,0.286l-0.013,0.116c0,0.303,0.223,0.608,0.224,0.61l0.014-0.01l0.004-0.017
    l-0.279-0.062L13.26,7.188l0.03,0.039L13.305,7.216z"/>
  <polygon class="st2" points="13.365,6.055 13.218,5.931 12.898,5.931 12.769,6.033 12.926,6.089 13.063,6.067 13.197,6.001   "/>
  <polygon class="st2" points="13.365,6.055 13.376,6.042 13.23,5.918 13.224,5.914 12.898,5.915 12.892,5.915 12.758,6.019
    12.734,6.038 12.92,6.106 12.925,6.107 13.065,6.084 13.198,6.019 13.359,6.071 13.376,6.042 13.365,6.055 13.369,6.038
    13.201,5.985 13.195,5.983 13.055,6.052 12.927,6.072 12.804,6.027 12.905,5.949 13.213,5.948 13.353,6.068 13.365,6.055
    13.369,6.038  "/>

    <rect x="12.937" y="5.997" transform="matrix(0.6959 -0.7181 0.7181 0.6959 -0.3805 11.1323)" class="st0" width="0.036" height="0.036"/>
  <path class="st3" d="M12.428,6.08c0,0,0.125-0.035,0.255,0.033c0.12,0.063,0.184,0.158,0.184,0.158L12.77,6.24l-0.052,0.157
    l-0.077-0.2L12.428,6.08z"/>
  <path class="st0" d="M12.681,7.241c0,0,0.183-0.225,0.141-0.465"/>
  <path class="st2" d="M12.694,7.252c0-0.001,0.149-0.183,0.15-0.402l-0.006-0.077l-0.034,0.006L12.81,6.85
    c0.002,0.202-0.142,0.38-0.142,0.38L12.694,7.252z"/>
  <path class="st0" d="M13.321,7.238c0,0-0.184-0.222-0.141-0.461"/>
  <path class="st2" d="M13.334,7.227c0,0-0.144-0.175-0.143-0.376l0.007-0.071l-0.035-0.006L13.157,6.85
    c0,0.217,0.15,0.397,0.15,0.398L13.334,7.227L13.334,7.227z"/>
  <path class="st2" d="M12.892,7.196c0.014-0.02,0.075-0.169,0.075-0.326L12.96,6.785l-0.034,0.006l0.007,0.079
    c0.002,0.145-0.064,0.301-0.068,0.305L12.892,7.196L12.892,7.196z"/>
  <path class="st2" d="M13.126,7.173c-0.006-0.004-0.07-0.161-0.069-0.308l0.008-0.079L13.03,6.78l-0.006,0.085
    c0,0.158,0.062,0.309,0.076,0.328L13.126,7.173L13.126,7.173z"/>
  <polygon class="st2" points="12.396,9.012 12.2,9.224 12.289,7.698 12.468,7.677  "/>
  <polygon class="st2" points="11.322,10.056 11.125,10.267 11.252,7.191 11.45,7.113   "/>
  <polygon class="st2" points="11.616,9.787 11.419,9.999 11.546,7.162 11.743,7.357  "/>
  <polygon class="st2" points="11.909,9.517 11.713,9.728 11.818,7.409 11.992,7.551  "/>
  <polygon class="st2" points="12.159,9.259 11.961,9.47 12.06,7.602 12.231,7.677  "/>
  <polygon class="st2" points="13.605,9.012 13.803,9.224 13.712,7.698 13.533,7.677  "/>
  <polygon class="st2" points="14.681,10.056 14.877,10.267 14.748,7.191 14.552,7.113  "/>
  <polygon class="st2" points="14.385,9.787 14.583,9.999 14.455,7.162 14.258,7.357  "/>
  <polygon class="st2" points="14.091,9.517 14.288,9.728 14.184,7.409 14.008,7.551  "/>
  <polygon class="st2" points="13.843,9.259 14.04,9.47 13.941,7.602 13.771,7.677  "/>
  <polygon class="st2" points="13.043,9.025 13.114,10.148 13,10.292 12.888,10.151 12.959,9.025  "/>
  <polygon class="st2" points="13.081,9.025 13.414,10.089 13.341,10.262 13.198,10.158 13,9.05   "/>
  <polygon class="st2" points="12.92,9.025 12.587,10.089 12.662,10.262 12.802,10.158 13,9.05  "/>
  <polygon class="st0" points="12.474,10.44 11.775,10.2 12.367,8.54 12.956,8.915  "/>
  <polygon class="st2" points="12.474,10.44 12.48,10.424 11.797,10.189 12.376,8.566 12.935,8.922 12.457,10.435 12.474,10.44
    12.48,10.424 12.474,10.44 12.49,10.445 12.977,8.907 12.377,8.526 12.358,8.514 11.753,10.21 12.467,10.457 12.485,10.463
    12.49,10.445  "/>
  <polyline class="st0" points="12.2,9.01 12.263,9.192 12.449,9.011   "/>
  <polygon class="st2" points="12.183,9.016 12.247,9.197 12.256,9.224 12.461,9.023 12.437,8.998 12.271,9.161 12.216,9.004   "/>
  <polyline class="st0" points="12.42,8.713 12.503,9.341 12.702,9.077   "/>
  <polygon class="st2" points="12.403,8.716 12.485,9.343 12.49,9.386 12.716,9.087 12.688,9.066 12.514,9.297 12.438,8.711
    12.403,8.716  "/>
  <line class="st0" x1="12.659" y1="9.157" x2="12.79" y2="9.401"/>
  <polyline class="st2" points="12.644,9.165 12.776,9.409 12.805,9.393 12.672,9.149   "/>
  <polyline class="st0" points="12.045,9.458 12.235,9.353 12.296,9.595 12.434,9.398 12.517,9.765 12.725,9.612   "/>
  <polygon class="st2" points="12.053,9.473 12.224,9.378 12.279,9.599 12.288,9.635 12.425,9.44 12.501,9.769 12.506,9.794
    12.735,9.626 12.716,9.598 12.528,9.735 12.452,9.394 12.443,9.355 12.303,9.553 12.252,9.348 12.246,9.326 12.036,9.443
    12.053,9.473  "/>
  <polyline class="st0" points="11.967,9.696 12.067,9.952 12.263,9.77 12.326,10.051 12.53,9.836 12.584,10.082   "/>
  <polygon class="st2" points="11.951,9.702 12.051,9.959 12.06,9.983 12.253,9.804 12.309,10.055 12.316,10.086 12.52,9.871
    12.566,10.086 12.601,10.078 12.548,9.832 12.54,9.799 12.336,10.015 12.281,9.767 12.274,9.737 12.074,9.922 11.983,9.69   "/>
  <polyline class="st0" points="11.818,10.211 12.043,10.025 12.099,10.275 12.292,10.131 12.33,10.365 12.567,10.146  "/>
  <polygon class="st2" points="11.829,10.224 12.032,10.056 12.082,10.278 12.088,10.305 12.28,10.162 12.312,10.367 12.317,10.4
    12.578,10.159 12.556,10.133 12.343,10.33 12.31,10.128 12.304,10.1 12.11,10.245 12.06,10.021 12.055,9.993 11.807,10.197
    11.829,10.225   "/>
  <polygon class="st0" points="13.53,10.444 14.226,10.203 13.636,8.544 13.047,8.92  "/>
  <polygon class="st2" points="13.53,10.444 13.536,10.461 14.232,10.22 14.249,10.214 13.645,8.518 13.037,8.905 13.026,8.912
    13.519,10.467 13.536,10.461 13.53,10.444 13.545,10.439 13.066,8.927 13.627,8.571 14.203,10.193 13.523,10.428 13.53,10.444
    13.545,10.439   "/>
  <polyline class="st0" points="13.803,9.013 13.74,9.196 13.555,9.015   "/>
  <polygon class="st2" points="13.786,9.007 13.733,9.165 13.567,9.002 13.542,9.028 13.727,9.209 13.748,9.228 13.819,9.019   "/>
  <polyline class="st0" points="13.581,8.719 13.499,9.345 13.301,9.08   "/>
  <polygon class="st2" points="13.563,8.716 13.487,9.3 13.315,9.069 13.287,9.091 13.485,9.355 13.511,9.389 13.598,8.721
    13.563,8.717  "/>
  <line class="st0" x1="13.344" y1="9.161" x2="13.213" y2="9.405"/>
  <polyline class="st2" points="13.329,9.153 13.198,9.397 13.227,9.413 13.359,9.169   "/>
  <polyline class="st0" points="13.958,9.464 13.767,9.357 13.708,9.599 13.569,9.402 13.485,9.769 13.278,9.617   "/>
  <polygon class="st2" points="13.967,9.449 13.776,9.343 13.757,9.331 13.701,9.558 13.582,9.392 13.559,9.36 13.474,9.739
    13.288,9.603 13.268,9.63 13.475,9.782 13.496,9.798 13.577,9.443 13.694,9.609 13.715,9.64 13.779,9.383 13.95,9.479   "/>
  <polyline class="st0" points="14.036,9.7 13.937,9.957 13.74,9.776 13.678,10.055 13.474,9.84 13.421,10.086   "/>
  <polygon class="st2" points="14.021,9.694 13.929,9.927 13.752,9.763 13.73,9.743 13.668,10.019 13.485,9.828 13.464,9.804
    13.402,10.083 13.437,10.089 13.485,9.876 13.665,10.066 13.689,10.09 13.75,9.809 13.926,9.969 13.944,9.986 14.053,9.706  "/>
  <polyline class="st0" points="14.186,10.215 13.96,10.029 13.904,10.279 13.712,10.135 13.673,10.369 13.435,10.151  "/>
  <polygon class="st2" points="14.197,10.201 13.971,10.015 13.948,9.997 13.892,10.249 13.722,10.121 13.7,10.104 13.66,10.334
    13.446,10.138 13.425,10.165 13.662,10.382 13.686,10.404 13.724,10.166 13.893,10.293 13.915,10.31 13.971,10.06 14.175,10.229
    "/>
  <path class="st0" d="M13.73,10.29c-0.174,0.023-0.368,0.042-0.516,0.023c-0.09,0-0.151,0.147,0.019,0.17
    c0.151,0.02,0.389,0,0.517-0.023c0.108-0.02,0.346-0.063,0.498-0.104c0.151-0.066,0.043-0.194-0.043-0.174
    C14.073,10.225,13.901,10.267,13.73,10.29z"/>
  <path class="st2" d="M13.73,10.29l-0.003-0.017c-0.125,0.017-0.257,0.03-0.377,0.03l-0.134-0.007L13.109,10.4l0.122,0.1l0.15,0.008
    c0.134,0,0.281-0.015,0.372-0.031c0.108-0.019,0.347-0.062,0.498-0.104l0.089-0.103l-0.117-0.107l-0.024,0.002
    c-0.13,0.043-0.302,0.084-0.472,0.108L13.73,10.29l0.003,0.017c0.172-0.023,0.344-0.065,0.476-0.109l0.014-0.001l0.082,0.073
    l-0.066,0.07c-0.148,0.041-0.385,0.084-0.493,0.104c-0.089,0.016-0.234,0.03-0.365,0.03l-0.145-0.008L13.143,10.4l0.071-0.07
    l0.137,0.007c0.122,0,0.256-0.013,0.382-0.031L13.73,10.29z"/>
  <path class="st2" d="M13.73,10.29l-0.001-0.017c-0.002,0-0.279,0.025-0.448,0.025l-0.066-0.002H13.21l-0.102,0.101l0.122,0.102
    l0.108,0.006c0.174,0,0.413-0.028,0.414-0.028c0,0,0.348-0.051,0.499-0.105l0.09-0.099l-0.117-0.111l-0.026,0.004
    c-0.131,0.035-0.473,0.107-0.473,0.107L13.73,10.29l0.004,0.017c0,0,0.341-0.072,0.475-0.108l0.016-0.002l0.081,0.077l-0.065,0.066
    c-0.145,0.052-0.494,0.104-0.494,0.104s-0.238,0.028-0.409,0.028l-0.102-0.006l-0.093-0.068l0.067-0.067h0.004l0.067,0.002
    c0.171,0,0.45-0.026,0.45-0.026L13.73,10.29z"/>
  <polygon class="st0" points="13.834,10.437 13.781,10.617 13.674,10.452 13.744,10.34   "/>
  <polygon class="st2" points="13.834,10.437 13.819,10.432 13.775,10.576 13.694,10.451 13.747,10.368 13.822,10.448 13.834,10.437
    13.819,10.432 13.834,10.437 13.847,10.424 13.757,10.328 13.741,10.312 13.659,10.442 13.653,10.452 13.766,10.626 13.787,10.658
    13.851,10.441 13.854,10.432 13.847,10.424   "/>
  <path class="st0" d="M13.218,10.484c-0.007,0.059-0.057,0.028-0.102,0.15l-0.056-0.172l0.094-0.093L13.218,10.484z"/>
  <path class="st2" d="M13.218,10.484l-0.017-0.002c0.003,0.04-0.054,0.017-0.101,0.147l0.016,0.005l0.017-0.005l-0.053-0.163
    l0.07-0.07l0.054,0.096L13.218,10.484l-0.017-0.002L13.218,10.484l0.016-0.008l-0.066-0.116l-0.01-0.02l-0.11,0.109l-0.007,0.008
    l0.06,0.183l0.014,0.048l0.018-0.048c0.04-0.117,0.085-0.076,0.103-0.154v-0.005l-0.003-0.005L13.218,10.484z"/>
  <polygon class="st0" points="14.262,10.358 14.414,10.458 14.4,10.277 14.276,10.226  "/>
  <polygon class="st2" points="14.262,10.358 14.252,10.373 14.404,10.472 14.433,10.492 14.417,10.276 14.416,10.265 14.283,10.21
    14.262,10.201 14.245,10.357 14.243,10.367 14.252,10.373 14.262,10.358 14.279,10.36 14.292,10.25 14.384,10.289 14.394,10.424
    14.272,10.345 14.262,10.358 14.279,10.36  "/>
  <polyline class="st2" points="13.315,10.424 13.431,10.424 13.431,10.385 13.315,10.385   "/>
  <polyline class="st2" points="13.498,10.417 13.606,10.413 13.604,10.377 13.495,10.382   "/>
  <polyline class="st2" points="13.883,10.374 13.988,10.351 13.98,10.315 13.876,10.338  "/>
  <polyline class="st2" points="14.05,10.335 14.155,10.313 14.148,10.276 14.042,10.3  "/>
  <path class="st0" d="M12.281,10.29c0.174,0.023,0.368,0.042,0.515,0.023c0.09,0,0.152,0.147-0.018,0.17
    c-0.153,0.02-0.39,0-0.518-0.023c-0.109-0.02-0.345-0.063-0.497-0.104c-0.151-0.066-0.043-0.194,0.042-0.174
    C11.939,10.225,12.11,10.267,12.281,10.29z"/>
  <path class="st2" d="M12.281,10.29l-0.002,0.017c0.125,0.018,0.259,0.031,0.382,0.031l0.138-0.007l0.069,0.07l-0.092,0.067
    l-0.147,0.007c-0.13,0-0.276-0.014-0.365-0.03c-0.108-0.02-0.343-0.062-0.494-0.105l-0.064-0.07l0.082-0.073l0.013,0.001
    c0.134,0.043,0.306,0.085,0.478,0.108L12.281,10.29l0.003-0.017c-0.169-0.024-0.342-0.065-0.473-0.107l-0.023-0.003l-0.117,0.107
    l0.086,0.102c0.155,0.044,0.391,0.087,0.5,0.106c0.092,0.016,0.24,0.031,0.372,0.031l0.15-0.008l0.123-0.1l-0.106-0.104
    l-0.135,0.007c-0.12,0-0.254-0.014-0.377-0.03L12.281,10.29z"/>
  <path class="st2" d="M12.281,10.29l-0.001,0.017c0,0,0.279,0.026,0.449,0.026l0.069-0.002h0.004l0.066,0.067l-0.092,0.069
    l-0.104,0.005c-0.17,0-0.408-0.028-0.408-0.028s-0.349-0.052-0.493-0.104l-0.066-0.066l0.083-0.078l0.014,0.002
    c0.135,0.037,0.476,0.109,0.476,0.109L12.281,10.29l0.004-0.017c-0.001,0-0.341-0.072-0.474-0.108l-0.024-0.003l-0.117,0.111
    l0.088,0.098c0.151,0.054,0.499,0.105,0.501,0.105c0.001,0,0.24,0.028,0.413,0.028l0.108-0.006l0.123-0.102l-0.101-0.101h-0.006
    l-0.066,0.002c-0.168,0-0.445-0.025-0.445-0.025L12.281,10.29z"/>
  <polygon class="st0" points="12.177,10.437 12.23,10.617 12.336,10.452 12.267,10.34  "/>
  <polygon class="st2" points="12.177,10.437 12.16,10.441 12.214,10.622 12.224,10.658 12.35,10.461 12.356,10.452 12.283,10.331
    12.27,10.312 12.164,10.424 12.156,10.432 12.16,10.441 12.177,10.437 12.189,10.448 12.265,10.368 12.316,10.451 12.236,10.576
    12.192,10.432 12.177,10.437 12.189,10.448   "/>
  <path class="st0" d="M12.792,10.484c0.007,0.059,0.059,0.028,0.103,0.15l0.056-0.172l-0.095-0.093L12.792,10.484z"/>
  <path class="st2" d="M12.792,10.484l-0.017,0.002c0.017,0.078,0.063,0.037,0.104,0.154l0.017,0.047l0.072-0.22l0.004-0.01
    l-0.102-0.1l-0.017-0.016l-0.075,0.135l-0.003,0.005v0.005L12.792,10.484l0.016,0.008l0.053-0.096l0.071,0.07l-0.053,0.163
    l0.016,0.005l0.017-0.005c-0.05-0.13-0.104-0.107-0.102-0.147L12.792,10.484l0.016,0.008L12.792,10.484z"/>
  <polygon class="st0" points="11.749,10.358 11.597,10.458 11.611,10.277 11.735,10.226  "/>
  <polygon class="st2" points="11.749,10.358 11.74,10.345 11.617,10.424 11.628,10.289 11.72,10.25 11.732,10.36 11.749,10.358
    11.74,10.345 11.749,10.358 11.767,10.357 11.751,10.224 11.749,10.201 11.604,10.261 11.594,10.265 11.58,10.457 11.578,10.492
    11.759,10.373 11.768,10.367 11.767,10.357   "/>
  <polyline class="st2" points="12.697,10.385 12.581,10.385 12.581,10.424 12.697,10.424   "/>
  <polyline class="st2" points="12.516,10.382 12.407,10.377 12.405,10.413 12.514,10.417   "/>
  <polyline class="st2" points="12.135,10.338 12.029,10.315 12.022,10.351 12.128,10.374   "/>
  <polyline class="st2" points="11.968,10.3 11.864,10.276 11.856,10.313 11.961,10.335   "/>
  <path class="st0" d="M13.005,7.453c0.218,0.17,0.497,0.255,0.819,0.236c-0.021,0.752-0.235,1.266-0.819,1.654
    c-0.581-0.387-0.796-0.902-0.82-1.654C12.508,7.707,12.792,7.623,13.005,7.453z"/>
  <path class="st2" d="M13.005,7.453l-0.011,0.014c0.202,0.157,0.454,0.241,0.743,0.241l0.089-0.002l-0.002-0.017l-0.017,0
    c-0.023,0.749-0.234,1.255-0.811,1.639l0.009,0.015l0.01-0.015c-0.576-0.384-0.789-0.891-0.812-1.639l-0.017,0l-0.001,0.017
    l0.089,0.002c0.29,0,0.546-0.084,0.743-0.242L13.005,7.453l-0.011,0.014L13.005,7.453l-0.011-0.014
    c-0.19,0.152-0.438,0.235-0.721,0.235l-0.087-0.003l-0.017,0v0.019c0.022,0.754,0.24,1.278,0.827,1.667l0.009,0.006l0.01-0.006
    c0.587-0.389,0.804-0.913,0.827-1.667V7.67l-0.019,0l-0.086,0.003c-0.282,0-0.526-0.082-0.721-0.235l-0.011-0.008l-0.011,0.008
    L13.005,7.453z"/>
  <path class="st2" d="M13.254,7.672l-0.238-0.135l-0.258,0.139c-0.146,0.052-0.313,0.075-0.496,0.075
    c0.033,0.544,0.204,0.977,0.496,1.285l0.258,0.222l0.238-0.201c0.304-0.309,0.476-0.749,0.496-1.306
    C13.576,7.751,13.402,7.727,13.254,7.672z"/>
  <path class="st2" d="M13.254,7.672l0.01-0.018l-0.238-0.135l-0.01-0.005l-0.268,0.144c-0.139,0.05-0.304,0.072-0.486,0.072h-0.023
    l0.001,0.023c0.034,0.547,0.207,0.986,0.502,1.298l0.259,0.224l0.014,0.012l0.252-0.213c0.309-0.315,0.485-0.761,0.502-1.322
    l0.001-0.022h-0.021c-0.173,0-0.342-0.023-0.488-0.077L13.254,7.672l-0.008,0.02c0.153,0.056,0.328,0.08,0.504,0.08V7.751l-0.022,0
    c-0.018,0.553-0.189,0.986-0.489,1.292L13.016,9.23l-0.244-0.211c-0.285-0.303-0.455-0.73-0.488-1.27l-0.021,0.001v0.022
    c0.185,0,0.353-0.023,0.503-0.076l0.25-0.134l0.228,0.13L13.254,7.672z"/>
  <polygon class="st0" points="13.016,7.537 12.758,7.675 12.758,9.035 13.016,9.258 13.254,9.057 13.254,7.672  "/>
  <path class="st2" d="M12.263,7.751c0.033,0.544,0.204,0.977,0.496,1.285v-1.36C12.612,7.727,12.445,7.751,12.263,7.751z"/>
  <path class="st2" d="M13.254,7.672v1.384c0.304-0.309,0.476-0.749,0.496-1.306C13.576,7.751,13.402,7.727,13.254,7.672z"/>
</g>
</svg>
