<?xml version="1.0" encoding="utf-8"?>
<!-- Generator: Adobe Illustrator 20.0.0, SVG Export Plug-In . SVG Version: 6.00 Build 0)  -->
<svg version="1.1" id="Layer_1" xmlns="http://www.w3.org/2000/svg" xmlns:xlink="http://www.w3.org/1999/xlink" x="0px" y="0px"
	 viewBox="0 0 26 17" width="26" height="17" style="enable-background:new 0 0 26 17;" xml:space="preserve">
<style type="text/css">
	.st0{fill:#25346D;}
	.st1{fill:#FFFFFF;}
	.st2{fill:#CF172C;}
</style>
<g>
	<polygon class="st0" points="26,15.185 26,11.11 19.887,11.11 	"/>
	<polygon class="st0" points="15.6,17 22.731,17 15.6,12.247 	"/>
	<polygon class="st0" points="22.779,0 15.6,0 15.6,4.786 	"/>
	<polygon class="st0" points="3.269,17 10.4,17 10.4,12.247 	"/>
	<polygon class="st0" points="10.4,4.786 10.4,0 3.22,0 	"/>
	<polygon class="st0" points="0,1.85 0,5.909 6.091,5.909 	"/>
	<polygon class="st0" points="0,11.11 0,15.185 6.113,11.11 	"/>
	<polygon class="st0" points="26,5.909 26,1.85 19.909,5.909 	"/>
	<polygon class="st1" points="14.516,10.025 14.516,17 15.6,17 15.6,12.247 22.731,17 25.811,17 16.954,11.11 19.012,11.11 
		26,15.756 26,15.185 19.887,11.11 26,11.11 26,10.025 	"/>
	<polygon class="st1" points="11.483,6.993 11.483,0 10.4,0 10.4,4.786 3.22,0 0.22,0 9.105,5.909 7.046,5.909 0,1.222 0,1.85 
		6.091,5.909 0,5.909 0,6.993 	"/>
	<polygon class="st1" points="16.881,5.909 15.6,5.909 15.6,5.391 23.707,0 22.779,0 15.6,4.786 15.6,0 14.516,0 14.516,6.993 
		26,6.993 26,5.909 19.909,5.909 26,1.85 26,0 25.764,0 	"/>
	<polygon class="st1" points="9.049,11.11 10.4,11.11 10.4,11.579 2.249,17 3.269,17 10.4,12.247 10.4,17 11.483,17 11.483,10.025 
		0,10.025 0,11.11 6.113,11.11 0,15.185 0,17 0.19,17 	"/>
	<polygon class="st2" points="11.483,10.025 11.483,17 14.516,17 14.516,10.025 26,10.025 26,6.993 14.516,6.993 14.516,0 11.483,0 
		11.483,6.993 0,6.993 0,10.025 	"/>
	<polygon class="st2" points="16.954,11.11 25.811,17 26,17 26,15.756 19.012,11.11 	"/>
	<polygon class="st2" points="15.6,5.909 16.881,5.909 25.764,0 23.707,0 15.6,5.391 	"/>
	<polygon class="st2" points="10.4,11.11 9.049,11.11 0.19,17 2.249,17 10.4,11.579 	"/>
	<polygon class="st2" points="9.105,5.909 0.22,0 0,0 0,1.222 7.046,5.909 	"/>
</g>
</svg>
