<?xml version="1.0" encoding="utf-8"?>
<!-- Generator: Adobe Illustrator 20.0.0, SVG Export Plug-In . SVG Version: 6.00 Build 0)  -->
<svg version="1.1" id="Layer_1" xmlns="http://www.w3.org/2000/svg" xmlns:xlink="http://www.w3.org/1999/xlink" x="0px" y="0px"
   viewBox="0 0 26 17" width="26" height="17" style="enable-background:new 0 0 26 17;" xml:space="preserve">
<style type="text/css">
  .st0{fill:#FFFFFF;}
  .st1{fill:#E52629;}
  .st2{fill:#E51A30;}
</style>
<g>
  <rect x="14.701" y="10.2" class="st0" width="11.299" height="6.8"/>
  <rect y="0" class="st0" width="11.302" height="6.801"/>
  <rect y="10.2" class="st0" width="11.302" height="6.8"/>
  <rect x="14.701" y="0" class="st0" width="11.299" height="6.801"/>
  <polygon class="st1" points="14.701,0 11.302,0 11.302,6.801 0,6.801 0,10.2 11.302,10.2 11.302,17 14.701,17 14.701,10.2 26,10.2 
    26,6.801 14.701,6.801   "/>
  <path class="st2" d="M19.658,1.782c0.378,0.047,0.761,0.047,1.133,0c-0.074,0.393-0.117,0.795-0.138,1.191
    c0.4-0.019,0.798-0.066,1.193-0.14c-0.047,0.377-0.047,0.758,0,1.137c-0.394-0.075-0.793-0.122-1.193-0.14
    c0.021,0.4,0.068,0.796,0.138,1.19c-0.373-0.047-0.76-0.047-1.133,0c0.076-0.395,0.122-0.795,0.141-1.194
    c-0.401,0.022-0.8,0.069-1.193,0.144c0.046-0.378,0.046-0.76,0-1.137c0.393,0.074,0.793,0.121,1.193,0.143
    C19.78,2.577,19.734,2.175,19.658,1.782z"/>
  <path class="st2" d="M5.208,1.782c0.378,0.047,0.76,0.047,1.135,0c-0.075,0.393-0.12,0.795-0.14,1.191
    c0.399-0.019,0.799-0.066,1.193-0.14c-0.048,0.377-0.048,0.758,0,1.137c-0.394-0.075-0.795-0.122-1.193-0.14
    c0.02,0.4,0.069,0.796,0.14,1.19c-0.376-0.047-0.761-0.047-1.135,0c0.077-0.395,0.121-0.795,0.141-1.194
    c-0.4,0.022-0.8,0.069-1.193,0.144c0.047-0.378,0.047-0.76,0-1.137C4.549,2.907,4.95,2.954,5.349,2.976
    C5.329,2.577,5.285,2.175,5.208,1.782z"/>
  <path class="st2" d="M5.208,11.982c0.378,0.047,0.76,0.047,1.135,0c-0.075,0.393-0.12,0.794-0.14,1.191
    c0.399-0.019,0.799-0.066,1.193-0.14c-0.048,0.378-0.048,0.758,0,1.136c-0.394-0.075-0.795-0.121-1.193-0.14
    c0.02,0.4,0.069,0.796,0.14,1.19c-0.376-0.048-0.761-0.048-1.135,0c0.077-0.394,0.121-0.794,0.141-1.194
    c-0.4,0.022-0.8,0.069-1.193,0.144c0.047-0.378,0.047-0.759,0-1.136c0.393,0.074,0.794,0.121,1.193,0.144
    C5.329,12.776,5.285,12.375,5.208,11.982z"/>
  <path class="st2" d="M19.658,11.982c0.378,0.047,0.761,0.047,1.133,0c-0.074,0.393-0.117,0.794-0.138,1.191
    c0.4-0.019,0.798-0.066,1.193-0.14c-0.047,0.378-0.047,0.758,0,1.136c-0.394-0.075-0.793-0.121-1.193-0.14
    c0.021,0.4,0.068,0.796,0.138,1.19c-0.373-0.048-0.76-0.048-1.133,0c0.076-0.394,0.122-0.794,0.141-1.194
    c-0.401,0.022-0.8,0.069-1.193,0.144c0.046-0.378,0.046-0.759,0-1.136c0.393,0.074,0.793,0.121,1.193,0.144
    C19.78,12.776,19.734,12.375,19.658,11.982z"/>
</g>
</svg>
