<?xml version="1.0" encoding="utf-8"?>
<!-- Generator: Adobe Illustrator 20.0.0, SVG Export Plug-In . SVG Version: 6.00 Build 0)  -->
<svg version="1.1" id="Layer_1" xmlns="http://www.w3.org/2000/svg" xmlns:xlink="http://www.w3.org/1999/xlink" x="0px" y="0px"
   viewBox="0 0 26 17" width="26" height="17" style="enable-background:new 0 0 26 17;" xml:space="preserve">
<style type="text/css">
  .st0{fill:#FFFFFF;}
  .st1{fill:#0148C8;}
</style>
<g>
  <rect class="st0" width="26" height="17"/>
  <rect y="1.67" class="st1" width="26" height="2.55"/>
  <rect y="12.781" class="st1" width="26" height="2.549"/>
  <path class="st1" d="M15.164,8.498l1.076-1.863h-2.152L13,4.751l-1.088,1.884H9.759l0.276,0.479L10.836,8.5l-1.077,1.864h0.552h1.6
    L13,12.249l1.088-1.886h2.152L15.164,8.498z M13,6.026l0.352,0.61h-0.704L13,6.026z M10.864,9.727l0.34-0.589l0.341,0.589H10.864z
     M11.204,7.862l-0.34-0.589h0.681L11.204,7.862z M13,10.974l-0.353-0.61h0.704L13,10.974z M13.72,9.727h-1.439L11.572,8.5
    l0.708-1.228h1.439L14.429,8.5L13.72,9.727z M14.455,9.727l0.341-0.589l0.341,0.589H14.455z M14.796,7.863l-0.341-0.59h0.681
    L14.796,7.863z"/>
</g>
</svg>
