<?xml version="1.0" encoding="utf-8"?>
<!-- Generator: Adobe Illustrator 20.0.0, SVG Export Plug-In . SVG Version: 6.00 Build 0)  -->
<svg version="1.1" id="Layer_1" xmlns="http://www.w3.org/2000/svg" xmlns:xlink="http://www.w3.org/1999/xlink" x="0px" y="0px"
   viewBox="0 0 26 17" width="26" height="17" style="enable-background:new 0 0 26 17;" xml:space="preserve">
<style type="text/css">
  .st0{fill:#FFFFFF;}
  .st1{fill:#CE1126;}
  .st2{fill:#009E49;}
</style>
<g>
  <polygon points="0,17 26,16.956 26,11.303 0,11.347  "/>
  <polygon class="st0" points="0,5.695 0,11.347 26,11.303 26,5.651  "/>
  <polygon class="st1" points="26,0 0,0.044 0,5.695 26,5.651  "/>
  <path class="st2" d="M17.216,6.752l-0.417,0.413l0.111,0.136v0.279c0,0.442,0,0.885,0,1.327c0,0.219,0.094,0.404-0.155,0.397
    c-0.23-0.007-0.156-0.098-0.156-0.326c0-0.25,0.124-1.578-0.017-1.655l-0.428,0.451l0.086,0.23
    c0.013,0.408,0.005,0.816,0.005,1.224c0,0.128-0.124,0.076-0.233,0.076c-0.146,0-0.078-0.233-0.078-0.355
    c0-0.145,0.008-1.064-0.017-1.064L15.51,8.363l0.055,0.376c-0.472-0.069-0.635,0.221-0.65,0.638l-0.01,0.283
    c0.21,0,2.359,0.08,2.359,0C17.264,9.367,17.234,6.749,17.216,6.752z M15.266,9.267c0-0.207,0.355-0.397,0.31-0.106
    C15.635,9.408,15.266,9.303,15.266,9.267z"/>
  <path class="st2" d="M17.509,8.508c0-0.121-0.1-1.087,0.025-1.166c0.028-0.018,0.529,0.345,0.388,0.467
    c-0.144,0.124-0.057,0.624-0.057,0.777c0,0.233,0,0.466,0,0.699c0,0.127,0.621-0.076,0.616-0.084l-0.08,0.324
    c-0.09,0.141,0.003,0.122-0.233,0.125c-0.22,0.004-0.439,0.007-0.659,0.01C17.509,9.276,17.509,8.892,17.509,8.508"/>
  <path class="st2" d="M15.762,7.303l-0.106-0.08l0.331-0.017l0.171-0.149l0.192,0.061c0.126,0.025,0.149-0.212,0.181-0.206
    c0.174,0.03,0.014,0.317-0.126,0.319C16.195,7.233,15.964,7.377,15.762,7.303"/>
  <path class="st2" d="M16.03,6.937c-0.047-0.032-0.266-0.335-0.129-0.355C16.063,6.56,16.056,6.954,16.03,6.937"/>
  <path class="st2" d="M7.788,10.219L7.515,9.967c0.107,0.239,0.597-0.015,0.631-0.217c0.033-0.203-0.305-0.464-0.097-0.56
    c0.258-0.113,0.224-0.417,0.373,0.03c0.058,0.172,0.3,0.105,0.461,0.103c-0.054-0.131-0.19-0.238-0.053-0.334l0.366-0.372
    c0.138,0-0.191,0.706,0.192,0.706c0.399,0,0.797,0,1.196,0c0.31,0,0.621,0,0.931,0c0.508,0,0.465,0.037,0.465-0.478
    c0-0.147,0.101-0.626-0.155-0.628c-0.26-0.003-0.156,0.65-0.156,0.803L9.348,9.049c0-0.254,0.602-0.82,0.77-1.042
    c0.137-0.18,0.274-0.359,0.409-0.54c0.105-0.141,0.506-0.88,0.685-0.902c-0.021,0.002,0.256,0.5,0.039,0.508l-0.183,0.183
    c-0.333,0.413-0.881,0.936-1.074,1.432c0.073-0.166,1.16,0.171,1.324,0.017c0.104-0.099-0.087-0.414,0.057-0.537
    c0.097-0.081,0.396-0.372,0.521-0.29c0.478,0.316,0.44,0.427,0.44,0.985c0,0.133,0.04,0.813-0.035,0.813c-0.696,0-1.391,0-2.087,0
    c-0.482,0-0.963,0-1.444,0c-0.117,0-0.265-0.053-0.298,0.071C8.384,10.069,8.169,10.359,7.788,10.219"/>
  <path class="st2" d="M12.579,8.529c0-0.12-0.101-1.083,0.024-1.16c0.041-0.026,0.515,0.342,0.383,0.467
    c-0.138,0.133-0.053,0.617-0.053,0.772c-0.001,0.213,0,0.428,0,0.64s0.479,0.007,0.598-0.019l-0.064,0.316
    c-0.093,0.138,0.005,0.122-0.232,0.124c-0.218,0.002-0.438,0.005-0.655,0.008C12.579,9.294,12.579,8.912,12.579,8.529"/>
  <circle class="st2" cx="8.866" cy="10.156" r="0.236"/>
</g>
</svg>
