<?xml version="1.0" encoding="utf-8"?>
<!-- Generator: Adobe Illustrator 20.0.0, SVG Export Plug-In . SVG Version: 6.00 Build 0)  -->
<svg version="1.1" id="Layer_1" xmlns="http://www.w3.org/2000/svg" xmlns:xlink="http://www.w3.org/1999/xlink" x="0px" y="0px"
   viewBox="0 0 26 17" width="26" height="17" style="enable-background:new 0 0 26 17;" xml:space="preserve">
<style type="text/css">
  .st0{fill:#006600;}
  .st1{fill:#BB0000;}
  .st2{fill:#FFFFFF;}
</style>
<g>
  <rect y="11.333" class="st0" width="26" height="5.667"/>
  <rect y="5.666" class="st1" width="26" height="5.667"/>
  <rect width="26" height="5.666"/>
  <rect y="5.241" class="st2" width="26" height="0.85"/>
  <rect y="10.907" class="st2" width="26" height="0.851"/>
  <path class="st2" d="M15.357,5.248c0.323-0.083,0.5-0.378,0.679-0.673c0.118-0.196,0.798-2.003,0.798-2.003
    s-1.297,1.467-1.414,1.663c-0.179,0.295-0.357,0.589-0.27,0.899L13,8.698l-2.152-3.564c0.088-0.31-0.09-0.605-0.269-0.899
    c-0.117-0.196-1.414-1.663-1.414-1.663s0.68,1.806,0.799,2.003c0.178,0.295,0.354,0.59,0.678,0.673l2.22,3.677l-3.252,5.389
    l0.205,0.114L13,9.151l3.185,5.276l0.205-0.114l-3.253-5.388L15.357,5.248z"/>
  <path d="M15.357,5.248l0.002,0.011c0.331-0.084,0.508-0.383,0.688-0.677c0.119-0.201,0.798-2.005,0.798-2.005l-0.019-0.013
    c0,0.001-1.294,1.466-1.415,1.665c-0.147,0.242-0.294,0.485-0.294,0.739l0.024,0.17l0.011-0.004l-0.01-0.005L13,8.675l-2.142-3.546
    l-0.01,0.005l0.012,0.004l0.024-0.17c-0.002-0.255-0.148-0.497-0.295-0.739C10.468,4.03,9.165,2.573,9.165,2.572L9.154,2.577
    c0,0,0.678,1.805,0.8,2.005c0.179,0.294,0.356,0.593,0.686,0.677l0.003-0.011l-0.01,0.005l2.216,3.672l-3.255,5.393l0.216,0.119
    l0.009,0.005L13,9.174l3.179,5.268l0.216-0.118l0.011-0.006l-3.256-5.392l2.216-3.673L15.357,5.248l0.002,0.011L15.357,5.248
    l-0.01-0.007l-2.224,3.685l3.251,5.383l-0.185,0.102L13,9.129l-3.188,5.283l-0.185-0.102l3.248-5.384L10.65,5.237l-0.005-0.001
    c-0.317-0.079-0.493-0.371-0.671-0.667C9.856,4.376,9.272,2.846,9.271,2.844L9.165,2.572L9.156,2.58
    c0,0.002,1.298,1.468,1.413,1.661c0.146,0.241,0.29,0.481,0.29,0.727l-0.022,0.163l-0.001,0.005L13,8.72l2.163-3.584l-0.001-0.005
    L15.14,4.968c0-0.246,0.144-0.486,0.289-0.727c0.116-0.193,1.413-1.66,1.415-1.661l-0.009-0.008l-0.011-0.004
    c0,0.002-0.68,1.808-0.797,2.001c-0.179,0.296-0.354,0.588-0.672,0.667l-0.006,0.002l-0.002,0.004L15.357,5.248z"/>
  <path class="st1" d="M15.253,5.777C14.898,4.87,13.711,3.054,13,3.054c-0.713,0-1.898,1.815-2.254,2.723
    c0.356,0.907,0.593,1.815,0.593,2.723c0,0.907-0.236,1.815-0.593,2.722c0.356,0.908,1.541,2.723,2.254,2.723
    c0.711,0,1.898-1.815,2.253-2.723c-0.355-0.907-0.593-1.815-0.593-2.722C14.661,7.592,14.898,6.685,15.253,5.777z"/>
  <path d="M15.253,5.777c-0.726,1.848-0.726,3.595,0,5.445C15.978,9.375,15.978,7.624,15.253,5.777"/>
  <path d="M10.746,5.777c-0.726,1.847-0.726,3.598,0,5.445C11.471,9.372,11.471,7.626,10.746,5.777"/>
  <path class="st2" d="M13,7.819c0.64,0,0.64,1.361,0,1.361C12.36,9.18,12.36,7.819,13,7.819"/>
  <path class="st2" d="M13.118,9.163c0.676,1.4,0.676,3.366,0,4.766C13.118,12.339,13.118,10.751,13.118,9.163"/>
  <path class="st2" d="M12.88,7.837c-0.674-1.4-0.676-3.366,0-4.766C12.88,4.66,12.88,6.248,12.88,7.837"/>
  <path class="st2" d="M12.88,9.163c-0.674,1.4-0.676,3.366,0,4.766C12.88,12.339,12.88,10.751,12.88,9.163"/>
  <path class="st2" d="M13.118,7.837c0.676-1.4,0.676-3.366,0-4.766C13.118,4.66,13.118,6.248,13.118,7.837"/>
</g>
</svg>
