<?xml version="1.0" encoding="utf-8"?>
<!-- Generator: Adobe Illustrator 20.0.0, SVG Export Plug-In . SVG Version: 6.00 Build 0)  -->
<svg version="1.1" id="Layer_1" xmlns="http://www.w3.org/2000/svg" xmlns:xlink="http://www.w3.org/1999/xlink" x="0px" y="0px"
   viewBox="0 0 26 17" width="26" height="17" style="enable-background:new 0 0 26 17;" xml:space="preserve">
<style type="text/css">
  .st0{fill:#F93F26;}
  .st1{fill:#FFFFFF;}
  .st2{fill:#009E3F;}
</style>
<g>
  <rect x="0" y="12.747" class="st0" width="26" height="4.246"/>
  <rect x="0" y="4.254" class="st1" width="26" height="8.492"/>
  <rect x="0" y="0.008" class="st0" width="26" height="4.247"/>
  <path class="st2" d="M17.165,10.95L16.901,10.7c-0.227-0.17-0.477-0.31-0.726-0.442c-0.161-0.089-0.324-0.172-0.468-0.288
    l-0.09-0.156l0.115-0.113l0.226-0.1c0.211,0.044,0.372,0.211,0.585,0.254c0.123,0.028,0.243-0.022,0.362-0.04
    c-0.271-0.23-0.556-0.446-0.815-0.69l-0.14-0.152c-0.111-0.094-0.249-0.155-0.395-0.171l-0.302-0.039l-0.036-0.069l0.153-0.084
    c0.268-0.054,0.544-0.042,0.815-0.068l0.312-0.064l-0.001-0.048l-0.191-0.102c-0.279-0.099-0.566-0.171-0.852-0.238l-0.237-0.114
    l0.072-0.117c0.202-0.017,0.4,0.038,0.6,0.063l0.321,0.003l-0.092-0.117c-0.146-0.105-0.308-0.184-0.462-0.277
    c-0.209-0.129-0.415-0.268-0.602-0.43c-0.168-0.159-0.341-0.315-0.541-0.432L14.27,6.52l-0.021-0.092l0.317-0.057l0.288,0.112
    c0.19,0.047,0.389,0.042,0.583,0.025c-0.139-0.038-0.27-0.101-0.391-0.177c-0.162-0.104-0.322-0.215-0.47-0.337l-0.073-0.09
    l0.269-0.011l0.303,0.017c-0.15-0.119-0.303-0.236-0.454-0.351c-0.192-0.144-0.398-0.285-0.635-0.338
    c-0.137-0.03-0.275-0.057-0.411-0.089l-0.239-0.142l-0.249-0.29c-0.081-0.118-0.131-0.25-0.188-0.377l-0.018,0.001
    c-0.076,0.119-0.139,0.249-0.234,0.354l-0.306,0.281c-0.115,0.083-0.225,0.175-0.326,0.273l-0.198,0.228l0.297-0.083l0.152-0.008
    L12.175,5.49c-0.11,0.099-0.235,0.183-0.372,0.242l-0.282,0.165l-0.194,0.177v0.031l0.135,0.005l0.184,0.01l0.054,0.203l-0.24,0.05
    l-0.271,0.191l-0.103,0.192c-0.093,0.096-0.222,0.142-0.341,0.202c-0.183,0.094-0.36,0.201-0.525,0.326l-0.127,0.122l0.01,0.073
    l0.158,0.031c0.134-0.005,0.266-0.039,0.395-0.079l0.135-0.036l0.103,0.089l0.084,0.257l-0.191,0.276
    c-0.084,0.103-0.186,0.203-0.318,0.239l-0.273,0.088c-0.132,0.074-0.24,0.186-0.347,0.291L9.619,8.853L9.424,8.977L9.43,9.011
    l0.303,0.126c0.192-0.04,0.348-0.169,0.508-0.275l0.141-0.033l0.161,0.234l-0.042,0.184L10.249,9.41
    c-0.252,0.124-0.481,0.286-0.69,0.472c-0.156,0.136-0.287,0.306-0.467,0.411l-0.297,0.016l0.201,0.174l0.318-0.013
    c0.276-0.074,0.544-0.175,0.799-0.307c0.113-0.054,0.203-0.144,0.32-0.189l0.34-0.002l0.108,0.136l-0.131,0.169
    c-0.174,0.129-0.375,0.211-0.576,0.29c-0.299,0.111-0.615,0.179-0.909,0.302v0.034l0.104,0.124
    c0.137,0.053,0.288,0.048,0.432,0.037c0.227-0.016,0.446-0.09,0.655-0.177c0.276-0.104,0.539-0.233,0.809-0.349l0.297-0.05
    c0.122,0.05,0.239,0.121,0.318,0.226l0.07,0.158c0.017,0.128-0.014,0.257-0.064,0.374c-0.097,0.225-0.247,0.422-0.404,0.61
    c-0.144,0.177-0.338,0.312-0.558,0.379l-0.266,0.093l-0.213,0.18l-0.103,0.184l0.106,0.001l0.136-0.147
    c0.106-0.086,0.237-0.138,0.372-0.16l0.314-0.034c0.234-0.057,0.448-0.184,0.623-0.35c0.114-0.099,0.258-0.189,0.415-0.177
    l0.251,0.083l0.293-0.059l0.092,0.03l0.054,0.172l0.152,0.139c0.13,0.08,0.244,0.183,0.356,0.286l0.147,0.075
    c0.011-0.137-0.133-0.226-0.129-0.363c0.148-0.013,0.296,0.001,0.444,0.019l0.336,0.095c0.151,0.113,0.241,0.293,0.407,0.385
    l0.197-0.025v-0.039c-0.155-0.182-0.344-0.329-0.524-0.483c-0.149-0.13-0.301-0.266-0.4-0.438
    c-0.116-0.204-0.126-0.447-0.126-0.676c0.003-0.15-0.01-0.302,0.028-0.448l0.12-0.179l0.168-0.057
    c0.159,0.031,0.293,0.127,0.439,0.19c0.107,0.048,0.224,0.067,0.341,0.069c0.299,0.009,0.597-0.01,0.893,0
    c0.117,0.004,0.229,0.039,0.329,0.095c0.193,0.106,0.379,0.221,0.559,0.347l0.283,0.137l0.172-0.078L17.165,10.95z M11.241,8.899
    c-0.113,0.047-0.232,0.088-0.354,0.102l-0.127-0.02l-0.085-0.146l-0.065-0.19c0.135-0.04,0.275-0.051,0.416-0.06
    c0.12-0.003,0.243-0.012,0.362,0.018l0.106,0.05l0.018,0.066L11.241,8.899z M11.291,7.62l-0.15-0.089l-0.13-0.227l0.053-0.088
    l0.189-0.026l0.138,0.102l0.144,0.241L11.291,7.62z M13.212,6.098l0.189-0.047l0.081,0.147l-0.09,0.04l-0.201-0.038L13.212,6.098z
     M13.098,6.964l-0.055,0.119L12.881,7.13l-0.236-0.08c0.109-0.044,0.214-0.104,0.33-0.125L13.098,6.964z M12.266,6.358l0.091,0.013
    l-0.111,0.277L11.99,6.791L11.852,6.8l0.013-0.101l0.173-0.203L12.266,6.358z M11.852,5.959l0.092-0.06l0.149,0.045l-0.112,0.147
    L11.858,6.17L11.852,5.959z M11.94,9.859l-0.073,0.141L11.78,9.952l-0.119-0.314l-0.016-0.147l0.227,0.052L11.94,9.859z
     M11.919,7.281l-0.171,0.168l-0.065,0.009l-0.102-0.26l0.032-0.068l0.222-0.037l0.158,0.048L11.919,7.281z M11.997,8.158
    l0.124-0.021l0.167,0.207l-0.212-0.066L11.997,8.158z M12.435,9.949l-0.136-0.098l-0.073-0.197l0.227,0.117L12.435,9.949z
     M12.557,6.425l-0.031-0.019l0.047-0.156l0.219-0.132l0.187-0.039l0.047,0.16l-0.117,0.114C12.794,6.391,12.676,6.418,12.557,6.425
    z M12.637,8.264l-0.036-0.216l0.145-0.035L12.7,8.263L12.637,8.264z M12.836,9.999l-0.052-0.171l-0.005-0.01l-0.05-0.256
    c0.121-0.002,0.249,0.018,0.355,0.081C13.016,9.771,12.924,9.883,12.836,9.999z M13.254,8.563l-0.136,0.003L12.959,8.41
    l0.114-0.275l0.195,0.289L13.254,8.563z M13.539,8.576l-0.019,0.051l-0.087-0.035l-0.027-0.233l0.132,0.148V8.576z M13.541,7.076
    l-0.087,0.096L13.247,7.19l0.02-0.091l0.142-0.179l0.11,0.001L13.541,7.076z M14.453,7.88l0.132-0.146
    c0.101-0.041,0.245,0.029,0.241,0.146l-0.148,0.164l-0.203-0.089L14.453,7.88z M13.656,6.253l0.07-0.143l0.224-0.017l-0.005,0.097
    l0.013-0.086l-0.048,0.188l-0.223,0.046L13.656,6.253z M14.226,7.402l-0.147,0.02l-0.278-0.078l-0.068-0.075l0.236-0.213
    l0.268,0.062l0.05,0.137L14.226,7.402z M14.877,9.279l-0.232,0.177c-0.138,0.045-0.304,0.009-0.4-0.102l0.014-0.067
    c0.101-0.083,0.213-0.157,0.343-0.183l0.261,0.039L14.877,9.279z M15.418,9.697l-0.279-0.049l-0.092-0.097l0.115-0.142l0.236-0.149
    l0.072,0.003l0.196,0.147C15.611,9.526,15.516,9.618,15.418,9.697z"/>
</g>
</svg>
