<?xml version="1.0" encoding="utf-8"?>
<!-- Generator: Adobe Illustrator 20.0.0, SVG Export Plug-In . SVG Version: 6.00 Build 0)  -->
<svg version="1.1" id="Layer_1" xmlns="http://www.w3.org/2000/svg" xmlns:xlink="http://www.w3.org/1999/xlink" x="0px" y="0px"
   viewBox="0 0 26 17" width="26" height="17" style="enable-background:new 0 0 26 17;" xml:space="preserve">
<style type="text/css">
  .st0{fill:#E70013;}
  .st1{fill:#008400;}
</style>
<g>
  <rect x="0" y="0.001" class="st0" width="26" height="16.997"/>
  <polygon class="st1" points="11.963,7.464 8.608,7.464 12.428,10.373 13,9.937 10.686,8.174 11.742,8.172  "/>
  <polygon points="11.963,7.464 11.963,7.456 8.58,7.456 12.428,10.384 13.006,9.944 13.015,9.937 10.713,8.183 11.742,8.18 
    11.749,8.18 11.972,7.466 11.976,7.456 11.963,7.456 11.963,7.464 11.955,7.463 11.735,8.163 10.686,8.166 10.658,8.166 
    12.984,9.937 12.428,10.361 8.635,7.473 11.963,7.473 11.963,7.464 11.955,7.463   "/>
  <polygon class="st1" points="14.039,7.464 12.999,4.123 11.541,8.826 12.114,9.261 12.999,6.411 13.328,7.464  "/>
  <polygon points="14.039,7.464 14.048,7.463 12.999,4.091 11.531,8.83 12.109,9.27 12.119,9.277 12.999,6.442 13.319,7.466 
    13.321,7.473 14.039,7.473 14.052,7.473 14.048,7.463 14.039,7.464 14.039,7.456 13.335,7.456 13.008,6.409 12.999,6.379 
    12.109,9.246 11.553,8.823 12.999,4.154 14.031,7.466 14.039,7.464 14.039,7.456   "/>
  <polygon class="st1" points="14.68,9.534 17.392,7.464 12.671,7.465 12.452,8.172 15.314,8.172 14.461,8.826   "/>
  <polygon points="14.68,9.534 14.685,9.541 17.42,7.454 12.664,7.456 12.443,8.17 12.439,8.18 15.287,8.18 14.456,8.818 
    14.451,8.822 14.672,9.536 14.675,9.548 14.685,9.541 14.68,9.534 14.689,9.532 14.471,8.829 15.32,8.179 15.342,8.163 
    12.465,8.163 12.678,7.474 17.365,7.473 14.674,9.526 14.68,9.534 14.689,9.532  "/>
  <polygon class="st1" points="12.999,10.809 15.716,12.873 14.258,8.172 13.547,8.172 14.432,11.022 13.575,10.373  "/>
  <polygon points="12.999,10.809 12.994,10.817 15.734,12.898 14.265,8.163 13.547,8.163 13.535,8.163 14.415,10.998 13.58,10.365 
    13.575,10.361 12.994,10.802 12.984,10.809 12.994,10.817 12.999,10.809 13.005,10.817 13.575,10.384 14.427,11.03 14.451,11.047 
    13.559,8.18 14.25,8.18 15.698,12.848 13.005,10.802 12.999,10.809 13.005,10.817  "/>
  <polygon class="st1" points="11.321,9.532 10.287,12.875 14.104,9.967 13.886,9.261 11.571,11.023 11.896,9.969  "/>
  <polygon points="11.321,9.532 11.312,9.529 10.269,12.9 14.115,9.97 13.895,9.26 13.891,9.246 11.589,10.999 11.904,9.972 
    11.906,9.966 11.326,9.523 11.315,9.516 11.312,9.529 11.321,9.532 11.315,9.538 11.885,9.973 11.563,11.021 11.553,11.049 
    13.882,9.277 14.094,9.964 10.304,12.851 11.329,9.534 11.321,9.532 11.315,9.538  "/>
</g>
</svg>
