<?xml version="1.0" encoding="utf-8"?>
<!-- Generator: Adobe Illustrator 20.0.0, SVG Export Plug-In . SVG Version: 6.00 Build 0)  -->
<svg version="1.1" id="Layer_1" xmlns="http://www.w3.org/2000/svg" xmlns:xlink="http://www.w3.org/1999/xlink" x="0px" y="0px"
   viewBox="0 0 26 17" width="26" height="17" style="enable-background:new 0 0 26 17;" xml:space="preserve">
<style type="text/css">
  .st0{fill:#FFFFFF;}
  .st1{fill:#009543;}
  .st2{fill:#FC3D32;}
  .st3{fill:#EF2D28;}
</style>
<g>
  <rect class="st0" width="26" height="17"/>
  <rect y="8.333" class="st1" width="26" height="8.667"/>
  <polygon class="st2" points="26,5.666 6.375,5.666 6.375,0 0,0 0,5.666 0,11.333 0,17 6.375,17 6.375,11.333 26,11.333   "/>
  <path class="st0" d="M5.014,5.054L4.962,5.067C4.679,4.838,4.308,4.519,3.849,4.071C3.168,3.405,2.831,2.959,2.638,2.682
    l0.038-0.019c-0.614-1.06-1.202-1.878-1.314-1.829C1.249,0.888,1.657,1.789,2.271,2.85l0.043-0.022
    c0.208,0.35,0.616,0.839,1.138,1.359C3.835,4.571,4.211,4.914,4.54,5.178L4.529,5.181c0.457,0.433,0.97,0.612,1.112,0.535
    C5.785,5.639,5.384,5.461,5.014,5.054z"/>
  <path class="st3" d="M2.197,2.474l0.006,0.008l0.146,0.255l0.178-0.083L2.375,2.392L2.197,2.474z M2.347,2.696L2.232,2.501
    L2.355,2.57L2.347,2.696z M2.355,2.549L2.228,2.478l0.134-0.062L2.355,2.549z M2.363,2.712l0.008-0.133L2.496,2.65L2.363,2.712z
     M2.491,2.629L2.371,2.56l0.007-0.127L2.491,2.629z M1.448,1.072l0.051,0.052l0.053-0.052L1.499,1.021L1.448,1.072z M5.619,5.582
    C5.507,5.475,5.258,5.31,5.021,5.048L5.018,5.044L5.012,5.046L4.963,5.057c-0.28-0.228-0.65-0.546-1.108-0.992
    C3.193,3.417,2.856,2.977,2.66,2.697L2.65,2.684l0.039-0.017l-0.006-0.01c-0.297-0.512-0.589-0.971-0.825-1.3
    C1.742,1.193,1.639,1.06,1.556,0.969L1.373,0.825L1.357,0.828L1.334,0.885c0,0.107,0.095,0.361,0.259,0.71
    c0.164,0.348,0.397,0.789,0.67,1.259L2.267,2.86l0.006-0.002l0.034-0.015L2.312,2.84l0.201,0.295
    C2.739,3.443,3.062,3.81,3.445,4.193c0.379,0.378,0.75,0.719,1.077,0.98l-0.01,0.004l0.012,0.011
    c0.39,0.365,0.819,0.553,1.03,0.553l0.091-0.018L5.68,5.677L5.619,5.582z M2.274,2.838C2.003,2.37,1.772,1.933,1.61,1.588
    C1.447,1.241,1.351,0.983,1.351,0.885l0.014-0.041l0.007-0.001h0.001l0.169,0.138c0.245,0.272,0.677,0.911,1.121,1.678L2.639,2.67
    C2.567,2.543,2.491,2.412,2.421,2.292L2.416,2.287L2.413,2.288c-0.204-0.34-0.398-0.64-0.559-0.875
    c-0.11-0.16-0.207-0.29-0.282-0.378L1.475,0.931L1.407,0.894L1.396,0.895L1.379,0.938C1.38,1.026,1.477,1.266,1.641,1.603
    C1.757,1.842,1.907,2.13,2.08,2.441L2.077,2.444l0.004,0.007c0.067,0.119,0.145,0.25,0.218,0.376L2.274,2.838z M1.64,1.147
    C1.826,1.39,2.099,1.802,2.397,2.296L2.096,2.434c-0.174-0.311-0.324-0.599-0.44-0.838C1.585,1.45,1.528,1.324,1.484,1.218
    L1.64,1.147z M1.478,1.203C1.426,1.072,1.396,0.979,1.396,0.938l0.007-0.026l0.002-0.001l0.056,0.034l0.167,0.188L1.478,1.203z
     M2.314,2.82c-0.072-0.127-0.142-0.249-0.21-0.37l0.302-0.14c0.07,0.117,0.144,0.241,0.216,0.366l0.001,0.001L2.32,2.817
    L2.314,2.82z M3.457,4.18C3.073,3.795,2.752,3.433,2.526,3.125L2.327,2.833l0.118-0.054l0.189-0.088
    c0.194,0.278,0.532,0.725,1.209,1.385c0.45,0.442,0.819,0.759,1.1,0.987l-0.4,0.107C4.214,4.906,3.839,4.562,3.457,4.18z
     M5.638,5.709L5.554,5.724c-0.202,0-0.624-0.18-1.008-0.538l0.465-0.122C5.17,5.238,5.333,5.367,5.456,5.468l0.151,0.127
    l0.055,0.081L5.638,5.709z M2.392,2.334L2.389,2.328L2.382,2.332L2.13,2.446l0.005,0.009c0.068,0.124,0.122,0.211,0.197,0.339
    l0.002,0.005l0.26-0.117L2.589,2.673C2.515,2.546,2.465,2.454,2.392,2.334z M2.342,2.777c-0.07-0.12-0.124-0.207-0.187-0.322
    l0.228-0.106C2.45,2.463,2.5,2.553,2.57,2.674L2.342,2.777z M5.588,5.592c-0.102-0.09-0.333-0.237-0.567-0.494L5.018,5.096H5.012
    L4.598,5.203l0.011,0.01c0.383,0.357,0.76,0.496,0.936,0.496l0.07-0.012l0.027-0.031L5.588,5.592z M5.609,5.683L5.545,5.69
    c-0.166,0-0.537-0.132-0.912-0.479l0.378-0.097c0.156,0.168,0.311,0.291,0.426,0.38l0.14,0.108l0.049,0.063L5.609,5.683z"/>
  <polygon class="st3" points="4.007,4.573 4.007,4.568 4.035,4.528 4.056,4.493 4.054,4.486 4.01,4.454 3.946,4.427 3.923,4.379 
    3.923,4.377 3.885,4.386 3.85,4.388 3.843,4.381 3.846,4.374 3.85,4.374 3.884,4.37 3.928,4.354 3.942,4.364 3.941,4.368 
    3.939,4.379 3.957,4.411 4.015,4.437 4.069,4.478 4.073,4.493 4.047,4.539 4.025,4.568 4.025,4.571 4.033,4.574 4.048,4.572 
    4.056,4.568 4.067,4.572 4.064,4.583 4.033,4.592 4.031,4.592   "/>
  <polygon class="st3" points="4.245,4.775 4.246,4.762 4.273,4.685 4.269,4.662 4.178,4.595 4.145,4.591 4.099,4.598 4.077,4.605 
    4.066,4.598 4.071,4.588 4.145,4.573 4.185,4.581 4.287,4.657 4.29,4.685 4.258,4.775 4.253,4.776 4.253,4.776  "/>
  <polygon class="st3" points="4.383,4.912 4.299,4.845 4.288,4.814 4.294,4.789 4.306,4.786 4.31,4.797 4.307,4.802 4.306,4.814 
    4.313,4.832 4.383,4.894 4.384,4.894 4.426,4.873 4.47,4.849 4.478,4.849 4.528,4.879 4.529,4.879 4.526,4.892 4.514,4.89 
    4.502,4.876 4.478,4.864 4.474,4.864 4.435,4.889 4.384,4.912   "/>
  <polygon class="st3" points="4.654,5.121 4.649,5.086 4.661,5.015 4.647,5.029 4.646,5.031 4.537,5.057 4.468,5.031 4.449,4.98 
    4.49,4.892 4.502,4.892 4.502,4.903 4.483,4.926 4.466,4.98 4.481,5.019 4.537,5.041 4.606,5.029 4.637,5.015 4.658,4.995 
    4.678,4.969 4.682,4.961 4.699,4.969 4.694,4.979 4.682,5.011 4.667,5.086 4.67,5.114 4.667,5.125 4.663,5.125  "/>
  <polygon class="st3" points="5.344,5.581 5.34,5.566 5.354,5.512 5.355,5.495 5.317,5.439 5.299,5.435 5.185,5.497 5.126,5.509 
    5.12,5.509 5.119,5.492 5.141,5.472 5.142,5.472 5.155,5.443 5.167,5.4 5.166,5.396 5.142,5.345 5.133,5.32 5.081,5.334 
    5.053,5.329 5.036,5.311 5.036,5.307 5.036,5.305 5.036,5.301 5.001,5.329 4.993,5.361 4.982,5.408 4.972,5.429 4.951,5.435 
    4.919,5.422 4.901,5.379 4.904,5.365 4.904,5.356 4.883,5.328 4.845,5.324 4.791,5.312 4.77,5.286 4.769,5.282 4.815,5.231 
    4.873,5.208 4.877,5.208 4.921,5.231 4.947,5.238 4.962,5.233 4.972,5.215 4.972,5.213 4.978,5.203 4.988,5.208 4.988,5.215 
    4.973,5.247 4.947,5.255 4.912,5.245 4.877,5.225 4.876,5.225 4.824,5.245 4.786,5.282 4.786,5.285 4.811,5.301 4.862,5.305 
    4.889,5.311 4.921,5.356 4.919,5.366 4.918,5.379 4.929,5.409 4.951,5.417 4.962,5.413 4.963,5.413 4.967,5.402 4.972,5.374 
    4.987,5.318 5.026,5.285 5.058,5.265 5.068,5.279 5.065,5.281 5.06,5.286 5.053,5.305 5.053,5.307 5.059,5.314 5.081,5.317 
    5.129,5.301 5.137,5.279 5.143,5.301 5.157,5.338 5.179,5.385 5.185,5.4 5.159,5.476 5.15,5.489 5.176,5.482 5.299,5.417 
    5.326,5.423 5.372,5.495 5.371,5.516 5.357,5.566 5.36,5.574 5.426,5.599 5.454,5.593 5.465,5.599 5.461,5.609 5.426,5.617  "/>
  <polygon class="st3" points="3.638,4.129 3.626,4.103 3.626,4.093 3.631,4.07 3.625,4.059 3.615,4.063 3.609,4.093 3.609,4.095 
    3.601,4.103 3.573,4.112 3.57,4.112 3.484,4.072 3.465,4.018 3.461,3.972 3.452,3.963 3.444,3.973 3.447,4.019 3.472,4.085 
    3.568,4.13 3.575,4.13 3.612,4.113 3.623,4.137 3.632,4.142 3.635,4.141   "/>
  <polygon class="st3" points="3.937,4.286 3.871,4.274 3.786,4.184 3.728,4.166 3.712,4.164 3.598,4.189 3.593,4.2 3.603,4.206 
    3.643,4.194 3.712,4.182 3.726,4.183 3.777,4.2 3.85,4.276 3.815,4.293 3.812,4.304 3.82,4.307 3.825,4.307 3.836,4.299 
    3.865,4.29 3.871,4.29 3.909,4.295 3.931,4.301 3.942,4.295   "/>
  <path class="st0" d="M1.36,5.054l0.052,0.014C1.694,4.839,2.065,4.52,2.525,4.072C3.206,3.406,3.544,2.96,3.737,2.683l-0.039-0.02
    c0.614-1.06,1.203-1.878,1.315-1.829C5.125,0.888,4.717,1.789,4.102,2.85L4.06,2.828c-0.209,0.35-0.616,0.839-1.136,1.359
    C2.54,4.571,2.164,4.914,1.833,5.178l0.012,0.003c-0.456,0.433-0.97,0.612-1.112,0.535C0.59,5.639,0.99,5.461,1.36,5.054z"/>
  <path class="st3" d="M4,2.392L3.848,2.654l0.177,0.083l0.148-0.255l0.005-0.008L4,2.392z M4.02,2.57l0.122-0.068L4.028,2.696
    L4.02,2.57z M4.012,2.416l0.133,0.062L4.019,2.549L4.012,2.416z M3.878,2.65l0.126-0.071l0.007,0.133L3.878,2.65z M3.995,2.432
    L4.003,2.56L3.882,2.629L3.995,2.432z M4.874,1.021l-0.05,0.051l0.05,0.052l0.053-0.052L4.874,1.021z M0.695,5.677l0.034,0.046
    L0.82,5.741c0.211,0,0.641-0.187,1.031-0.553l0.011-0.011l-0.01-0.004c0.327-0.261,0.7-0.602,1.077-0.98
    c0.385-0.383,0.707-0.75,0.934-1.058l0.2-0.295l0.005,0.003L4.1,2.858L4.108,2.86L4.11,2.854c0.273-0.47,0.507-0.911,0.67-1.259
    c0.164-0.349,0.259-0.603,0.26-0.71L5.017,0.828L5.001,0.825L4.817,0.969C4.736,1.06,4.633,1.193,4.516,1.357
    c-0.235,0.329-0.526,0.788-0.825,1.3l-0.005,0.01l0.038,0.017l-0.01,0.013c-0.197,0.28-0.533,0.72-1.196,1.368
    C2.062,4.511,1.692,4.829,1.411,5.057L1.362,5.046L1.357,5.044L1.354,5.048c-0.239,0.262-0.487,0.427-0.6,0.534L0.695,5.677z
     M4.075,2.827C4.148,2.701,4.226,2.57,4.293,2.451l0.005-0.007L4.294,2.441c0.173-0.311,0.324-0.599,0.44-0.838
    c0.163-0.337,0.26-0.578,0.26-0.665L4.978,0.895L4.967,0.894L4.9,0.931L4.804,1.035C4.728,1.123,4.632,1.253,4.521,1.413
    c-0.163,0.235-0.355,0.535-0.56,0.875L3.958,2.287L3.953,2.292C3.882,2.412,3.808,2.543,3.734,2.67L3.71,2.659
    c0.444-0.767,0.876-1.406,1.122-1.678l0.17-0.138l0.007,0.001l0.013,0.041C5.023,0.983,4.927,1.24,4.765,1.587
    C4.601,1.933,4.37,2.37,4.1,2.838L4.075,2.827z M4.891,1.218C4.847,1.324,4.789,1.45,4.718,1.596
    c-0.115,0.239-0.265,0.527-0.44,0.838L3.977,2.296c0.298-0.494,0.57-0.905,0.757-1.148L4.891,1.218z M4.745,1.133l0.166-0.188
    l0.056-0.034L4.97,0.912l0.008,0.026c0.001,0.041-0.029,0.134-0.082,0.265L4.745,1.133z M4.054,2.817L3.752,2.678V2.677
    C3.825,2.551,3.898,2.428,3.968,2.31L4.27,2.45C4.202,2.571,4.132,2.692,4.06,2.82L4.054,2.817z M1.832,5.17L1.43,5.064
    c0.281-0.228,0.65-0.545,1.1-0.987c0.677-0.661,1.014-1.108,1.211-1.385L3.93,2.78l0.117,0.054L3.849,3.125
    C3.622,3.433,3.301,3.795,2.917,4.18C2.535,4.562,2.16,4.906,1.832,5.17z M0.712,5.677l0.055-0.081l0.15-0.127
    c0.124-0.101,0.287-0.23,0.445-0.404l0.466,0.122C1.445,5.544,1.021,5.724,0.82,5.724L0.737,5.709L0.712,5.677z M3.785,2.673
    L3.78,2.682l0.26,0.117l0.004-0.005C4.118,2.667,4.172,2.579,4.24,2.455l0.005-0.009L3.992,2.332L3.985,2.328L3.981,2.334
    C3.909,2.454,3.86,2.546,3.785,2.673z M3.805,2.674c0.07-0.121,0.118-0.211,0.186-0.325l0.228,0.106
    C4.156,2.571,4.102,2.657,4.032,2.777L3.805,2.674z M0.731,5.665l0.027,0.031l0.071,0.012c0.175,0,0.553-0.138,0.935-0.496
    l0.012-0.01L1.362,5.096H1.357L1.354,5.098C1.12,5.354,0.889,5.502,0.787,5.592L0.731,5.665z M0.748,5.665l0.05-0.063l0.139-0.108
    c0.116-0.09,0.27-0.212,0.425-0.38l0.379,0.097C1.366,5.558,0.996,5.69,0.829,5.69L0.766,5.683L0.748,5.665z"/>
  <polygon class="st3" points="2.366,4.573 2.366,4.568 2.34,4.528 2.319,4.493 2.32,4.486 2.364,4.454 2.429,4.427 2.452,4.379 
    2.452,4.377 2.488,4.386 2.522,4.388 2.524,4.388 2.533,4.381 2.524,4.374 2.49,4.37 2.446,4.354 2.433,4.364 2.434,4.368 
    2.436,4.379 2.417,4.411 2.358,4.437 2.304,4.478 2.301,4.493 2.327,4.539 2.35,4.568 2.349,4.571 2.342,4.574 2.326,4.572 
    2.319,4.568 2.308,4.572 2.311,4.583 2.342,4.592 2.342,4.592   "/>
  <polygon class="st3" points="2.129,4.775 2.128,4.762 2.103,4.685 2.105,4.662 2.196,4.595 2.23,4.591 2.275,4.598 2.297,4.605 
    2.308,4.598 2.303,4.588 2.23,4.573 2.189,4.581 2.088,4.657 2.084,4.685 2.117,4.775 2.122,4.776  "/>
  <polygon class="st3" points="1.991,4.912 2.075,4.845 2.086,4.814 2.08,4.789 2.069,4.786 2.065,4.797 2.066,4.802 2.069,4.814 
    2.062,4.832 1.991,4.894 1.99,4.894 1.948,4.873 1.904,4.849 1.896,4.849 1.847,4.879 1.846,4.879 1.848,4.892 1.86,4.89 
    1.872,4.876 1.896,4.864 1.899,4.864 1.939,4.889 1.99,4.912  "/>
  <polygon class="st3" points="1.72,5.121 1.726,5.086 1.712,5.015 1.727,5.029 1.727,5.031 1.729,5.031 1.837,5.057 1.907,5.031 
    1.926,4.98 1.884,4.892 1.872,4.892 1.872,4.903 1.891,4.926 1.909,4.98 1.894,5.019 1.837,5.041 1.769,5.029 1.737,5.015 
    1.717,4.995 1.696,4.969 1.693,4.961 1.676,4.969 1.681,4.979 1.693,5.011 1.708,5.086 1.703,5.114 1.708,5.125 1.711,5.125   "/>
  <polygon class="st3" points="1.03,5.581 1.033,5.566 1.02,5.512 1.019,5.495 1.056,5.439 1.074,5.435 1.189,5.497 1.249,5.509 
    1.253,5.509 1.256,5.492 1.232,5.472 1.232,5.472 1.231,5.472 1.219,5.443 1.208,5.4 1.209,5.396 1.232,5.345 1.242,5.32 
    1.292,5.334 1.321,5.329 1.338,5.311 1.338,5.307 1.338,5.305 1.338,5.301 1.373,5.329 1.382,5.361 1.392,5.408 1.403,5.429 
    1.423,5.435 1.456,5.422 1.472,5.379 1.471,5.365 1.47,5.356 1.492,5.328 1.529,5.324 1.583,5.312 1.605,5.286 1.605,5.282 
    1.559,5.231 1.501,5.208 1.497,5.208 1.453,5.231 1.428,5.238 1.412,5.233 1.403,5.215 1.403,5.213 1.396,5.203 1.387,5.208 
    1.385,5.215 1.401,5.247 1.428,5.255 1.462,5.245 1.497,5.225 1.499,5.225 1.55,5.245 1.588,5.282 1.588,5.285 1.563,5.301 
    1.511,5.305 1.485,5.311 1.454,5.356 1.454,5.366 1.456,5.379 1.445,5.409 1.423,5.417 1.413,5.413 1.412,5.413 1.412,5.413 
    1.407,5.402 1.402,5.374 1.388,5.318 1.347,5.285 1.318,5.265 1.307,5.279 1.31,5.281 1.315,5.286 1.321,5.305 1.321,5.307 
    1.315,5.314 1.292,5.317 1.246,5.301 1.237,5.279 1.23,5.301 1.217,5.338 1.195,5.385 1.19,5.4 1.216,5.476 1.224,5.489 
    1.198,5.482 1.074,5.417 1.048,5.423 1.001,5.495 1.002,5.516 1.018,5.566 1.014,5.574 0.948,5.599 0.919,5.593 0.909,5.599 
    0.912,5.609 0.948,5.617   "/>
  <polygon class="st3" points="2.736,4.129 2.747,4.103 2.747,4.093 2.743,4.07 2.75,4.059 2.759,4.063 2.764,4.093 2.764,4.095 
    2.774,4.103 2.801,4.112 2.806,4.112 2.891,4.072 2.909,4.018 2.914,3.972 2.922,3.963 2.93,3.973 2.926,4.019 2.902,4.085 
    2.806,4.13 2.798,4.13 2.762,4.113 2.751,4.137 2.743,4.142 2.739,4.141   "/>
  <polygon class="st3" points="2.438,4.286 2.504,4.274 2.587,4.184 2.645,4.166 2.662,4.164 2.776,4.189 2.781,4.2 2.77,4.206 
    2.731,4.194 2.662,4.182 2.648,4.183 2.597,4.2 2.524,4.276 2.56,4.293 2.561,4.304 2.554,4.307 2.55,4.307 2.538,4.299 2.51,4.29 
    2.504,4.29 2.464,4.295 2.442,4.301 2.433,4.295  "/>
  <path class="st0" d="M3.615,2.217C3.486,2.22,3.401,2.143,3.401,2.066H3.37V1.913H3.339V1.761V1.609H3.31V1.405h0.01V1.286
    l0.198-0.137l0.023,0.003l0.088-0.078L3.541,0.997L3.529,0.999c-0.034-0.084-0.131-0.15-0.253-0.171V0.821L3.188,0.745l-0.09,0.076
    l0.001,0.007c-0.124,0.02-0.221,0.087-0.253,0.171L2.833,0.997L2.746,1.074l0.088,0.078l0.024-0.003l0.198,0.137v0.119h0.009v0.204
    H3.034v0.152v0.152h-0.03v0.153H2.973c0,0.077-0.086,0.153-0.214,0.153v0.126c0,0.853,0.005,1.177-0.06,1.218
    c-0.061,0.053-1.793,0-1.793,0.258c0,0.252,1.426,0.508,1.853,0.508c0.571,0,0.857-0.256,0.857-0.765V2.296H3.615V2.217z"/>
  <polygon class="st0" points="0.867,2.777 1.793,2.777 1.886,2.866 1.886,3.302 1.793,3.387 0.867,3.387 0.774,3.302 0.774,2.866  
    "/>
  <polygon class="st3" points="0.867,3.397 0.766,3.302 0.766,2.866 0.867,2.77 0.867,2.777 0.867,2.787 0.782,2.866 0.782,3.302 
    0.867,3.379 1.793,3.379 1.877,3.302 1.877,2.866 1.793,2.787 0.867,2.787 0.867,2.777 0.867,2.77 1.793,2.77 1.895,2.866 
    1.895,3.302 1.793,3.397   "/>
  <polygon class="st0" points="0.89,2.803 1.77,2.803 1.857,2.884 1.857,3.283 1.77,3.363 0.89,3.363 0.802,3.283 0.802,2.884  "/>
  <polygon class="st3" points="0.89,3.37 0.793,3.283 0.793,2.884 0.89,2.795 0.89,2.803 0.89,2.812 0.81,2.884 0.81,3.283 
    0.89,3.353 1.77,3.353 1.849,3.283 1.849,2.884 1.77,2.812 0.89,2.812 0.89,2.803 0.89,2.795 1.77,2.795 1.865,2.884 1.865,3.283 
    1.77,3.37   "/>
  <polygon class="st0" points="1.293,2.956 1.346,2.959 1.348,2.983 1.393,3.004 1.427,2.977 1.468,2.998 1.428,3.021 1.439,3.057 
    1.487,3.054 1.487,3.099 1.448,3.098 1.428,3.125 1.472,3.156 1.439,3.183 1.402,3.155 1.348,3.166 1.351,3.208 1.293,3.211 
    1.286,3.171 1.236,3.151 1.211,3.179 1.169,3.158 1.195,3.125 1.165,3.106 1.123,3.106 1.121,3.049 1.162,3.052 1.191,3.018 
    1.157,2.994 1.201,2.963 1.232,2.987 1.286,2.979   "/>
  <path class="st3" d="M1.278,3.178L1.24,3.162L1.212,3.189L1.156,3.162l0.025-0.034L1.162,3.116H1.115L1.112,3.039l0.046,0.007
    l0.021-0.027L1.142,2.994l0.06-0.04l0.033,0.024l0.044-0.006l0.007-0.018l0.001-0.007l0.067,0.004l0.003,0.026l0.035,0.018
    l0.034-0.029l0.058,0.031l-0.045,0.03l0.007,0.02h0.05v0.062L1.453,3.106L1.44,3.123l0.046,0.032L1.439,3.193L1.4,3.165
    L1.357,3.172L1.36,3.215L1.287,3.219L1.278,3.178z M1.294,3.166l0.007,0.035l0.042-0.002L1.34,3.159l0.064-0.013l0.035,0.026
    l0.019-0.016L1.417,3.125l0.028-0.038l0.034,0.004V3.064H1.433L1.42,3.018L1.451,3L1.428,2.987L1.393,3.015L1.341,2.987
    l-0.003-0.02L1.3,2.965L1.292,2.989L1.23,2.997L1.201,2.974l-0.028,0.02l0.031,0.023L1.166,3.062L1.13,3.059l0.001,0.039h0.036
    l0.04,0.028l-0.024,0.03l0.025,0.012l0.027-0.027L1.294,3.166z"/>
  <polygon class="st0" points="1.31,3.027 1.368,3.075 1.31,3.125 1.251,3.075  "/>
  <polygon class="st3" points="1.242,3.075 1.31,3.017 1.31,3.027 1.31,3.035 1.259,3.075 1.31,3.118 1.36,3.075 1.31,3.035 
    1.31,3.027 1.31,3.017 1.377,3.075 1.31,3.135  "/>
  <path class="st3" d="M1.771,2.867l0.036-0.03V2.823H1.795L1.757,2.856L1.742,2.843L1.75,2.836V2.823H1.737L1.729,2.83L1.721,2.823
    H1.708l0.001,0.014l0.008,0.006L1.7,2.856L1.685,2.843l0.007-0.006V2.823H1.681L1.673,2.83L1.664,2.823H1.651l0.001,0.014
    L1.66,2.843L1.644,2.856L1.629,2.843l0.006-0.006l0.002-0.014H1.624L1.616,2.83L1.607,2.823H1.595v0.014l0.008,0.006L1.586,2.856
    L1.571,2.843l0.006-0.006l0.001-0.014H1.565L1.559,2.83L1.55,2.823H1.537v0.014l0.008,0.006L1.529,2.856L1.515,2.843l0.006-0.006
    V2.823H1.509L1.501,2.83L1.493,2.823H1.481l0.001,0.014l0.006,0.006L1.472,2.856L1.457,2.843l0.007-0.006l0.001-0.014H1.453
    L1.445,2.83l-0.01-0.007H1.423v0.014L1.43,2.843L1.416,2.856L1.4,2.843l0.007-0.006V2.823H1.395L1.388,2.83L1.379,2.823H1.366
    l0.001,0.014l0.006,0.006L1.36,2.856L1.343,2.843L1.35,2.836l0.001-0.014H1.338L1.331,2.83l-0.01-0.007H1.31v0.014l0.008,0.006
    L1.301,2.856L1.287,2.843l0.005-0.006l0.001-0.014H1.281L1.272,2.83L1.265,2.823H1.253v0.014L1.26,2.843L1.244,2.856L1.229,2.843
    l0.007-0.006V2.823H1.224L1.216,2.83L1.208,2.823H1.195v0.014l0.007,0.006L1.188,2.856L1.172,2.843l0.007-0.006V2.823H1.167
    L1.16,2.83L1.151,2.823H1.138l0.001,0.014l0.007,0.006L1.13,2.856L1.115,2.843l0.007-0.006V2.823H1.11L1.102,2.83L1.093,2.823
    H1.081v0.014l0.007,0.006L1.073,2.856L1.059,2.843l0.006-0.006V2.823H1.053L1.045,2.83L1.037,2.823H1.024v0.014l0.007,0.006
    L1.016,2.856L1.001,2.843l0.007-0.006l0.001-0.014H0.996L0.988,2.83L0.979,2.823H0.967l0.001,0.014l0.006,0.006L0.96,2.856
    L0.944,2.843l0.007-0.006l0.001-0.014H0.939L0.931,2.83L0.923,2.823H0.911v0.014l0.007,0.006L0.902,2.856L0.865,2.823H0.854v0.014
    l0.035,0.03L0.854,2.9v0.011l0.005,0.002l0.006-0.002l0.037-0.033l0.015,0.016L0.911,2.9v0.011l0.006,0.002l0.006-0.002
    l0.009-0.007l0.007,0.007l0.005,0.002l0.008-0.002L0.951,2.9L0.944,2.894L0.96,2.878l0.015,0.016L0.969,2.9L0.967,2.911L0.97,2.913
    l0.009-0.002l0.008-0.007l0.008,0.007L1,2.913l0.009-0.002L1.008,2.9L1.001,2.894l0.015-0.016l0.015,0.016L1.025,2.9v0.011
    l0.004,0.002l0.009-0.002l0.008-0.007l0.008,0.007L1.06,2.913l0.006-0.002V2.9L1.059,2.894l0.014-0.016l0.016,0.016L1.081,2.9
    v0.011l0.006,0.002l0.006-0.002l0.008-0.007L1.11,2.911l0.006,0.002l0.006-0.002V2.9L1.115,2.894L1.13,2.878l0.016,0.016L1.139,2.9
    L1.138,2.911l0.006,0.002L1.15,2.911l0.01-0.006l0.007,0.007l0.005,0.002l0.007-0.002V2.9L1.172,2.894l0.016-0.016l0.015,0.016
    L1.195,2.9v0.011l0.003,0.002l0.009-0.002l0.008-0.007l0.009,0.007l0.004,0.002l0.008-0.002V2.9L1.229,2.894l0.015-0.016
    L1.26,2.894L1.253,2.9v0.011l0.004,0.002l0.009-0.002l0.007-0.007l0.009,0.007l0.006,0.002l0.006-0.002L1.293,2.9L1.287,2.894
    L1.3,2.878l0.017,0.016L1.31,2.9v0.011l0.006,0.002l0.005-0.002l0.01-0.007l0.007,0.007l0.007,0.002l0.006-0.002L1.35,2.9
    L1.343,2.894L1.36,2.878l0.014,0.016L1.367,2.9L1.366,2.911l0.006,0.002l0.006-0.002l0.009-0.007l0.007,0.007L1.4,2.913
    l0.007-0.002V2.9L1.4,2.894l0.016-0.016L1.43,2.894L1.423,2.9v0.011l0.005,0.002l0.007-0.002l0.009-0.007l0.009,0.007l0.003,0.002
    l0.008-0.002l0-0.011L1.457,2.894l0.015-0.016l0.015,0.016L1.481,2.9v0.011l0.007,0.002l0.006-0.002l0.008-0.007L1.51,2.911
    l0.007,0.002l0.006-0.002V2.9L1.515,2.894l0.014-0.016l0.016,0.016L1.537,2.9v0.011l0.006,0.002L1.55,2.911l0.009-0.007
    l0.007,0.007l0.007,0.002L1.58,2.911L1.577,2.9L1.571,2.894l0.015-0.016l0.017,0.016L1.595,2.9v0.011L1.6,2.913l0.007-0.002
    l0.009-0.007l0.007,0.007l0.004,0.002l0.01-0.002L1.635,2.9L1.629,2.894l0.016-0.016L1.66,2.894L1.653,2.9L1.651,2.911l0.003,0.002
    l0.009-0.002l0.009-0.007L1.68,2.911l0.004,0.002l0.008-0.002V2.9L1.685,2.894L1.7,2.878l0.017,0.016L1.709,2.9L1.708,2.911
    l0.004,0.002l0.009-0.002l0.008-0.007l0.008,0.007l0.007,0.002L1.75,2.911V2.9L1.742,2.894l0.015-0.016l0.038,0.033L1.8,2.913
    l0.007-0.002V2.9L1.771,2.867z M0.931,2.881L0.915,2.867l0.016-0.013l0.014,0.013L0.931,2.881z M0.988,2.881L0.972,2.867
    l0.015-0.013l0.016,0.013L0.988,2.881z M1.045,2.881L1.029,2.867l0.016-0.013l0.016,0.013L1.045,2.881z M1.102,2.881L1.087,2.867
    l0.015-0.013l0.015,0.013L1.102,2.881z M1.16,2.881L1.143,2.867L1.16,2.854l0.014,0.013L1.16,2.881z M1.216,2.881L1.201,2.867
    l0.015-0.013l0.016,0.013L1.216,2.881z M1.272,2.881L1.258,2.867l0.015-0.013L1.29,2.867L1.272,2.881z M1.331,2.881L1.315,2.867
    l0.016-0.013l0.015,0.013L1.331,2.881z M1.388,2.881L1.372,2.867l0.016-0.013l0.015,0.013L1.388,2.881z M1.445,2.881L1.428,2.867
    l0.016-0.013l0.015,0.013L1.445,2.881z M1.501,2.881L1.485,2.867l0.016-0.013l0.015,0.013L1.501,2.881z M1.559,2.881L1.542,2.867
    l0.016-0.013l0.015,0.013L1.559,2.881z M1.616,2.881L1.599,2.867l0.017-0.013L1.63,2.867L1.616,2.881z M1.673,2.881L1.657,2.867
    l0.015-0.013l0.015,0.013L1.673,2.881z M1.729,2.881L1.713,2.867l0.016-0.013l0.016,0.013L1.729,2.881z"/>
  <path class="st3" d="M1.771,3.3l0.036-0.031V3.255H1.795L1.757,3.287L1.742,3.276L1.75,3.268V3.255H1.737L1.729,3.262L1.721,3.255
    H1.708l0.001,0.013l0.008,0.007L1.7,3.287L1.685,3.276l0.007-0.007V3.256L1.681,3.255L1.673,3.262L1.664,3.255H1.651l0.001,0.013
    L1.66,3.276L1.644,3.287L1.629,3.276l0.006-0.007l0.002-0.013L1.624,3.255L1.616,3.262L1.607,3.255H1.595v0.013l0.008,0.007
    L1.586,3.287L1.571,3.276l0.006-0.007l0.001-0.013L1.565,3.255L1.559,3.262L1.55,3.255H1.537v0.013l0.008,0.007L1.529,3.287
    L1.515,3.276l0.006-0.007V3.255H1.509L1.501,3.262L1.493,3.255H1.481l0.001,0.013l0.006,0.007L1.472,3.287L1.457,3.276l0.007-0.007
    l0.001-0.013L1.453,3.255L1.445,3.262l-0.01-0.007H1.423v0.013L1.43,3.276L1.416,3.287L1.4,3.276l0.007-0.007V3.255H1.395
    L1.388,3.262L1.379,3.255H1.366l0.001,0.013l0.006,0.007L1.36,3.287L1.343,3.276l0.008-0.007V3.255H1.338L1.331,3.262l-0.01-0.007
    H1.31v0.013l0.008,0.007L1.301,3.287L1.287,3.276l0.005-0.007l0.001-0.013L1.281,3.255L1.272,3.262L1.265,3.255H1.253v0.013
    L1.26,3.276L1.244,3.287L1.229,3.276l0.007-0.007V3.256L1.224,3.255L1.216,3.262L1.208,3.255H1.195v0.013l0.007,0.007L1.188,3.287
    L1.172,3.276l0.007-0.007V3.255H1.167L1.16,3.262L1.151,3.255H1.138l0.001,0.013l0.007,0.007L1.13,3.287L1.115,3.276l0.007-0.007
    V3.256L1.11,3.255L1.102,3.262L1.093,3.255H1.081v0.013l0.007,0.007L1.073,3.287L1.059,3.276l0.006-0.007V3.255H1.053L1.045,3.262
    L1.037,3.255H1.024v0.013l0.007,0.007L1.016,3.287L1.001,3.276l0.007-0.007l0.001-0.013L0.996,3.255L0.988,3.262L0.979,3.255H0.967
    l0.001,0.013l0.006,0.007L0.96,3.287L0.944,3.276l0.007-0.007l0.001-0.013L0.939,3.255L0.931,3.262L0.923,3.255H0.911v0.013
    l0.007,0.007L0.902,3.287L0.865,3.255H0.854v0.013L0.889,3.3L0.854,3.33v0.013l0.005,0.002h0.006L0.902,3.31l0.015,0.016
    L0.911,3.33v0.013l0.006,0.002h0.006l0.009-0.009l0.007,0.009h0.005l0.008-0.002L0.951,3.33L0.944,3.326L0.96,3.31l0.015,0.016
    L0.969,3.33L0.967,3.343L0.97,3.345h0.009l0.008-0.009l0.008,0.009H1l0.009-0.002L1.008,3.33L1.001,3.326L1.016,3.31l0.015,0.016
    L1.025,3.33v0.013l0.004,0.002h0.009l0.008-0.009l0.008,0.009H1.06l0.006-0.002V3.33L1.059,3.326L1.073,3.31l0.016,0.016
    L1.081,3.33v0.013l0.006,0.002h0.006l0.008-0.009L1.11,3.345h0.006l0.006-0.002V3.33L1.115,3.326L1.13,3.31l0.016,0.016L1.139,3.33
    L1.138,3.343l0.006,0.002H1.15l0.01-0.009l0.007,0.009h0.005l0.007-0.002V3.33L1.172,3.326L1.188,3.31l0.015,0.016L1.195,3.33
    v0.013l0.003,0.002h0.009l0.008-0.009l0.009,0.009h0.004l0.008-0.002V3.33L1.229,3.326L1.244,3.31L1.26,3.326L1.253,3.33v0.013
    l0.004,0.002h0.009l0.007-0.009l0.009,0.009h0.006l0.006-0.002L1.293,3.33L1.287,3.326L1.301,3.31l0.017,0.016L1.31,3.33v0.013
    l0.006,0.002h0.005l0.01-0.009l0.007,0.009h0.007l0.006-0.002V3.33L1.343,3.326L1.36,3.31l0.014,0.016L1.367,3.33L1.366,3.343
    l0.006,0.002h0.006l0.009-0.009l0.007,0.009H1.4l0.007-0.002V3.33L1.4,3.326L1.416,3.31L1.43,3.326L1.423,3.33v0.013l0.005,0.002
    h0.007l0.009-0.009l0.009,0.009h0.003l0.008-0.002l0-0.013L1.457,3.326L1.472,3.31l0.015,0.016L1.481,3.33v0.013l0.007,0.002h0.006
    l0.008-0.009L1.51,3.345h0.007l0.006-0.002V3.33L1.515,3.326L1.529,3.31l0.016,0.016L1.537,3.33v0.013l0.006,0.002H1.55
    l0.009-0.009l0.007,0.009h0.007L1.58,3.343L1.577,3.33L1.571,3.326L1.586,3.31l0.017,0.016L1.595,3.33v0.013L1.6,3.345h0.007
    l0.009-0.009l0.007,0.009h0.004l0.01-0.002L1.635,3.33L1.629,3.326L1.644,3.31L1.66,3.326L1.653,3.33L1.651,3.343l0.003,0.002
    h0.009l0.009-0.009L1.68,3.345h0.004l0.008-0.002V3.33L1.685,3.326L1.7,3.31l0.017,0.016L1.709,3.33L1.708,3.343l0.004,0.002h0.009
    l0.008-0.009l0.008,0.009h0.007L1.75,3.343V3.33L1.742,3.326L1.757,3.31l0.038,0.035H1.8l0.007-0.002V3.33L1.771,3.3z M0.931,3.313
    L0.915,3.3l0.016-0.014L0.946,3.3L0.931,3.313z M0.988,3.313L0.972,3.3l0.015-0.014L1.003,3.3L0.988,3.313z M1.045,3.313L1.029,3.3
    l0.016-0.014L1.061,3.3L1.045,3.313z M1.102,3.313L1.087,3.3l0.015-0.014L1.117,3.3L1.102,3.313z M1.16,3.313L1.143,3.3L1.16,3.286
    L1.174,3.3L1.16,3.313z M1.216,3.313L1.201,3.3l0.015-0.014L1.231,3.3L1.216,3.313z M1.272,3.313L1.258,3.3l0.015-0.014L1.289,3.3
    L1.272,3.313z M1.331,3.313L1.315,3.3l0.016-0.014L1.346,3.3L1.331,3.313z M1.388,3.313L1.372,3.3l0.016-0.014L1.403,3.3
    L1.388,3.313z M1.445,3.313L1.428,3.3l0.016-0.014L1.459,3.3L1.445,3.313z M1.501,3.313L1.485,3.3l0.016-0.014L1.517,3.3
    L1.501,3.313z M1.559,3.313L1.542,3.3l0.016-0.014L1.573,3.3L1.559,3.313z M1.616,3.313L1.599,3.3l0.017-0.014L1.63,3.3
    L1.616,3.313z M1.673,3.313L1.657,3.3l0.015-0.014L1.687,3.3L1.673,3.313z M1.729,3.313L1.713,3.3l0.016-0.014L1.745,3.3
    L1.729,3.313z"/>
  <polygon class="st0" points="4.581,2.777 5.507,2.777 5.599,2.866 5.599,3.302 5.507,3.387 4.581,3.387 4.487,3.302 4.487,2.866  
    "/>
  <polygon class="st3" points="4.581,3.397 4.479,3.302 4.479,2.866 4.581,2.77 4.581,2.777 4.581,2.787 4.496,2.866 4.496,3.302 
    4.581,3.379 5.507,3.379 5.592,3.302 5.592,2.866 5.507,2.787 4.581,2.787 4.581,2.777 4.581,2.77 5.507,2.77 5.609,2.866 
    5.609,3.302 5.507,3.397   "/>
  <polygon class="st0" points="4.604,2.803 5.484,2.803 5.572,2.884 5.572,3.283 5.484,3.363 4.604,3.363 4.517,3.283 4.517,2.884  
    "/>
  <polygon class="st3" points="4.604,3.37 4.509,3.283 4.509,2.884 4.604,2.795 4.604,2.803 4.604,2.812 4.526,2.884 4.526,3.283 
    4.604,3.353 5.484,3.353 5.563,3.283 5.563,2.884 5.484,2.812 4.604,2.812 4.604,2.803 4.604,2.795 5.484,2.795 5.58,2.884 
    5.58,3.283 5.484,3.37   "/>
  <polygon class="st0" points="5.008,2.956 5.061,2.959 5.063,2.983 5.107,3.004 5.141,2.977 5.182,2.998 5.143,3.021 5.153,3.057 
    5.201,3.054 5.201,3.099 5.162,3.098 5.143,3.125 5.187,3.156 5.153,3.183 5.116,3.155 5.063,3.166 5.065,3.208 5.008,3.211 
    5,3.171 4.951,3.151 4.925,3.179 4.884,3.158 4.907,3.125 4.879,3.106 4.837,3.106 4.835,3.049 4.877,3.052 4.904,3.018 
    4.871,2.994 4.916,2.963 4.947,2.987 5,2.979   "/>
  <path class="st3" d="M4.993,3.178l-0.04-0.016L4.926,3.189L4.871,3.162l0.025-0.034L4.877,3.116H4.83L4.826,3.039l0.045,0.007
    l0.02-0.027L4.857,2.994l0.059-0.04l0.033,0.024l0.044-0.006l0.006-0.018l0.002-0.007l0.068,0.004l0.002,0.026l0.034,0.018
    l0.034-0.029l0.059,0.031l-0.045,0.03l0.006,0.02H5.21v0.062L5.167,3.106L5.155,3.123l0.046,0.032L5.153,3.193L5.114,3.165
    L5.072,3.172l0.004,0.043L5,3.219L4.993,3.178z M5.008,3.166l0.006,0.035l0.041-0.002l-0.001-0.04l0.065-0.013l0.035,0.026
    l0.018-0.016L5.131,3.125l0.027-0.038l0.035,0.004V3.064H5.145L5.133,3.018L5.164,3L5.141,2.987L5.108,3.015L5.054,2.987
    l-0.001-0.02l-0.04-0.002L5.006,2.989L4.945,2.997l-0.03-0.023l-0.029,0.02l0.031,0.023L4.88,3.062L4.845,3.059l0.001,0.039h0.036
    L4.92,3.126l-0.023,0.03l0.025,0.012l0.027-0.027L5.008,3.166z"/>
  <polygon class="st0" points="5.023,3.027 5.081,3.075 5.023,3.125 4.964,3.075  "/>
  <polygon class="st3" points="4.956,3.075 5.023,3.017 5.023,3.027 5.023,3.035 4.974,3.075 5.023,3.118 5.073,3.075 5.023,3.035 
    5.023,3.027 5.023,3.017 5.09,3.075 5.023,3.135  "/>
  <path class="st3" d="M5.485,2.867l0.035-0.03l0.001-0.014H5.51L5.471,2.856L5.456,2.843l0.006-0.006l0.001-0.014H5.452L5.443,2.83
    L5.435,2.823H5.423v0.014L5.43,2.843L5.414,2.856L5.4,2.843l0.007-0.006l0.001-0.014H5.395L5.387,2.83L5.378,2.823H5.366v0.014
    l0.008,0.006L5.357,2.856L5.342,2.843L5.35,2.836V2.823H5.338L5.329,2.83L5.321,2.823H5.309v0.014l0.007,0.006L5.3,2.856
    L5.285,2.843l0.007-0.006V2.823H5.281L5.273,2.83L5.264,2.823H5.252v0.014l0.007,0.006L5.244,2.856L5.228,2.843l0.006-0.006
    l0.001-0.014H5.224L5.215,2.83L5.207,2.823H5.195l0.001,0.014l0.006,0.006L5.187,2.856L5.171,2.843l0.007-0.006V2.823H5.167
    L5.159,2.83L5.15,2.823H5.138v0.014l0.007,0.006L5.13,2.856L5.114,2.843L5.12,2.836l0.001-0.014H5.11L5.102,2.83L5.093,2.823H5.081
    v0.014l0.007,0.006L5.073,2.856L5.058,2.843l0.007-0.006l0.001-0.014H5.053L5.044,2.83L5.036,2.823H5.023l0.002,0.014L5.03,2.843
    L5.016,2.856L5,2.843l0.006-0.006l0.002-0.014H4.996L4.987,2.83L4.979,2.823H4.967v0.014l0.006,0.006L4.959,2.856L4.944,2.843
    l0.005-0.006V2.823h-0.01L4.929,2.83L4.921,2.823H4.909L4.91,2.837l0.007,0.006L4.901,2.856L4.886,2.843l0.006-0.006l0.001-0.014
    H4.882L4.873,2.83L4.865,2.823H4.852l0.001,0.014L4.86,2.843L4.845,2.856L4.829,2.843l0.007-0.006l0.001-0.014H4.825L4.816,2.83
    L4.808,2.823H4.795l0.001,0.014l0.007,0.006L4.788,2.856L4.772,2.843l0.007-0.006L4.78,2.823H4.768L4.759,2.83L4.75,2.823H4.738
    v0.014l0.008,0.006L4.73,2.856L4.714,2.843l0.007-0.006V2.823H4.71L4.702,2.83L4.694,2.823H4.682v0.014L4.69,2.843L4.674,2.856
    L4.658,2.843l0.006-0.006l0.001-0.014H4.654L4.645,2.83L4.637,2.823H4.624l0.001,0.014l0.007,0.006L4.617,2.856L4.579,2.823H4.566
    l0.003,0.014l0.035,0.03L4.569,2.9L4.566,2.911l0.008,0.002l0.005-0.002l0.039-0.033l0.016,0.016L4.626,2.9L4.624,2.911L4.63,2.913
    l0.007-0.002l0.007-0.007l0.009,0.007l0.005,0.002l0.007-0.002L4.664,2.9L4.658,2.894l0.016-0.016l0.015,0.016L4.682,2.9v0.011
    l0.005,0.002l0.008-0.002l0.008-0.007L4.71,2.911l0.004,0.002l0.008-0.002V2.9L4.714,2.894L4.73,2.878l0.017,0.016L4.738,2.9v0.011
    l0.005,0.002L4.75,2.911l0.008-0.007l0.009,0.007L4.77,2.913l0.01-0.002L4.778,2.9L4.772,2.894l0.016-0.016l0.016,0.016L4.797,2.9
    L4.795,2.911l0.007,0.002l0.006-0.002l0.008-0.007l0.009,0.007l0.004,0.002l0.008-0.002L4.836,2.9L4.829,2.894l0.016-0.016
    L4.86,2.894L4.854,2.9L4.852,2.911l0.007,0.002l0.006-0.002l0.008-0.007l0.01,0.007l0.004,0.002l0.007-0.002L4.892,2.9L4.886,2.894
    l0.015-0.016l0.017,0.016L4.911,2.9L4.909,2.911l0.005,0.002l0.007-0.002L4.93,2.904l0.009,0.007l0.004,0.002L4.95,2.911V2.9
    L4.944,2.894l0.015-0.016l0.015,0.016L4.968,2.9v0.011l0.004,0.002L4.98,2.911l0.008-0.007l0.009,0.007L5,2.913l0.008-0.002
    L5.006,2.9L5,2.894l0.015-0.016L5.03,2.894L5.025,2.9L5.023,2.911l0.004,0.002l0.008-0.002l0.009-0.007l0.009,0.007l0.006,0.002
    l0.006-0.002L5.064,2.9L5.058,2.894l0.015-0.016l0.015,0.016L5.081,2.9v0.011l0.006,0.002l0.006-0.002l0.009-0.007L5.11,2.911
    l0.006,0.002l0.006-0.002L5.12,2.9L5.114,2.894L5.13,2.878l0.016,0.016L5.138,2.9v0.011l0.004,0.002L5.15,2.911l0.009-0.007
    l0.008,0.007l0.004,0.002l0.007-0.002V2.9L5.171,2.894l0.016-0.016l0.015,0.016L5.196,2.9L5.195,2.911l0.004,0.002l0.008-0.002
    l0.008-0.007l0.009,0.007l0.003,0.002l0.009-0.002L5.234,2.9L5.228,2.894l0.015-0.016l0.016,0.016L5.252,2.9v0.011l0.007,0.002
    l0.006-0.002l0.009-0.007l0.007,0.007l0.006,0.002l0.006-0.002V2.9L5.285,2.894L5.3,2.878l0.015,0.016L5.309,2.9v0.011l0.006,0.002
    l0.006-0.002l0.008-0.007l0.009,0.007l0.005,0.002L5.35,2.911V2.9L5.342,2.894l0.015-0.016l0.017,0.016L5.366,2.9v0.011L5.37,2.913
    l0.007-0.002l0.009-0.007l0.008,0.007l0.004,0.002l0.008-0.002L5.407,2.9L5.4,2.894l0.014-0.016L5.43,2.894L5.423,2.9v0.011
    l0.004,0.002l0.008-0.002l0.009-0.007l0.008,0.007l0.004,0.002l0.007-0.002L5.462,2.9L5.456,2.894l0.015-0.016L5.51,2.911
    l0.004,0.002l0.007-0.002L5.52,2.9L5.485,2.867z M4.645,2.881L4.628,2.867l0.017-0.013l0.016,0.013L4.645,2.881z M4.702,2.881
    L4.687,2.867l0.016-0.013l0.016,0.013L4.702,2.881z M4.759,2.881L4.744,2.867l0.015-0.013l0.016,0.013L4.759,2.881z M4.816,2.881
    L4.801,2.867l0.016-0.013l0.016,0.013L4.816,2.881z M4.873,2.881L4.858,2.867l0.014-0.013l0.016,0.013L4.873,2.881z M4.929,2.881
    L4.915,2.867L4.93,2.854l0.016,0.013L4.929,2.881z M4.987,2.881L4.972,2.867l0.015-0.013l0.016,0.013L4.987,2.881z M5.044,2.881
    L5.028,2.867l0.016-0.013L5.06,2.867L5.044,2.881z M5.102,2.881L5.086,2.867l0.016-0.013l0.015,0.013L5.102,2.881z M5.159,2.881
    L5.142,2.867l0.017-0.013l0.015,0.013L5.159,2.881z M5.215,2.881L5.2,2.867l0.015-0.013l0.016,0.013L5.215,2.881z M5.273,2.881
    L5.257,2.867l0.017-0.013l0.015,0.013L5.273,2.881z M5.329,2.881L5.313,2.867l0.016-0.013l0.017,0.013L5.329,2.881z M5.387,2.881
    L5.371,2.867l0.017-0.013l0.015,0.013L5.387,2.881z M5.443,2.881L5.428,2.867l0.015-0.013L5.46,2.867L5.443,2.881z"/>
  <path class="st3" d="M5.485,3.3L5.52,3.268l0.001-0.013l-0.011,0L5.471,3.287L5.456,3.276l0.006-0.007l0.001-0.013L5.452,3.255
    L5.443,3.262L5.435,3.255H5.423v0.013L5.43,3.276L5.414,3.287L5.4,3.276l0.007-0.007l0.001-0.013L5.395,3.255L5.387,3.262
    L5.378,3.255H5.366v0.013l0.008,0.007L5.357,3.287L5.342,3.276L5.35,3.268V3.255H5.338L5.329,3.262L5.321,3.255H5.309v0.013
    l0.007,0.007L5.3,3.287L5.285,3.276l0.007-0.007V3.256L5.281,3.255L5.273,3.262L5.264,3.255H5.252v0.013l0.007,0.007L5.244,3.287
    L5.228,3.276l0.006-0.007l0.001-0.013L5.224,3.255L5.215,3.262L5.207,3.255H5.195l0.001,0.013l0.006,0.007L5.187,3.287L5.171,3.276
    l0.007-0.007V3.255H5.167L5.159,3.262L5.15,3.255H5.138v0.013l0.007,0.007L5.13,3.287L5.114,3.276L5.12,3.268l0.001-0.013l-0.011,0
    L5.102,3.262L5.093,3.255H5.081v0.013l0.007,0.007L5.073,3.287L5.058,3.276l0.007-0.007l0.001-0.013L5.053,3.255L5.044,3.262
    L5.036,3.255H5.023l0.002,0.013L5.03,3.276L5.016,3.287L5,3.276l0.006-0.007l0.002-0.013L4.996,3.255L4.987,3.262L4.979,3.255
    H4.967v0.013l0.006,0.007L4.959,3.287L4.944,3.276l0.005-0.007V3.255h-0.01l-0.01,0.007L4.921,3.255H4.909L4.91,3.268l0.007,0.007
    L4.901,3.287L4.886,3.276l0.006-0.007l0.001-0.013L4.882,3.255l-0.01,0.007L4.865,3.255H4.852l0.001,0.013L4.86,3.276L4.845,3.287
    L4.829,3.276l0.007-0.007l0.001-0.013L4.825,3.255L4.816,3.262L4.808,3.255H4.795l0.001,0.013l0.007,0.007L4.788,3.287L4.772,3.276
    l0.007-0.007L4.78,3.255H4.768L4.759,3.262L4.75,3.255H4.738v0.013l0.008,0.007L4.73,3.287L4.714,3.276l0.007-0.007V3.255H4.71
    L4.702,3.262L4.694,3.255H4.682v0.013L4.69,3.275L4.674,3.287L4.658,3.276l0.006-0.007l0.001-0.013L4.654,3.255L4.645,3.262
    L4.637,3.255H4.624l0.001,0.013l0.007,0.007L4.617,3.287L4.579,3.255H4.566l0.003,0.013L4.604,3.3L4.569,3.33L4.566,3.343
    l0.008,0.002h0.005L4.617,3.31l0.016,0.016L4.626,3.33L4.624,3.343L4.63,3.345h0.007l0.007-0.009l0.009,0.009h0.005l0.007-0.002
    L4.664,3.33L4.658,3.326L4.674,3.31l0.015,0.016L4.682,3.33v0.013l0.005,0.002h0.008l0.008-0.009L4.71,3.345h0.004l0.008-0.002
    V3.33L4.714,3.326L4.73,3.31l0.017,0.016L4.738,3.33v0.013l0.005,0.002H4.75l0.008-0.009l0.009,0.009H4.77l0.01-0.002L4.778,3.33
    L4.772,3.326L4.788,3.31l0.016,0.016L4.797,3.33L4.795,3.343l0.007,0.002h0.006l0.008-0.009l0.009,0.009h0.004l0.008-0.002
    L4.836,3.33L4.829,3.326L4.845,3.31L4.86,3.326L4.854,3.33L4.852,3.343l0.007,0.002h0.006l0.008-0.009l0.01,0.009h0.004
    l0.007-0.002L4.892,3.33L4.886,3.326L4.901,3.31l0.017,0.016L4.911,3.33L4.909,3.343l0.005,0.002h0.007L4.93,3.336l0.009,0.009
    h0.004L4.95,3.343V3.33L4.944,3.326L4.959,3.31l0.015,0.016L4.968,3.33v0.013l0.004,0.002h0.007l0.009-0.009l0.009,0.009H5
    l0.008-0.002L5.006,3.33L5,3.326L5.016,3.31L5.03,3.326L5.025,3.33L5.023,3.343l0.004,0.002h0.008l0.009-0.009l0.009,0.009h0.006
    l0.006-0.002L5.064,3.33L5.058,3.326L5.073,3.31l0.015,0.016L5.081,3.33v0.013l0.006,0.002h0.006l0.009-0.009L5.11,3.345h0.006
    l0.006-0.002L5.12,3.33L5.114,3.326L5.13,3.31l0.016,0.016L5.138,3.33v0.013l0.004,0.002H5.15l0.009-0.009l0.008,0.009h0.004
    l0.007-0.002V3.33L5.171,3.326L5.187,3.31l0.015,0.016L5.196,3.33L5.195,3.343l0.004,0.002h0.008l0.008-0.009l0.009,0.009h0.003
    l0.009-0.002L5.234,3.33L5.228,3.326L5.244,3.31L5.26,3.326L5.252,3.33v0.013l0.007,0.002h0.006l0.009-0.009l0.007,0.009h0.006
    l0.006-0.002V3.33L5.285,3.326L5.3,3.31l0.015,0.016L5.309,3.33v0.013l0.006,0.002h0.006l0.008-0.009l0.009,0.009h0.005L5.35,3.343
    V3.33L5.342,3.326L5.357,3.31l0.017,0.016L5.366,3.33v0.013L5.37,3.345h0.007l0.009-0.009l0.008,0.009h0.004l0.008-0.002
    L5.407,3.33L5.4,3.326L5.414,3.31L5.43,3.326L5.423,3.33v0.013l0.004,0.002h0.008l0.009-0.009l0.008,0.009h0.004l0.007-0.002
    L5.462,3.33L5.456,3.326L5.471,3.31L5.51,3.345h0.004l0.007-0.002L5.52,3.33L5.485,3.3z M4.645,3.313L4.628,3.3l0.017-0.014
    L4.661,3.3L4.645,3.313z M4.702,3.313L4.687,3.3l0.016-0.014L4.718,3.3L4.702,3.313z M4.759,3.313L4.744,3.3l0.015-0.014L4.775,3.3
    L4.759,3.313z M4.816,3.313L4.801,3.3l0.016-0.014L4.832,3.3L4.816,3.313z M4.873,3.313L4.858,3.3l0.014-0.014L4.889,3.3
    L4.873,3.313z M4.929,3.313L4.915,3.3L4.93,3.286L4.946,3.3L4.929,3.313z M4.987,3.313L4.972,3.3l0.015-0.014L5.003,3.3
    L4.987,3.313z M5.044,3.313L5.028,3.3l0.016-0.014L5.06,3.3L5.044,3.313z M5.102,3.313L5.086,3.3l0.016-0.014L5.116,3.3
    L5.102,3.313z M5.159,3.313L5.142,3.3l0.017-0.014L5.174,3.3L5.159,3.313z M5.215,3.313L5.2,3.3l0.015-0.014L5.231,3.3L5.215,3.313
    z M5.273,3.313L5.257,3.3l0.017-0.014L5.288,3.3L5.273,3.313z M5.329,3.313L5.313,3.3l0.016-0.014L5.346,3.3L5.329,3.313z
     M5.387,3.313L5.371,3.3l0.017-0.014L5.402,3.3L5.387,3.313z M5.443,3.313L5.428,3.3l0.015-0.014L5.46,3.3L5.443,3.313z"/>
  <path class="st3" d="M2.758,2.684L2.754,2.683V2.549v-0.01L2.76,2.541c0.142,0.02,0.285,0.031,0.427,0.031s0.285-0.011,0.427-0.031
    l0.007-0.002v0.144L3.616,2.684C3.474,2.705,3.331,2.717,3.188,2.717C3.044,2.717,2.902,2.705,2.758,2.684z M3.188,2.7
    c0.14,0,0.28-0.01,0.419-0.03V2.56C3.468,2.579,3.328,2.59,3.188,2.59c-0.141,0-0.281-0.01-0.423-0.03v0.11
    C2.906,2.69,3.047,2.7,3.188,2.7z M2.758,2.559L2.759,2.55L2.758,2.559z"/>
  <polygon class="st3" points="2.751,2.496 2.798,2.459 2.798,2.468 2.798,2.475 2.776,2.482 2.768,2.496 2.776,2.507 2.798,2.512 
    2.821,2.507 2.83,2.496 2.821,2.482 2.798,2.475 2.798,2.468 2.798,2.459 2.846,2.496 2.798,2.529  "/>
  <polygon class="st3" points="2.906,2.509 2.955,2.472 2.955,2.479 2.955,2.488 2.932,2.496 2.925,2.509 2.932,2.52 2.955,2.525 
    2.977,2.52 2.984,2.509 2.977,2.496 2.955,2.488 2.955,2.479 2.955,2.472 3.002,2.509 2.955,2.543  "/>
  <polygon class="st3" points="3.063,2.522 3.111,2.483 3.111,2.496 3.111,2.503 3.087,2.509 3.08,2.522 3.087,2.533 3.111,2.541 
    3.132,2.533 3.14,2.522 3.132,2.509 3.111,2.503 3.111,2.496 3.111,2.483 3.157,2.522 3.111,2.559  "/>
  <polygon class="st3" points="3.218,2.522 3.265,2.483 3.265,2.496 3.265,2.503 3.243,2.509 3.235,2.522 3.243,2.533 3.265,2.541 
    3.288,2.533 3.295,2.522 3.288,2.509 3.265,2.503 3.265,2.496 3.265,2.483 3.313,2.522 3.265,2.559   "/>
  <polygon class="st3" points="3.373,2.509 3.421,2.472 3.421,2.479 3.421,2.488 3.398,2.496 3.391,2.509 3.398,2.52 3.421,2.525 
    3.444,2.52 3.452,2.509 3.444,2.496 3.421,2.488 3.421,2.479 3.421,2.472 3.468,2.509 3.421,2.543  "/>
  <polygon class="st3" points="3.527,2.496 3.575,2.459 3.575,2.468 3.575,2.475 3.553,2.482 3.544,2.496 3.553,2.507 3.575,2.512 
    3.598,2.507 3.605,2.496 3.598,2.482 3.575,2.475 3.575,2.468 3.575,2.459 3.623,2.496 3.575,2.529   "/>
  <polygon class="st3" points="2.751,2.877 2.798,2.84 2.798,2.848 2.798,2.857 2.776,2.862 2.768,2.877 2.776,2.888 2.798,2.895 
    2.821,2.888 2.83,2.877 2.821,2.862 2.798,2.857 2.798,2.848 2.798,2.84 2.846,2.877 2.798,2.911   "/>
  <polygon class="st3" points="2.906,2.89 2.955,2.854 2.955,2.862 2.955,2.87 2.932,2.877 2.925,2.89 2.932,2.902 2.955,2.909 
    2.977,2.902 2.984,2.89 2.977,2.877 2.955,2.87 2.955,2.862 2.955,2.854 3.002,2.89 2.955,2.924  "/>
  <polygon class="st3" points="3.063,2.902 3.111,2.867 3.111,2.877 3.111,2.884 3.087,2.891 3.08,2.902 3.087,2.917 3.111,2.921 
    3.132,2.917 3.14,2.902 3.132,2.891 3.111,2.884 3.111,2.877 3.111,2.867 3.157,2.902 3.111,2.94   "/>
  <polygon class="st3" points="3.218,2.902 3.265,2.867 3.265,2.877 3.265,2.884 3.243,2.891 3.235,2.902 3.243,2.917 3.265,2.921 
    3.288,2.917 3.295,2.902 3.288,2.891 3.265,2.884 3.265,2.877 3.265,2.867 3.313,2.902 3.265,2.94  "/>
  <polygon class="st3" points="3.373,2.89 3.421,2.854 3.421,2.862 3.421,2.87 3.398,2.877 3.391,2.89 3.398,2.902 3.421,2.909 
    3.444,2.902 3.452,2.89 3.444,2.877 3.421,2.87 3.421,2.862 3.421,2.854 3.468,2.89 3.421,2.924  "/>
  <polygon class="st3" points="3.527,2.877 3.576,2.84 3.576,2.848 3.576,2.857 3.553,2.862 3.544,2.877 3.553,2.888 3.576,2.895 
    3.598,2.888 3.607,2.877 3.598,2.862 3.576,2.857 3.576,2.848 3.576,2.84 3.623,2.877 3.576,2.911  "/>
  <polygon class="st0" points="2.944,2.191 3.034,2.267 2.944,2.343 2.851,2.267  "/>
  <polygon class="st0" points="3.432,2.191 3.523,2.267 3.432,2.343 3.339,2.267  "/>
  <polygon class="st0" points="3.188,2.143 3.31,2.245 3.188,2.345 3.064,2.245   "/>
  <polygon class="st3" points="2.833,1.006 2.834,1.006 2.84,0.989 2.833,0.989 2.833,0.997   "/>
  <polygon class="st3" points="3.541,1.006 3.541,0.997 3.541,0.989 3.534,0.989  "/>
  
    <ellipse transform="matrix(0.4981 -0.8671 0.8671 0.4981 0.8939 3.5612)" class="st3" cx="3.523" cy="1.008" rx="0.011" ry="0.014"/>
  <polygon class="st3" points="3.267,0.821 3.265,0.834 3.282,0.837 3.283,0.821 3.267,0.818  "/>
  <polygon class="st3" points="3.109,0.834 3.107,0.821 3.107,0.818 3.089,0.821 3.093,0.837  "/>
  <path class="st3" d="M3.623,2.287L3.623,2.287V2.208H3.615H3.611L3.464,2.162L3.409,2.068l0.01-0.011h-0.04v-0.15H3.348V1.599
    H3.317V1.415h0.011V1.292l0.193-0.135L3.54,1.161l0.097-0.087L3.541,0.989v0.017l0.08,0.068l-0.08,0.067H3.532L3.514,1.139
    L3.461,1.074l0.062-0.066L3.516,0.993L3.444,1.074l0.06,0.078l-0.07,0.073L3.413,1.181L3.389,1.056L3.413,0.94L3.43,0.907
    L3.434,0.9l0.082,0.093l0.017-0.004c-0.035-0.082-0.13-0.144-0.25-0.168L3.282,0.837l0.082,0.025L3.315,1.056l0.049,0.205
    L3.188,1.296L3.103,1.289L3.046,1.274L3.006,1.26l0.05-0.204l-0.05-0.192l0.087-0.027L3.089,0.821
    C2.971,0.845,2.876,0.907,2.84,0.989L2.834,1.006l0.017,0.002l0.062,0.066L2.86,1.139L2.843,1.142h-0.01L2.754,1.074l0.079-0.068
    V0.989L2.737,1.074l0.096,0.087l0.02-0.004l0.193,0.135v0.123h0.01v0.184h-0.03v0.307h-0.03v0.151H2.977H2.954l0.011,0.01
    L2.909,2.164L2.759,2.21H2.751v0.145v0.277v0.034v0.11c0,0.245-0.001,0.423-0.009,0.547C2.734,3.472,2.717,3.546,2.696,3.558
    L2.667,3.564C2.584,3.578,2.338,3.583,2.056,3.596c-0.117,0.002-0.239,0.008-0.36,0.018C1.491,3.626,1.294,3.645,1.147,3.678
    L0.969,3.736L0.898,3.821C0.9,3.892,0.992,3.955,1.132,4.015c0.424,0.179,1.305,0.321,1.627,0.323l0.134-0.007
    c0.17-0.011,0.312-0.052,0.423-0.118l0,0l0.09-0.068L3.519,4.01L3.52,4.008C3.589,3.89,3.624,3.744,3.624,3.564L3.623,2.287z
     M3.356,1.193L3.332,1.056l0.024-0.13L3.381,0.87L3.372,0.865L3.419,0.89L3.372,1.056l0.047,0.177l-0.038,0.02L3.356,1.193z
     M2.87,1.153l0.06-0.078L2.858,0.993l0.079-0.091l0.004,0.006l0.04,0.149L2.957,1.181l-0.02,0.041L2.87,1.153z M2.951,1.23
    l0.047-0.174L2.951,0.892L2.99,0.87l0.024,0.055l0.024,0.13L3.014,1.193L2.99,1.253L2.951,1.23z M3.605,2.225v0.113H3.488
    l0.044-0.071L3.496,2.201L3.605,2.225z M3.514,2.267L3.432,2.335L3.348,2.267L3.432,2.2L3.514,2.267z M3.472,2.19l-0.04-0.008
    L3.331,2.267l0.043,0.071H3.256l0.06-0.093L3.299,2.188l0.095-0.102L3.472,2.19z M3.188,2.338L3.073,2.245l0.115-0.094l0.114,0.094
    L3.188,2.338z M3.064,1.297l0.124,0.017L3.31,1.297v0.098H3.064V1.297z M3.301,1.415v0.184H3.073V1.415H3.301z M3.043,1.617h0.288
    v0.136H3.043V1.617z M3.043,1.768h0.288v0.138H3.043V1.768z M3.012,1.924H3.36v0.133H3.012V1.924z M2.996,2.075L2.996,2.075h0.383
    h0.002L3.288,2.174l-0.101-0.04l-0.102,0.04L2.992,2.075H2.996z M2.98,2.086l0.095,0.102l-0.02,0.057l0.061,0.093H2.999
    l0.044-0.071l-0.1-0.085L2.905,2.19L2.98,2.086z M2.944,2.2l0.082,0.066L2.944,2.335L2.86,2.267L2.944,2.2z M2.768,2.227
    l0.108-0.026L2.842,2.267l0.045,0.071H2.768V2.304V2.227z M2.768,2.947l0.024,0.019L2.766,2.989L2.768,2.947z M3.419,2.961
    l0.042-0.002l0.012,0.005L3.447,2.987L3.418,2.965l0.003-0.002L3.419,2.961z M3.57,2.978l0.033,0.029L3.582,3.021L3.548,2.997
    L3.57,2.978z M3.561,2.945l0.024-0.002L3.572,2.955L3.561,2.945z M3.271,3.427L3.238,3.454L3.205,3.427l0.031-0.028L3.271,3.427z
     M3.251,3.389l0.032-0.027l0.034,0.027L3.283,3.416L3.251,3.389z M3.144,3.607L3.111,3.58l0.034-0.028l0.033,0.027L3.144,3.607z
     M3.144,3.629l0.033,0.026L3.145,3.681L3.111,3.655L3.144,3.629z M3.158,3.542L3.19,3.514l0.034,0.029L3.19,3.567L3.158,3.542z
     M3.19,3.493L3.157,3.465L3.19,3.44l0.034,0.025L3.19,3.493z M3.176,3.505L3.144,3.53L3.111,3.505l0.032-0.029L3.176,3.505z
     M3.097,3.493L3.064,3.465L3.097,3.44L3.13,3.465L3.097,3.493z M3.097,3.514L3.13,3.542L3.097,3.567L3.064,3.542L3.097,3.514z
     M3.097,3.591L3.13,3.617L3.097,3.644L3.064,3.617L3.097,3.591z M3.098,3.667l0.033,0.027L3.098,3.719L3.064,3.694L3.098,3.667z
     M3.099,3.742l0.033,0.027L3.1,3.794L3.067,3.768L3.099,3.742z M3.112,3.73l0.033-0.026L3.179,3.73L3.146,3.756L3.112,3.73z
     M3.16,3.694l0.03-0.027l0.036,0.027L3.193,3.719L3.16,3.694z M3.19,3.644L3.158,3.617L3.191,3.59l0.035,0.026L3.19,3.644z
     M3.205,3.579l0.033-0.027l0.034,0.027L3.24,3.605L3.205,3.579z M3.238,3.53L3.205,3.505l0.033-0.029l0.034,0.028L3.238,3.53z
     M3.19,3.416L3.157,3.389L3.19,3.363L3.224,3.39L3.19,3.416z M3.176,3.427L3.143,3.454L3.109,3.427l0.034-0.028L3.176,3.427z
     M3.097,3.417L3.063,3.39l0.034-0.028L3.13,3.389L3.097,3.417z M3.082,3.427L3.049,3.454L3.014,3.427l0.035-0.026L3.082,3.427z
     M3.049,3.476l0.034,0.029L3.049,3.53L3.014,3.505L3.049,3.476z M3.049,3.553L3.083,3.58L3.051,3.607L3.017,3.58L3.049,3.553z
     M3.051,3.629l0.034,0.026L3.052,3.681L3.017,3.655L3.051,3.629z M3.052,3.704L3.086,3.73L3.052,3.756L3.019,3.728L3.052,3.704z
     M3.039,3.769L3.007,3.794L2.973,3.768l0.031-0.026L3.039,3.769z M3.007,3.815L3.04,3.842L3.01,3.867L2.975,3.839L3.007,3.815z
     M3.022,3.804l0.031-0.025l0.035,0.026L3.055,3.831L3.022,3.804z M3.1,3.818l0.034,0.025L3.103,3.868L3.069,3.842L3.1,3.818z
     M3.115,3.804l0.031-0.025l0.035,0.026L3.148,3.831L3.115,3.804z M3.16,3.769l0.033-0.027l0.033,0.027L3.194,3.794L3.16,3.769z
     M3.208,3.73L3.24,3.704l0.032,0.027L3.24,3.756L3.208,3.73z M3.24,3.681L3.205,3.655L3.24,3.626l0.032,0.028L3.24,3.681z
     M3.253,3.616L3.285,3.59l0.034,0.026L3.286,3.644L3.253,3.616z M3.285,3.567L3.251,3.542l0.034-0.029L3.319,3.54L3.285,3.567z
     M3.285,3.493L3.251,3.465L3.283,3.44l0.034,0.025L3.285,3.493z M3.298,3.427l0.034-0.028l0.033,0.028L3.332,3.454L3.298,3.427z
     M3.332,3.377L3.298,3.35L3.33,3.326L3.363,3.35L3.332,3.377z M3.283,3.341L3.251,3.313l0.03-0.026l0.034,0.028L3.283,3.341z
     M3.27,3.35L3.236,3.377L3.203,3.35l0.033-0.026L3.27,3.35z M3.19,3.341L3.157,3.314L3.19,3.287l0.034,0.026L3.19,3.341z
     M3.175,3.35L3.143,3.377L3.109,3.35l0.034-0.024L3.175,3.35z M3.097,3.341L3.064,3.314l0.033-0.028l0.031,0.028L3.097,3.341z
     M3.082,3.35L3.048,3.38L3.016,3.352L3.05,3.326L3.082,3.35z M3.002,3.343L2.968,3.314l0.034-0.028l0.034,0.028L3.002,3.343z
     M3.002,3.363L3.034,3.39L3.002,3.417L2.968,3.39L3.002,3.363z M3.034,3.465L3.001,3.494L2.968,3.467L3.002,3.44L3.034,3.465z
     M3.002,3.514l0.032,0.029L3.002,3.567L2.968,3.542L3.002,3.514z M3.002,3.591l0.034,0.026L3.004,3.644L2.97,3.616L3.002,3.591z
     M3.005,3.667l0.032,0.027L3.005,3.719L2.971,3.691L3.005,3.667z M2.992,3.73L2.96,3.756L2.926,3.728l0.031-0.024L2.992,3.73z
     M2.96,3.779l0.033,0.026L2.961,3.831L2.927,3.804L2.96,3.779z M2.949,3.842L2.912,3.869L2.879,3.842l0.035-0.028L2.949,3.842z
     M2.912,3.892l0.035,0.027l-0.03,0.024L2.883,3.916L2.912,3.892z M2.927,3.881l0.035-0.028l0.034,0.025L2.96,3.908L2.927,3.881z
     M3.01,3.89l0.034,0.027L3.009,3.946L2.975,3.919L3.01,3.89z M3.023,3.878l0.032-0.025l0.033,0.028l-0.03,0.024L3.023,3.878z
     M3.103,3.891l0.034,0.025l-0.03,0.027L3.072,3.915L3.103,3.891z M3.117,3.878l0.031-0.025l0.034,0.028L3.151,3.905L3.117,3.878z
     M3.163,3.842l0.031-0.024l0.033,0.027l-0.03,0.024L3.163,3.842z M3.242,3.855l0.033,0.026L3.243,3.905L3.21,3.878L3.242,3.855z
     M3.242,3.831L3.208,3.805l0.033-0.026l0.034,0.026L3.242,3.831z M3.255,3.769l0.032-0.025L3.32,3.769L3.288,3.794L3.255,3.769z
     M3.286,3.719L3.251,3.694l0.035-0.027L3.32,3.694L3.286,3.719z M3.301,3.654l0.032-0.025l0.033,0.026L3.334,3.681L3.301,3.654z
     M3.334,3.605L3.299,3.579l0.035-0.027l0.033,0.027L3.334,3.605z M3.334,3.53L3.299,3.504l0.033-0.028l0.033,0.028L3.334,3.53z
     M3.345,3.465L3.379,3.44l0.034,0.025L3.379,3.493L3.345,3.465z M3.379,3.416L3.345,3.389l0.032-0.027L3.412,3.39L3.379,3.416z
     M3.377,3.341L3.344,3.314l0.03-0.027L3.41,3.315L3.377,3.341z M3.374,3.268L3.34,3.241l0.033-0.026l0.034,0.026L3.374,3.268z
     M3.361,3.278L3.33,3.302L3.297,3.276l0.029-0.025L3.361,3.278z M3.282,3.267L3.248,3.239l0.03-0.026l0.035,0.028L3.282,3.267z
     M3.268,3.276L3.236,3.302L3.203,3.276l0.031-0.025L3.268,3.276z M3.19,3.265L3.158,3.239L3.19,3.213l0.032,0.026L3.19,3.265z
     M3.175,3.276L3.143,3.302L3.111,3.276l0.034-0.025L3.175,3.276z M3.097,3.267L3.064,3.239l0.034-0.027l0.033,0.027L3.097,3.267z
     M3.083,3.276L3.049,3.302L3.017,3.276l0.034-0.025L3.083,3.276z M3.002,3.267L2.969,3.241l0.036-0.028l0.031,0.026L3.002,3.267z
     M2.989,3.276L2.954,3.302L2.921,3.276l0.035-0.025L2.989,3.276z M2.987,3.352L2.955,3.379L2.92,3.35l0.034-0.024L2.987,3.352z
     M2.955,3.401l0.032,0.026L2.954,3.454L2.921,3.43L2.955,3.401z M2.987,3.505L2.955,3.53L2.921,3.505l0.032-0.028L2.987,3.505z
     M2.955,3.554L2.989,3.58L2.956,3.605L2.922,3.579L2.955,3.554z M2.956,3.629L2.99,3.655L2.957,3.681L2.924,3.654L2.956,3.629z
     M2.944,3.694L2.912,3.719L2.876,3.691l0.033-0.024L2.944,3.694z M2.912,3.742l0.035,0.027L2.914,3.794L2.88,3.768L2.912,3.742z
     M2.9,3.804L2.865,3.831L2.831,3.805l0.035-0.026L2.9,3.804z M2.865,3.855L2.9,3.881L2.869,3.905L2.835,3.878L2.865,3.855z
     M2.869,3.928l0.034,0.027l-0.037,0.03L2.831,3.961L2.869,3.928z M2.865,4.008l0.034,0.028L2.865,4.059L2.831,4.035L2.865,4.008z
     M2.878,3.997l0.039-0.031L2.95,3.992L2.912,4.023L2.878,3.997z M2.93,3.955l0.03-0.024l0.035,0.025L2.963,3.98L2.93,3.955z
     M3.009,3.968l0.033,0.026l-0.03,0.025L2.977,3.992L3.009,3.968z M3.022,3.956l0.036-0.028l0.033,0.024L3.056,3.985L3.022,3.956z
     M3.106,3.965L3.139,3.99L3.101,4.019L3.07,3.994L3.106,3.965z M3.119,3.952l0.032-0.023l0.032,0.026L3.151,3.978L3.119,3.952z
     M3.165,3.916l0.032-0.025L3.23,3.916L3.197,3.943L3.165,3.916z M3.244,3.928l0.032,0.024L3.243,3.978L3.21,3.952L3.244,3.928z
     M3.256,3.916l0.032-0.025l0.033,0.025L3.29,3.943L3.256,3.916z M3.288,3.869L3.256,3.842l0.032-0.024l0.033,0.024L3.288,3.869z
     M3.302,3.805l0.032-0.024l0.033,0.025L3.334,3.831L3.302,3.805z M3.334,3.759L3.301,3.73l0.033-0.026L3.367,3.73L3.334,3.759z
     M3.348,3.694L3.38,3.667l0.034,0.027L3.381,3.719L3.348,3.694z M3.381,3.644L3.347,3.616L3.381,3.59l0.034,0.026L3.381,3.644z
     M3.381,3.567L3.347,3.54l0.032-0.026l0.034,0.029L3.381,3.567z M3.392,3.504l0.035-0.028L3.46,3.504L3.427,3.53L3.392,3.504z
     M3.427,3.454L3.392,3.427l0.033-0.026l0.034,0.026L3.427,3.454z M3.424,3.377L3.392,3.35l0.032-0.023l0.034,0.026L3.424,3.377z
     M3.423,3.303L3.389,3.278L3.42,3.25l0.035,0.028L3.423,3.303z M3.419,3.23L3.386,3.205l0.032-0.027l0.034,0.027L3.419,3.23z
     M3.372,3.193L3.338,3.166l0.03-0.025l0.035,0.027L3.372,3.193z M3.358,3.205L3.326,3.23L3.292,3.203l0.031-0.025L3.358,3.205z
     M3.279,3.193L3.248,3.168l0.029-0.024L3.31,3.168L3.279,3.193z M3.265,3.205l-0.03,0.024L3.202,3.203l0.032-0.024L3.265,3.205z
     M3.19,3.193L3.158,3.166l0.03-0.022L3.22,3.168L3.19,3.193z M3.175,3.203l-0.03,0.026L3.112,3.201l0.032-0.023L3.175,3.203z
     M3.098,3.191L3.067,3.166l0.031-0.024L3.13,3.166L3.098,3.191z M3.084,3.201L3.051,3.229L3.018,3.203l0.034-0.027L3.084,3.201z
     M3.005,3.193L2.972,3.166l0.036-0.025l0.031,0.025L3.005,3.193z M2.99,3.203L2.956,3.229L2.924,3.203l0.035-0.025L2.99,3.203z
     M2.909,3.193L2.876,3.165l0.036-0.024l0.032,0.025L2.909,3.193z M2.942,3.239L2.906,3.267L2.873,3.239l0.036-0.026L2.942,3.239z
     M2.94,3.314L2.906,3.341L2.873,3.314l0.033-0.028L2.94,3.314z M2.941,3.39L2.906,3.417L2.872,3.389l0.035-0.027L2.941,3.39z
     M2.906,3.44l0.035,0.027L2.908,3.494L2.873,3.467L2.906,3.44z M2.908,3.514l0.034,0.029L2.908,3.567L2.874,3.542L2.908,3.514z
     M2.908,3.59l0.034,0.026L2.909,3.644L2.876,3.616L2.908,3.59z M2.896,3.655L2.864,3.68L2.83,3.654l0.033-0.025L2.896,3.655z
     M2.864,3.704L2.897,3.73l-0.03,0.026L2.831,3.728L2.864,3.704z M2.851,3.768L2.818,3.794L2.783,3.769L2.818,3.74L2.851,3.768z
     M2.818,3.818l0.033,0.026L2.822,3.867L2.789,3.839L2.818,3.818z M2.822,3.89l0.034,0.027L2.818,3.948L2.783,3.921L2.822,3.89z
     M2.818,3.97l0.033,0.027L2.818,4.023L2.783,3.997L2.818,3.97z M2.818,4.046l0.033,0.027L2.819,4.099L2.785,4.072L2.818,4.046z
     M2.867,4.082L2.9,4.109L2.868,4.135L2.833,4.109L2.867,4.082z M2.88,4.072l0.032-0.027l0.035,0.027L2.914,4.099L2.88,4.072z
     M2.926,4.035l0.037-0.031l0.034,0.028L2.96,4.059L2.926,4.035z M3.011,4.043l0.032,0.024l-0.038,0.03L2.973,4.072L3.011,4.043z
     M3.026,4.032l0.03-0.027l0.032,0.027l-0.03,0.024L3.026,4.032z M3.101,4.043l0.033,0.023L3.101,4.092l-0.03-0.025L3.101,4.043z
     M3.116,4.032L3.152,4l0.033,0.026L3.147,4.055L3.116,4.032z M3.166,3.99l0.031-0.025L3.23,3.99L3.2,4.015L3.166,3.99z
     M3.243,3.999l0.033,0.026L3.244,4.052L3.211,4.025L3.243,3.999z M3.256,3.99L3.29,3.963L3.322,3.99L3.288,4.015L3.256,3.99z
     M3.304,3.952l0.03-0.024l0.031,0.024l-0.03,0.026L3.304,3.952z M3.334,3.905L3.302,3.881l0.032-0.028l0.033,0.028L3.334,3.905z
     M3.348,3.842L3.38,3.818l0.032,0.024L3.381,3.868L3.348,3.842z M3.381,3.794L3.347,3.769l0.034-0.027l0.034,0.027L3.381,3.794z
     M3.394,3.73l0.033-0.026L3.46,3.73L3.427,3.756L3.394,3.73z M3.427,3.681L3.394,3.655l0.034-0.029l0.034,0.028L3.427,3.681z
     M3.427,3.605L3.394,3.579l0.033-0.027L3.46,3.579L3.427,3.605z M3.441,3.54l0.033-0.026L3.506,3.54L3.474,3.567L3.441,3.54z
     M3.474,3.493L3.439,3.465L3.472,3.44l0.034,0.025L3.474,3.493z M3.472,3.417L3.439,3.389l0.034-0.027L3.506,3.39L3.472,3.417z
     M3.47,3.343L3.436,3.315l0.033-0.028l0.034,0.027L3.47,3.343z M3.469,3.268L3.435,3.241l0.032-0.028l0.035,0.026L3.469,3.268z
     M3.468,3.193L3.432,3.166l0.032-0.025L3.5,3.166L3.468,3.193z M3.463,3.118L3.427,3.094l0.032-0.025l0.037,0.023L3.463,3.118z
     M3.449,3.128L3.418,3.156L3.382,3.128l0.032-0.023L3.449,3.128z M3.369,3.121L3.336,3.096l0.031-0.024l0.032,0.023L3.369,3.121z
     M3.355,3.131L3.323,3.156L3.292,3.131l0.03-0.022L3.355,3.131z M3.277,3.122L3.248,3.098l0.029-0.023l0.032,0.021L3.277,3.122z
     M3.263,3.134l-0.03,0.022L3.201,3.134l0.031-0.025L3.263,3.134z M3.188,3.123l-0.03-0.025l0.03-0.023l0.03,0.023L3.188,3.123z
     M3.173,3.134L3.144,3.156l-0.03-0.025l0.029-0.022L3.173,3.134z M3.099,3.122L3.067,3.096l0.03-0.021l0.031,0.023L3.099,3.122z
     M3.084,3.131L3.052,3.155l-0.03-0.027l0.031-0.019L3.084,3.131z M3.009,3.121L2.977,3.094L3.01,3.072l0.03,0.023L3.009,3.121z
     M2.995,3.128L2.958,3.156L2.927,3.128l0.035-0.024L2.995,3.128z M2.912,3.118L2.88,3.091l0.037-0.023l0.032,0.024L2.912,3.118z
     M2.897,3.128L2.863,3.153L2.826,3.125l0.039-0.024L2.897,3.128z M2.894,3.201L2.86,3.229L2.824,3.201L2.86,3.176L2.894,3.201z
     M2.893,3.276L2.858,3.302L2.824,3.276l0.034-0.025L2.893,3.276z M2.893,3.35L2.858,3.377L2.824,3.35l0.034-0.024L2.893,3.35z
     M2.893,3.43L2.858,3.454L2.822,3.427l0.036-0.028L2.893,3.43z M2.86,3.477l0.034,0.028L2.86,3.53L2.826,3.505L2.86,3.477z
     M2.86,3.553L2.894,3.58L2.863,3.607L2.828,3.58L2.86,3.553z M2.848,3.617L2.816,3.644L2.782,3.616l0.031-0.025L2.848,3.617z
     M2.816,3.667l0.033,0.024L2.818,3.719L2.783,3.691L2.816,3.667z M2.806,3.728L2.769,3.756L2.736,3.73l0.035-0.027L2.806,3.728z
     M2.77,3.779l0.034,0.026l-0.03,0.027L2.742,3.804L2.77,3.779z M2.774,3.852l0.034,0.027l-0.039,0.03L2.736,3.882L2.774,3.852z
     M2.769,3.933l0.034,0.028L2.77,3.986L2.736,3.961L2.769,3.933z M2.771,4.008l0.035,0.028L2.771,4.059L2.737,4.035L2.771,4.008z
     M2.771,4.085l0.035,0.024L2.768,4.14L2.734,4.112L2.771,4.085z M2.768,4.163l0.034,0.026l-0.03,0.026L2.737,4.189L2.768,4.163z
     M2.782,4.151L2.818,4.12l0.035,0.028L2.815,4.177L2.782,4.151z M2.868,4.157L2.9,4.182L2.86,4.214L2.83,4.189L2.868,4.157z
     M2.882,4.144l0.032-0.025l0.033,0.025L2.914,4.172L2.882,4.144z M2.927,4.109L2.96,4.082l0.032,0.025L2.96,4.135L2.927,4.109z
     M3.005,4.119l0.031,0.023L3.005,4.169L2.973,4.144L3.005,4.119z M3.019,4.107l0.039-0.03l0.03,0.026l-0.037,0.03L3.019,4.107z
     M3.101,4.113l0.033,0.028L3.097,4.169L3.064,4.142L3.101,4.113z M3.115,4.103l0.032-0.026l0.034,0.026L3.148,4.129L3.115,4.103z
     M3.161,4.066l0.038-0.03l0.032,0.026L3.194,4.093L3.161,4.066z M3.245,4.072l0.038,0.03l-0.036,0.03l-0.038-0.03L3.245,4.072z
     M3.258,4.062L3.29,4.036l0.038,0.03L3.297,4.092L3.258,4.062z M3.302,4.025l0.033-0.027L3.374,4.03L3.34,4.056L3.302,4.025z
     M3.35,3.989l0.029-0.027l0.039,0.031l-0.03,0.025L3.35,3.989z M3.379,3.941L3.348,3.916L3.38,3.891l0.031,0.021L3.379,3.941z
     M3.394,3.881l0.033-0.026l0.03,0.023L3.425,3.902L3.394,3.881z M3.394,3.805l0.034-0.026l0.034,0.026L3.427,3.831L3.394,3.805z
     M3.442,3.769l0.032-0.027l0.034,0.027L3.475,3.794L3.442,3.769z M3.474,3.719L3.441,3.694l0.033-0.029l0.034,0.026L3.474,3.719z
     M3.474,3.644L3.441,3.616L3.474,3.59l0.034,0.026L3.474,3.644z M3.488,3.579l0.033-0.027l0.033,0.027L3.521,3.605L3.488,3.579z
     M3.521,3.53L3.486,3.504L3.52,3.476l0.034,0.028L3.521,3.53z M3.52,3.454L3.486,3.427l0.033-0.026l0.035,0.026L3.52,3.454z
     M3.519,3.377L3.485,3.352l0.034-0.027L3.553,3.35L3.519,3.377z M3.518,3.302L3.484,3.278L3.516,3.25l0.035,0.025L3.518,3.302z
     M3.516,3.229L3.481,3.203l0.034-0.027L3.55,3.201L3.516,3.229z M3.514,3.155L3.479,3.128l0.032-0.026L3.55,3.125L3.514,3.155z
     M3.51,3.081L3.472,3.057l0.022-0.019l0.038,0.026L3.51,3.081z M3.458,3.047L3.424,3.025l0.024-0.018l0.033,0.021L3.458,3.047z
     M3.444,3.059L3.413,3.082l-0.032-0.02l0.03-0.025L3.444,3.059z M3.365,3.051l-0.03-0.022l0.029-0.021l0.03,0.019L3.365,3.051z
     M3.351,3.062L3.322,3.085l-0.03-0.02l0.03-0.024L3.351,3.062z M3.277,3.052L3.248,3.028l0.028-0.02l0.032,0.02L3.277,3.052z
     M3.263,3.064L3.232,3.087L3.201,3.064L3.232,3.04L3.263,3.064z M3.188,3.052l-0.03-0.021l0.03-0.023l0.03,0.023L3.188,3.052z
     M3.173,3.064l-0.03,0.023l-0.03-0.023l0.03-0.024L3.173,3.064z M3.098,3.052L3.069,3.028l0.03-0.02l0.029,0.02L3.098,3.052z
     M3.084,3.064l-0.029,0.02L3.023,3.062l0.032-0.023L3.084,3.064z M3.01,3.051L2.981,3.027l0.03-0.019l0.028,0.021L3.01,3.051z
     M2.995,3.061L2.963,3.082L2.932,3.058l0.033-0.023L2.995,3.061z M2.917,3.047L2.894,3.028l0.034-0.021L2.95,3.025L2.917,3.047z
     M2.902,3.057L2.865,3.081L2.843,3.063l0.038-0.024L2.902,3.057z M2.83,3.051L2.808,3.035l0.035-0.026l0.024,0.017L2.83,3.051z
     M2.851,3.091L2.813,3.114L2.791,3.098l0.038-0.024L2.851,3.091z M2.848,3.165L2.811,3.189l-0.037-0.03l0.039-0.024L2.848,3.165z
     M2.845,3.239L2.81,3.265L2.774,3.236L2.81,3.211L2.845,3.239z M2.843,3.314L2.81,3.339L2.774,3.313L2.81,3.287L2.843,3.314z
     M2.843,3.389L2.808,3.416L2.774,3.387l0.034-0.025L2.843,3.389z M2.845,3.467L2.813,3.493l-0.037-0.03l0.032-0.025L2.845,3.467z
     M2.813,3.514l0.035,0.029L2.813,3.569L2.78,3.542L2.813,3.514z M2.8,3.58L2.768,3.605L2.733,3.579l0.031-0.027L2.8,3.58z
     M2.768,3.629l0.034,0.025L2.77,3.68L2.736,3.654L2.768,3.629z M2.756,3.691L2.722,3.719L2.689,3.694l0.034-0.029L2.756,3.691z
     M2.722,3.742l0.034,0.027L2.728,3.792L2.693,3.764L2.722,3.742z M2.728,3.814l0.033,0.025L2.722,3.873L2.689,3.845L2.728,3.814z
     M2.722,3.895l0.033,0.026L2.722,3.948L2.689,3.921L2.722,3.895z M2.722,3.97l0.034,0.027L2.722,4.025L2.689,3.999L2.722,3.97z
     M2.723,4.046l0.035,0.026l-0.036,0.03L2.689,4.073L2.723,4.046z M2.722,4.123l0.034,0.028L2.722,4.177L2.689,4.151L2.722,4.123z
     M2.722,4.199l0.034,0.027L2.723,4.253L2.689,4.226L2.722,4.199z M2.771,4.237l0.03,0.024l-0.03,0.026L2.739,4.264L2.771,4.237z
     M2.785,4.226L2.816,4.2l0.031,0.026L2.816,4.25L2.785,4.226z M2.86,4.237L2.89,4.26L2.86,4.283L2.83,4.261L2.86,4.237z
     M2.873,4.226l0.042-0.032l0.032,0.023L2.903,4.248L2.873,4.226z M2.928,4.182L2.96,4.156l0.03,0.023L2.958,4.204L2.928,4.182z
     M3.005,4.19l0.033,0.028l-0.03,0.026L2.973,4.216L3.005,4.19z M3.018,4.179L3.05,4.155L3.084,4.18L3.052,4.206L3.018,4.179z
     M3.098,4.19l0.036,0.029L3.103,4.247l-0.036-0.03L3.098,4.19z M3.111,4.18l0.037-0.028L3.185,4.18L3.148,4.211L3.111,4.18z
     M3.163,4.14l0.031-0.027l0.038,0.029L3.199,4.169L3.163,4.14z M3.246,4.155l0.031,0.024L3.245,4.207L3.211,4.18L3.246,4.155z
     M3.258,4.142l0.039-0.03L3.33,4.139l-0.038,0.03L3.258,4.142z M3.31,4.103l0.03-0.026l0.034,0.026l-0.03,0.024L3.31,4.103z
     M3.356,4.067L3.388,4.04l0.03,0.026l-0.03,0.027L3.356,4.067z M3.401,4.03l0.031-0.025l0.032,0.027l-0.03,0.023L3.401,4.03z
     M3.432,3.985l-0.04-0.032l0.033-0.027l0.039,0.03L3.432,3.985z M3.439,3.913l0.03-0.025l0.04,0.033l-0.03,0.025L3.439,3.913z
     M3.47,3.867L3.441,3.842l0.035-0.025l0.03,0.02L3.47,3.867z M3.489,3.805l0.032-0.026L3.55,3.802L3.519,3.829L3.489,3.805z
     M3.488,3.73l0.034-0.027L3.556,3.73L3.521,3.756L3.488,3.73z M3.521,3.68L3.489,3.654L3.52,3.626l0.035,0.028L3.521,3.68z
     M3.535,3.616L3.568,3.59l0.034,0.026L3.568,3.644L3.535,3.616z M3.568,3.567L3.535,3.54l0.033-0.026L3.601,3.54L3.568,3.567z
     M3.568,3.493L3.534,3.465l0.034-0.028l0.034,0.028L3.568,3.493z M3.568,3.416L3.532,3.389l0.035-0.027l0.034,0.025L3.568,3.416z
     M3.566,3.341L3.532,3.314l0.034-0.028l0.035,0.026L3.566,3.341z M3.565,3.265L3.53,3.239l0.035-0.028l0.036,0.025L3.565,3.265z
     M3.564,3.189L3.529,3.165l0.036-0.029L3.602,3.16L3.564,3.189z M3.562,3.114L3.526,3.091l0.021-0.017l0.036,0.024L3.562,3.114z
     M3.548,3.051L3.509,3.027L3.533,3.01l0.035,0.026L3.548,3.051z M3.532,2.987L3.501,2.964l0.015-0.012l0.022-0.001l0.019,0.016
    L3.532,2.987z M3.518,2.998L3.495,3.017l-0.032-0.02l0.024-0.02L3.518,2.998z M3.433,2.997L3.409,3.015l-0.03-0.018l0.024-0.02
    L3.433,2.997z M3.363,2.985L3.335,2.967l0.049-0.003l0.004,0.003L3.363,2.985z M3.35,2.997L3.322,3.018L3.29,2.997l0.027-0.02
    L3.35,2.997z M3.275,2.987L3.251,2.971l0.047-0.002L3.275,2.987z M3.26,2.997L3.232,3.018l-0.031-0.02l0.03-0.021L3.26,2.997z
     M3.188,2.987L3.166,2.971h0.022H3.21L3.188,2.987z M3.173,2.998l-0.029,0.02L3.115,2.997l0.029-0.02L3.173,2.998z M3.1,2.987
    L3.077,2.969l0.047,0.002L3.1,2.987z M3.086,2.997l-0.03,0.021L3.027,2.997l0.032-0.02L3.086,2.997z M3.012,2.987l-0.025-0.02
    l0.005-0.003L3.04,2.967L3.012,2.987z M2.997,2.997l-0.03,0.018L2.944,2.997l0.029-0.02L2.997,2.997z M2.928,2.985l-0.024-0.02
    l0.01-0.005l0.038,0.002l0.005,0.004L2.928,2.985z M2.914,2.997L2.881,3.016L2.858,2.998l0.03-0.021L2.914,2.997z M2.843,2.987
    l-0.025-0.02l0.02-0.016l0.02,0.001l0.017,0.012L2.843,2.987z M2.83,2.997L2.793,3.021L2.774,3.007l0.032-0.029L2.83,2.997z
     M2.806,2.956L2.789,2.944l0.025,0.001L2.806,2.956z M2.766,3.024l0.013,0.01L2.766,3.041V3.024z M2.766,3.064l0.026-0.019
    l0.022,0.017L2.776,3.087l-0.01-0.012V3.064z M2.766,3.114l0.011-0.005l0.021,0.015L2.764,3.146L2.766,3.114z M2.764,3.176
    l0.032,0.023L2.764,3.222V3.176z M2.763,3.248l0.031,0.028L2.761,3.302L2.763,3.248z M2.759,3.326V3.322L2.794,3.35L2.756,3.38
    L2.759,3.326z M2.756,3.382L2.76,3.388L2.756,3.396V3.382z M2.756,3.396l0.038,0.031L2.763,3.452L2.75,3.443L2.756,3.396z
     M2.747,3.462l0.051,0.042L2.764,3.53L2.739,3.509L2.747,3.462z M2.733,3.527l0.018,0.016L2.718,3.566L2.714,3.563L2.733,3.527z
     M0.915,3.821l0.07-0.075l0.018-0.008l0.114,0.101L1,3.928L0.915,3.821z M1.139,3.999l-0.123-0.06l0.113-0.085l0.215,0.192
    l0.011-0.014l-0.213-0.19l0.22-0.163l-0.01-0.013L1.13,3.831l-0.11-0.1c0.116-0.044,0.315-0.071,0.536-0.09L1.519,3.66l0.009,0.014
    L1.6,3.638L1.692,3.63L1.509,3.734l0.007,0.014l0.215-0.121l0.115-0.005l-0.342,0.18L1.51,3.818L1.888,3.62l0.057-0.003
    l0.074-0.003L1.502,3.873l0.007,0.015L2.06,3.612L2.143,3.61l-0.64,0.336L1.51,3.962l0.673-0.354l0.108-0.004L1.507,4.008
    l0.008,0.015l0.817-0.421l0.08-0.004L1.516,4.071l0.008,0.014l0.929-0.487h0.003l0.083-0.005L1.525,4.12l0.003,0.005
    C1.379,4.086,1.244,4.044,1.139,3.999z M2.522,4.307l0.033-0.02L2.548,4.272l-0.056,0.03L2.405,4.293l0.131-0.074L2.537,4.2
    l-0.16,0.09L2.296,4.277l0.242-0.126L2.53,4.135L2.267,4.272L2.209,4.264l0.324-0.177L2.525,4.072L2.18,4.26L2.105,4.247
    L2.53,4.028L2.521,4.012L2.076,4.243L2.001,4.229l0.528-0.278L2.52,3.938L1.973,4.224L1.92,4.214l0.61-0.326L2.521,3.873
    L1.892,4.21L1.825,4.194l0.708-0.38L2.525,3.797L1.8,4.189L1.727,4.173L2.54,3.744L2.531,3.728l-0.829,0.44L1.674,4.163L1.64,4.153
    l0.908-0.479L2.54,3.66L1.613,4.147L1.545,4.13L2.56,3.602l-0.006-0.01l0.072-0.004l0.051-0.006l0.025-0.006L2.707,3.58
    L2.698,3.586l0.008,0.015l0.012-0.01l0.036,0.027L2.722,3.644L2.689,3.616l-0.005,0.02l0.024,0.017l-0.03,0.024v0.009L2.676,3.705
    L2.709,3.73l-0.04,0.034l0.004,0.004v0.001l0.006,0.006L2.68,3.776l0.033,0.028L2.668,3.838l0.006,0.007L2.668,3.854l0.04,0.029
    l-0.04,0.033l0.006,0.005L2.668,3.929l0.04,0.031l-0.04,0.031l0.006,0.007L2.669,4.005l0.04,0.03l-0.04,0.031l0.006,0.007
    L2.668,4.082l0.039,0.03L2.668,4.144L2.674,4.15L2.668,4.157l0.04,0.031l-0.03,0.026l0.003,0.02V4.232l0.002,0.012l0.026,0.02
    L2.687,4.281l0.003,0.02l0.034-0.028l0.033,0.023L2.729,4.321L2.522,4.307z M2.759,4.321H2.756l0.015-0.014l0.018,0.014H2.759z
     M2.786,4.295l0.03-0.023l0.03,0.023L2.818,4.318L2.786,4.295z M2.845,4.318L2.86,4.307l0.013,0.008L2.845,4.318z M2.922,4.313
    L2.9,4.314L2.873,4.295l0.03-0.023L2.938,4.3L2.922,4.313z M2.917,4.26L2.96,4.226l0.035,0.028L2.951,4.289L2.917,4.26z
     M3.042,4.295L2.975,4.307L2.966,4.299l0.043-0.035l0.037,0.029L3.042,4.295z M3.022,4.254l0.03-0.025l0.037,0.028l-0.03,0.024
    L3.022,4.254z M3.081,4.287l0.022-0.019l0.012,0.009L3.081,4.287z M3.135,4.272L3.117,4.257l0.031-0.025l0.031,0.025L3.135,4.272z
     M3.194,4.247L3.163,4.219L3.199,4.19l0.032,0.027L3.194,4.247z M3.242,4.23l0.003-0.001h0.001L3.242,4.23z M3.263,4.219
    L3.258,4.217L3.292,4.19l0.01,0.008L3.263,4.219z M3.317,4.189l-0.012-0.01l0.038-0.031l0.015,0.014L3.317,4.189z M3.394,4.13
    L3.373,4.15L3.357,4.139l0.031-0.026l0.015,0.014L3.394,4.13z M3.416,4.113l-0.015-0.01l0.033-0.026l0.01,0.008L3.416,4.113z
     M3.454,4.071L3.447,4.066l0.026-0.02L3.454,4.071z M3.506,3.999l-0.028,0.02L3.445,3.994l0.034-0.026l0.03,0.024L3.506,3.999z
     M3.518,3.976l-0.025-0.02l0.031-0.025l0.011,0.01L3.518,3.976z M3.543,3.923L3.538,3.921l0.01-0.008L3.543,3.923z M3.524,3.909
    l-0.039-0.03l0.034-0.028l0.039,0.031L3.524,3.909z M3.564,3.866L3.532,3.838l0.032-0.024l0.012,0.01L3.564,3.866z M3.582,3.804
    L3.578,3.802l0.005-0.005L3.582,3.804z M3.588,3.771l-0.024,0.02L3.535,3.769l0.034-0.027l0.023,0.017L3.588,3.771z M3.593,3.738
    L3.583,3.73l0.014-0.011L3.593,3.738z M3.6,3.695L3.57,3.719L3.536,3.691l0.031-0.024L3.6,3.691V3.695z M3.603,3.672L3.582,3.654
    l0.022-0.017L3.603,3.672z M3.607,3.564v0.034L3.582,3.579l0.025-0.021V3.564z M3.607,3.522L3.582,3.504l0.025-0.023V3.522z
     M3.607,3.447l-0.026-0.02l0.026-0.022V3.447z M3.607,3.37L3.581,3.35l0.026-0.02V3.37z M3.607,3.295L3.581,3.276l0.026-0.023
    V3.295z M3.607,3.219L3.58,3.199l0.027-0.021C3.607,3.178,3.607,3.219,3.607,3.219z M3.607,3.144l-0.029-0.02l0.02-0.015
    l0.009,0.005V3.144z M3.607,3.078L3.598,3.087L3.561,3.062l0.022-0.017l0.024,0.017V3.078z M3.607,3.04l-0.01-0.006l0.011-0.009
    L3.607,3.04L3.607,3.04z M3.607,2.987l-0.024-0.02L3.607,2.95V2.987z M3.607,2.923C3.468,2.944,3.328,2.955,3.188,2.955
    c-0.141,0-0.28-0.01-0.42-0.031V2.812l0.024,0.005L2.818,2.82l0.028,0.003L2.87,2.828L2.9,2.829l0.024,0.003l0.029,0.004
    l0.024,0.002l0.03,0.001L3.029,2.84L3.06,2.843h0.022h0.036h0.018h0.053h0.053h0.017h0.034h0.024l0.03-0.003l0.022-0.003
    l0.03-0.001l0.025-0.002L3.452,2.83l0.025-0.003l0.028-0.001L3.53,2.823L3.558,2.82l0.026-0.003l0.023-0.005V2.923z M3.607,2.797
    L3.583,2.799L3.557,2.802L3.529,2.806L3.505,2.81L3.476,2.812L3.452,2.814L3.423,2.817L3.399,2.82h-0.03L3.346,2.821L3.315,2.824
    H3.292H3.256L3.241,2.827H3.188H3.134L3.117,2.824H3.082H3.061L3.029,2.821L3.006,2.82h-0.03L2.953,2.817l-0.03-0.003L2.9,2.812
    L2.87,2.81L2.846,2.806L2.818,2.802L2.794,2.799L2.768,2.797V2.783V2.687c0.14,0.02,0.279,0.03,0.42,0.03
    c0.14,0,0.28-0.01,0.419-0.03C3.607,2.687,3.607,2.797,3.607,2.797z M3.607,2.669C3.468,2.69,3.328,2.7,3.188,2.7
    c-0.141,0-0.28-0.01-0.42-0.03V2.632V2.56c0.14,0.019,0.279,0.03,0.42,0.03c0.14,0,0.28-0.01,0.419-0.03
    C3.607,2.56,3.607,2.669,3.607,2.669z M3.607,2.542c-0.139,0.021-0.279,0.03-0.419,0.03c-0.141,0-0.28-0.009-0.42-0.03v-0.11
    c0.14,0.022,0.279,0.03,0.42,0.03c0.138,0,0.28-0.007,0.419-0.03V2.542z M3.607,2.415c-0.139,0.019-0.279,0.03-0.419,0.03
    c-0.141,0-0.28-0.011-0.42-0.03V2.356h0.839V2.415z M3.188,0.888L3.109,0.834L3.093,0.837l0.095,0.067l0.094-0.067L3.265,0.834
    L3.188,0.888z M3.188,0.753l0.079,0.065l0.017,0.004V0.821L3.188,0.735L3.089,0.821v0.001l0.018-0.004L3.188,0.753z M3.089,1.074
    l0.098,0.087l0.096-0.087L3.188,0.989L3.089,1.074z M3.267,1.074L3.188,1.142L3.107,1.074l0.081-0.068L3.267,1.074z"/>
  <path class="st0" d="M2.704,3.564H2.56c-0.048,0.258-0.048,0.51,0,0.765h0.143C2.655,4.073,2.655,3.821,2.704,3.564z"/>
  <path class="st3" d="M2.554,4.338L2.552,4.331C2.528,4.202,2.517,4.075,2.517,3.948c0-0.126,0.011-0.257,0.035-0.384l0.002-0.006
    h0.159L2.71,3.566C2.687,3.694,2.676,3.821,2.676,3.948c0,0.126,0.012,0.252,0.035,0.379l0.002,0.011
    C2.713,4.338,2.554,4.338,2.554,4.338z M2.692,4.321C2.67,4.197,2.658,4.072,2.658,3.948S2.67,3.699,2.692,3.574H2.567
    c-0.021,0.125-0.034,0.25-0.034,0.374c0,0.125,0.012,0.246,0.034,0.373H2.692z"/>
  <path class="st0" d="M1.535,3.616L1.362,3.641c-0.038,0.162-0.038,0.298,0,0.459l0.173,0.051C1.495,3.99,1.495,3.779,1.535,3.616z"
    />
  <path class="st3" d="M1.355,4.107V4.102L1.326,3.871l0.028-0.23l0.002-0.007L1.532,3.61l0.013-0.003L1.542,3.619L1.514,3.885
    l0.028,0.264l0.005,0.014L1.355,4.107z M1.522,4.139L1.496,3.885l0.027-0.258L1.37,3.649L1.343,3.871L1.37,4.094L1.522,4.139z"/>
  <path class="st0" d="M4.579,2.956H4.364C4.337,2.891,4.235,2.843,4.115,2.843c-0.143,0-0.258,0.065-0.258,0.146v0.018H3.714
    L3.573,2.894L3.439,2.981H3.326l-0.01,0.026H2.973V3.001L2.831,2.867L2.7,2.947L2.603,2.911L2.506,2.947
    C2.475,2.887,2.377,2.843,2.26,2.843c-0.123,0-0.222,0.048-0.25,0.113H1.769l-0.02,0.045v0.165l0.02,0.045h0.242
    c0.027,0.065,0.127,0.114,0.25,0.114c0.117,0,0.215-0.045,0.246-0.106l0.096,0.035L2.7,3.218L2.831,3.3l0.142-0.134V3.159h0.342
    l0.01,0.026h0.113l0.135,0.091l0.141-0.117h0.143v0.017c0,0.082,0.115,0.15,0.258,0.15c0.12,0,0.222-0.05,0.248-0.114h0.215
    l0.021-0.045V3.001L4.579,2.956z"/>
  <path class="st3" d="M4.6,2.965L4.579,2.947H4.37C4.338,2.88,4.235,2.835,4.115,2.835c-0.144,0-0.265,0.066-0.266,0.154v0.009
    H3.722L3.573,2.884L3.432,2.973H3.326L3.31,2.989v0.009H2.982L2.832,2.86L2.698,2.934l-0.095-0.03l-0.095,0.03l-0.248-0.1
    c-0.12,0-0.223,0.045-0.255,0.113H1.769L1.746,2.965L1.738,3.001v0.165l0.008,0.035l0.022,0.018h0.237
    C2.037,3.287,2.14,3.334,2.26,3.334l0.248-0.102l0.095,0.03l0.095-0.03l0.134,0.077l0.15-0.141H3.31v0.01l0.016,0.015h0.106
    l0.142,0.09l0.148-0.115h0.127v0.008C3.85,3.268,3.971,3.334,4.115,3.334c0.12,0,0.222-0.047,0.254-0.115h0.209L4.6,3.201
    l0.007-0.035V3.001L4.6,2.965z M3.866,2.989l0.071-0.095L4.115,2.85l0.177,0.043L4.35,2.947h-0.1L4.115,2.891L3.953,2.998H3.866
    V2.989z M4.226,3.201l0.008,0.011L4.219,3.229l-0.103,0.03l-0.105-0.03L3.97,3.159l0.01-0.025V3.035L3.97,3.007l0.041-0.066
    l0.105-0.033l0.103,0.033l0.015,0.014l-0.008,0.01L4.219,3.001v0.165L4.226,3.201z M3.521,2.989L3.518,2.981l0.056-0.03L3.64,3
    L3.621,3.035v0.099l0.018,0.032L3.573,3.215L3.518,3.184l0.003-0.006l0.003-0.029V3.017L3.521,2.989z M3.647,3.151L3.643,3.146
    L3.638,3.134V3.035l0.005-0.017l0.004-0.004h0.306L3.96,3.018l0.003,0.017v0.099L3.96,3.146L3.956,3.151H3.647z M3.573,2.902
    l0.129,0.096H3.657L3.573,2.934L3.502,2.973h-0.05L3.573,2.902z M2.68,3.07v0.028L2.603,3.193L2.575,3.188l0.005-0.01l0.003-0.029
    V3.017L2.58,2.989l-0.005-0.01l0.028-0.007L2.68,3.07z M2.561,2.989l0.005,0.029V3.15L2.563,3.172L2.561,3.176H2.388L2.383,3.149
    V3.017l0.004-0.022l0.001-0.006C2.388,2.989,2.561,2.989,2.561,2.989z M2.149,2.965l-0.008-0.01l0.017-0.014L2.26,2.908
    l0.104,0.033l0.03,0.032H2.386L2.371,2.989L2.366,3.017v0.132l0.005,0.029l0.015,0.015h0.009l-0.03,0.036L2.26,3.259l-0.102-0.03
    L2.141,3.211l0.008-0.01l0.006-0.035V3.001L2.149,2.965z M2.084,2.894L2.26,2.85l0.177,0.043l0.069,0.079H2.414L2.26,2.891
    L2.125,2.947H2.026L2.084,2.894z M1.763,3.193L1.757,3.166V3.001l0.006-0.028l0.006-0.009h0.356l0.008,0.009l0.005,0.028v0.165
    L2.133,3.193L2.126,3.201H1.769L1.763,3.193z M2.438,3.276L2.26,3.316l-0.176-0.04L2.026,3.219h0.099L2.26,3.276l0.152-0.083h0.094
    L2.438,3.276z M2.518,3.216l0.007-0.023h0.027l0.051,0.019l0.095-0.114V3.07L2.603,2.955L2.552,2.973H2.525L2.518,2.951l0.085-0.03
    l0.134,0.126v0.076L2.603,3.245L2.518,3.216z M2.965,3.166L2.831,3.291L2.71,3.221l0.032-0.042l0.089,0.079l0.095-0.116V3.025
    L2.831,2.909l-0.089,0.08L2.71,2.945l0.121-0.068l0.133,0.124L2.965,3.166L2.965,3.166z M2.908,3.025v0.117L2.831,3.241
    L2.754,3.142V3.025l0.077-0.098L2.908,3.025z M2.982,3.151V3.015h0.325v0.003V3.15v0.002H2.982V3.151z M3.325,3.149V3.017
    l0.003-0.022L3.33,2.989h0.173l0.004,0.029V3.15L3.503,3.172v0.004H3.33L3.325,3.149z M3.573,3.267L3.452,3.193h0.051l0.071,0.04
    l0.083-0.065h0.046L3.573,3.267z M4.292,3.276l-0.177,0.04l-0.178-0.04l-0.071-0.1V3.168h0.087l0.162,0.108L4.25,3.219h0.1
    L4.292,3.276z M4.591,3.166L4.586,3.193L4.581,3.201H4.579h-0.33H4.246l-0.01-0.035V3.001l0.006-0.028l0.004-0.008l0.002-0.001
    h0.33L4.58,2.965l0.01,0.036v0.165H4.591z"/>
</g>
</svg>
