<?xml version="1.0" encoding="utf-8"?>
<!-- Generator: Adobe Illustrator 20.0.0, SVG Export Plug-In . SVG Version: 6.00 Build 0)  -->
<svg version="1.1" id="Layer_1" xmlns="http://www.w3.org/2000/svg" xmlns:xlink="http://www.w3.org/1999/xlink" x="0px" y="0px"
   viewBox="0 0 26 17" width="26" height="17" style="enable-background:new 0 0 26 17;" xml:space="preserve">
<style type="text/css">
  .st0{fill:#009531;}
  .st1{fill:#FFFFFF;}
</style>
<g>
  <rect class="st0" width="26" height="17"/>
  <path class="st1" d="M12.038,4.792l0.005,0.278h0.025l0.039-0.142c0.011-0.146,0.015-0.294-0.029-0.432l-0.08-0.131l-0.082,0.059
    l0.019,0.102L12.038,4.792z M13.4,4.705l0.15,0.127c0.211,0.281,0.426,0.561,0.615,0.858c0.019,0.119,0.034,0.241,0.049,0.362
    l0.005,0.007l0.026,0.191c0.052,0.414,0.113,0.83,0.139,1.249c0.003,0.178,0.02,0.365-0.034,0.54l-0.016,0.186l0.083-0.088
    c0.112-0.261,0.135-0.551,0.128-0.833l-0.006-0.008c-0.001-0.266-0.058-0.525-0.072-0.789c-0.006-0.135-0.023-0.268-0.029-0.404
    c0.268,0.424,0.543,0.846,0.757,1.297l0.143,0.3l0.034-0.006c0.006-0.177-0.053-0.349-0.118-0.513
    c-0.113-0.27-0.257-0.524-0.404-0.775c-0.136-0.229-0.276-0.454-0.421-0.677l-0.031-0.195c-0.011-0.14-0.011-0.278-0.014-0.417
    l0.09,0.034l0.018-0.036l-0.035-0.184c-0.053-0.162-0.126-0.316-0.192-0.475l-0.074-0.08l-0.09,0.077l-0.053,0.173l0.053,0.151
    c-0.003,0.172,0.039,0.342,0.051,0.516l-0.012-0.029c-0.101-0.136-0.194-0.278-0.288-0.417l0.159,0.004l-0.078-0.154
    c-0.13-0.138-0.276-0.258-0.417-0.384l-0.112-0.03l-0.018,0.032l0.013,0.233L13.4,4.705z M14.743,4.574l0.101,0.147l0.004,0.315
    l0.082-0.098c0.068-0.166,0.028-0.354-0.053-0.509l-0.12-0.099l-0.072,0.176L14.743,4.574z M11.101,5.88l0.165-0.132
    c0.066-0.156,0.118-0.319,0.172-0.479l0.087-0.175L11.55,5.1l0.005,0.105c-0.017,0.158-0.024,0.322,0.013,0.479l0.177,0.276
    l0.335,0.013c0.172-0.07,0.316-0.202,0.404-0.365c0.095,0.12,0.206,0.245,0.365,0.279l0.292-0.14
    c0.091-0.147,0.123-0.326,0.105-0.496c-0.014-0.121-0.036-0.24-0.066-0.358l-0.055-0.172l0.115,0.07l0.074,0.006l-0.011-0.116
    l-0.186-0.305l-0.135-0.069l-0.065,0.116l-0.09,0.15l0.09,0.229c0.043,0.136,0.086,0.274,0.107,0.417l-0.01,0.327l-0.137,0.089
    l-0.159-0.12c-0.09-0.138-0.133-0.305-0.158-0.466c-0.006-0.161-0.014-0.319-0.043-0.476c-0.02-0.119-0.051-0.24-0.114-0.344
    h-0.033L12.27,4.43l0.024,0.182c0.04,0.197,0.081,0.397,0.077,0.599l-0.078,0.297l-0.239,0.181l-0.228,0.003l-0.108-0.223
    c-0.005-0.21-0.009-0.419,0.024-0.628l0.016-0.199l-0.065-0.087l-0.104,0.044c-0.088,0.11-0.156,0.234-0.221,0.359
    c-0.089,0.174-0.168,0.353-0.227,0.537l-0.122,0.098l-0.163-0.219l-0.023-0.098c-0.025-0.132-0.028-0.268-0.018-0.402l0.036-0.241
    l-0.023,0.001c-0.066,0.133-0.102,0.281-0.119,0.427c-0.029,0.239,0.042,0.486,0.192,0.674L11.101,5.88z M13.525,8.518l0.134,0.064
    c0.139,0.003,0.249-0.1,0.354-0.177l0.1-0.11l-0.077,0.009c-0.12,0.042-0.227,0.125-0.356,0.137l-0.026-0.048l0.041-0.28
    l-0.211,0.088l-0.104,0.093l0.172-0.037L13.525,8.518z M10.806,6.564c0.053,0.124,0.12,0.239,0.177,0.36l0.04,0.226l-0.154,0.241
    c-0.134,0.113-0.264,0.234-0.41,0.331V7.554l-0.003-0.223H10.43c-0.075,0.125-0.124,0.261-0.171,0.397l-0.046,0.164l-0.028,0.031
    C9.944,8.09,9.692,8.24,9.432,8.378L9.104,8.553L9.097,8.591l0.084,0.005c0.347-0.102,0.69-0.212,1.018-0.365
    c0.017,0.123,0.045,0.255,0.137,0.344c0.099,0.108,0.261,0.124,0.399,0.108c0.228-0.033,0.418-0.178,0.582-0.332
    c0.159-0.157,0.298-0.329,0.425-0.513c0.069,0.18,0.171,0.348,0.317,0.475c0.233,0.205,0.544,0.299,0.847,0.332l0.175-0.053
    l0.05-0.229l-0.199-0.081L12.69,8.115l0.003-0.174l0.255-0.14c0.272-0.1,0.552-0.186,0.836-0.241l0.239-0.063l0.096-0.194
    l0.011-0.121l-0.239,0.005c-0.325,0.018-0.65,0.024-0.975,0.024c-0.133-0.001-0.267,0.003-0.4-0.007
    c0.211-0.115,0.438-0.198,0.663-0.281l0.137,0.018l-0.003-0.06c0.121-0.047,0.249-0.094,0.342-0.189l0.125-0.277l-0.173-0.259
    c-0.114-0.073-0.241-0.15-0.379-0.144l-0.194,0.101l-0.15,0.302l0.073,0.246c-0.192,0.057-0.38,0.128-0.567,0.198l-0.263,0.119
    l-0.135,0.224l-0.03,0.18l0.125,0.036c0.127,0.008,0.255,0.004,0.382,0.016c0.12,0.009,0.245,0.029,0.345,0.098l0.044,0.041
    c-0.16,0.063-0.32,0.167-0.385,0.332l-0.005,0.28c-0.177-0.049-0.359-0.14-0.452-0.305c-0.111-0.195-0.121-0.423-0.158-0.637
    c-0.02-0.142-0.054-0.281-0.08-0.42v0.02c-0.06-0.262-0.169-0.51-0.279-0.754l-0.075-0.147l-0.105,0.174l-0.03,0.23
    c0.078,0.21,0.149,0.423,0.214,0.639l0.006,0.008l0.078,0.263l0.004,0.007l0.058,0.218c-0.117,0.224-0.266,0.429-0.448,0.602
    c-0.138,0.125-0.294,0.239-0.478,0.271l-0.26-0.045L10.405,8.11c0.192-0.1,0.359-0.238,0.508-0.392
    C11.034,7.6,11.14,7.46,11.186,7.298c0.03-0.13,0.024-0.267,0-0.396l-0.029-0.107L11.08,6.574l0.084-0.017L11.08,6.359l-0.165-0.19
    l-0.091-0.005l-0.081,0.15l-0.038,0.161L10.806,6.564z M13.175,6.356L13.4,6.458l0.073,0.053L13.181,6.59l-0.029-0.204
    L13.175,6.356z M12.569,6.367l-0.036,0.002l-0.071-0.12L12.4,6.16l-0.021,0.162l-0.026,0.077l-0.048,0.001l-0.076-0.202
    l-0.018-0.03l0.025,0.321l0.111,0.048l0.079-0.114h0.031l0.095,0.057l0.123-0.114l-0.058-0.279l-0.021,0.197L12.569,6.367z
     M18.659,5.157l0.021,0.199h0.026l0.051-0.282c-0.007-0.177-0.036-0.361-0.139-0.51l-0.103,0.107l0.016,0.111
    C18.603,4.895,18.64,5.025,18.659,5.157z M17.284,7.187l0.107-0.118c0.037-0.134-0.018-0.274-0.108-0.374l-0.09-0.026l-0.074,0.131
    l0.166,0.163L17.284,7.187z M16.624,5.773l0.054,0.003l0.05-0.047l0.163,0.269l0.059,0.1l0.052-0.077
    c0.006-0.135-0.003-0.271,0-0.406l0.044-0.084l0.128,0.027l-0.002-0.082l-0.058-0.117l-0.041-0.02l-0.141,0.157l0.01,0.271
    L16.93,5.892l-0.085-0.164L16.708,5.5l-0.073,0.018l-0.024,0.084v0.125L16.624,5.773z M14.92,5.268l-0.05,0.16l-0.044,0.02
    l-0.053-0.124l-0.021-0.006l0.031,0.239l0.151-0.072l0.106,0.065l0.087-0.029l0.015-0.041l-0.015-0.255l-0.029,0.007l-0.018,0.042
    L15,5.437l-0.06-0.15L14.92,5.268z M9.914,7.649l0.035-0.012l0.092-0.214l-0.009-0.237L9.837,7.144l-0.01,0.165l0.126,0.019
    L9.947,7.511L9.914,7.649z M15.275,4.802c0.029,0.203,0.054,0.407,0.081,0.609c0.037,0.311,0.069,0.626,0.092,0.938
    c0.024,0.31,0.03,0.622,0.052,0.934c0.013,0.12,0.016,0.243,0.01,0.365c-0.011,0.172-0.095,0.332-0.214,0.458
    c-0.15,0.162-0.313,0.32-0.512,0.423l-0.317,0.126v0.029l0.223,0.013c0.135-0.013,0.277-0.015,0.396-0.084
    c0.15-0.087,0.252-0.228,0.364-0.355c0.144-0.16,0.204-0.375,0.228-0.584c0.021-0.206,0.025-0.414,0.012-0.621
    c-0.005-0.334-0.03-0.669-0.067-1.001c-0.036-0.349-0.088-0.701-0.072-1.053l0.109,0.029L15.65,4.922l-0.083-0.295l-0.021-0.085
    l-0.004-0.009l-0.064-0.177L15.418,4.38l-0.152,0.162l-0.024,0.17L15.275,4.802z M17.224,6.295
    c-0.15,0.144-0.335,0.252-0.489,0.393l-0.037,0.106l0.15-0.077c0.119-0.097,0.253-0.176,0.387-0.254l0.141-0.09l-0.007-0.176
    L17.224,6.295z M17.846,6.337c-0.003-0.117-0.02-0.236-0.02-0.353c0.139,0.2,0.284,0.398,0.423,0.596l0.034,0.117
    c0.021,0.14,0.039,0.28,0.053,0.422c0.014,0.167,0.006,0.334,0.003,0.5l0.037,0.082l0.069-0.214l0.015-0.258
    c-0.013-0.134-0.009-0.27-0.023-0.402c0.152,0.201,0.3,0.408,0.438,0.62l0.134,0.221l0.023-0.001l-0.017-0.318
    c-0.065-0.229-0.22-0.414-0.35-0.609c-0.086-0.131-0.179-0.257-0.261-0.39c-0.017-0.152-0.029-0.308-0.041-0.461
    c-0.02-0.222-0.058-0.676-0.058-0.676l-0.005-0.2l0.047,0.027l0.036-0.014l0.005-0.116c-0.038-0.138-0.072-0.279-0.111-0.416
    l-0.089-0.211l-0.073,0.033L18,4.514l0.013,0.157c0.007,0.281,0.039,0.56,0.074,0.841c0.025,0.172,0.057,0.342,0.08,0.515
    c-0.126-0.177-0.254-0.352-0.378-0.526c-0.005-0.186-0.027-0.368-0.033-0.554l0.083,0.03L17.83,4.893
    c-0.056-0.178-0.121-0.352-0.187-0.526l-0.064-0.054l-0.137,0.235l0.041,0.213c0.005,0.114,0.027,0.231,0.032,0.346l-0.198-0.282
    h0.067l0.024-0.033l-0.033-0.067c-0.106-0.11-0.232-0.198-0.325-0.318L16.92,4.349l-0.007,0.06l-0.007,0.271l0.121,0.253
    c0.181,0.22,0.35,0.45,0.529,0.671l0.022,0.229c0.006,0.114,0.019,0.226,0.022,0.342l0.006,0.007
    c0.024,0.408,0.065,0.815,0.043,1.223l-0.077,0.226l-0.148,0.088l-0.183-0.078l-0.235-0.276l-0.134-0.003l-0.154,0.214
    c-0.107,0.177-0.204,0.36-0.292,0.548l-0.106,0.149l-0.127-0.003l-0.095-0.159l0.109,0.045l0.152-0.114
    c0.08-0.142,0.128-0.302,0.147-0.463c0.026-0.237-0.029-0.471-0.071-0.702c-0.011-0.15-0.038-0.298-0.048-0.451L16.381,6.42
    c-0.025-0.232-0.054-0.461-0.082-0.693c-0.015-0.174-0.043-0.346-0.05-0.521l0.177-0.077l-0.031-0.201
    c-0.081-0.123-0.13-0.263-0.178-0.402l-0.088-0.241l-0.125-0.084L15.866,4.27l-0.144,0.284c-0.026,0.139,0.008,0.279,0.042,0.414
    c0.034,0.125,0.045,0.252,0.061,0.379c0.044,0.324,0.084,0.649,0.128,0.972c0.025,0.208,0.053,0.417,0.08,0.623
    c0.031,0.293,0.105,0.588,0.069,0.884L16.061,8.01l-0.036-0.266l-0.014-0.317l-0.024-0.004l-0.076,0.268
    c-0.034,0.186-0.078,0.382-0.021,0.567c0.035,0.125,0.148,0.198,0.241,0.279l0.171,0.085l0.114-0.074
    c0.114-0.15,0.204-0.319,0.281-0.492l0.168-0.291l0.074-0.042l0.134,0.17C17.174,8,17.321,8.057,17.468,8.062
    c0.127,0.004,0.244-0.077,0.316-0.18c0.103-0.154,0.114-0.342,0.121-0.522l-0.006-0.007C17.887,7.015,17.867,6.676,17.846,6.337z
     M9.043,8.218c0.134-0.114,0.227-0.271,0.274-0.441C9.38,7.553,9.381,7.313,9.364,7.081L9.353,6.784l0.011-0.065L9.392,6.72
    l0.204,0.147L9.861,6.8l0.103-0.1l0.04-0.007l0.088,0.095l0.235,0.039l0.128-0.111L10.495,6.4l-0.039-0.2l-0.128,0.082l0.011,0.067
    l0.014,0.162l-0.09,0.124l-0.134-0.087l-0.069-0.3L10.03,6.245L9.898,6.543L9.717,6.67L9.593,6.586L9.565,6.321L9.501,6.267
    L9.324,6.415c-0.013-0.198-0.025-0.397-0.04-0.594c-0.011-0.237-0.037-0.474-0.05-0.713l0.079,0.043l0.057-0.049L9.359,4.94
    C9.306,4.815,9.265,4.686,9.22,4.561L9.14,4.358L9.028,4.437L8.93,4.573l0.037,0.151L8.964,4.818l0.025,0.324l0.01,0.098
    l0.007,0.009L9.04,5.565l0.006,0.007C9.08,5.893,9.124,6.214,9.134,6.536L8.96,6.634L8.726,6.338l-0.198-0.08L8.356,6.396
    L8.249,6.66l0.005,0.288l0.048,0.074l0.246,0.041l0.285-0.091L8.819,7.163L8.75,7.259L8.441,7.534
    c-0.114,0.08-0.246,0.15-0.386,0.173L7.782,7.621c-0.134-0.149-0.165-0.363-0.15-0.557l0.01-0.19L7.566,7.009
    C7.536,7.125,7.515,7.245,7.515,7.366C7.512,7.49,7.513,7.618,7.569,7.734c0.072,0.141,0.202,0.264,0.363,0.285
    c0.199,0.028,0.389-0.063,0.557-0.154C8.71,7.739,8.923,7.558,9,7.306l0.006-0.008C9.04,7.169,9.023,7.032,9.02,6.9l0.134-0.077
    c0.006,0.148-0.004,0.298,0,0.445L9.127,7.582L9.123,7.591C9.088,7.723,8.997,7.833,8.89,7.913C8.719,8.059,8.512,8.16,8.298,8.224
    C8.176,8.261,8.049,8.287,7.918,8.281c-0.137,0-0.282-0.045-0.372-0.152c-0.111-0.124-0.141-0.294-0.16-0.452V7.438l0.006-0.349
    c-0.097,0.17-0.122,0.367-0.141,0.558C7.237,7.875,7.265,8.109,7.36,8.32l0.137,0.171c0.112,0.085,0.257,0.112,0.396,0.114
    C8.13,8.608,8.367,8.548,8.589,8.466C8.75,8.404,8.916,8.337,9.043,8.218z M8.5,6.76L8.481,6.563l0.03-0.017l0.11,0.047
    l0.107,0.125L8.5,6.76z M7.409,6.614l0.217-0.076L7.624,6.381l-0.06,0.002C7.422,6.429,7.28,6.488,7.151,6.57
    c-0.174,0.114-0.338,0.247-0.45,0.422l0.185-0.12C7.053,6.773,7.229,6.687,7.409,6.614z M6.99,8.277L6.874,8.193
    C6.831,8.046,6.87,7.889,6.914,7.749l0.017-0.311L6.904,7.44l-0.09,0.279c-0.052,0.124-0.071,0.257-0.069,0.39L6.77,8.397
    l0.16,0.128l0.188-0.167l0.005-0.223L6.99,8.277z M17.697,12.091l-0.284-0.079c-0.369,0-0.738,0.013-1.109,0.019l0.003-0.116
    l0.067-0.151l-0.1-0.155l-0.057-0.002l-0.098,0.16l0.078,0.167l0.003,0.095c-1.361,0.017-2.722,0.017-4.082,0.01
    c-0.258,0.004-0.515-0.006-0.774-0.005c-0.689-0.002-1.38-0.011-2.07-0.018c-0.347,0.002-0.694-0.013-1.04-0.011
    c0.088,0.138,0.229,0.231,0.379,0.285c0.25,0.09,0.519,0.113,0.783,0.126c0.284,0.017,0.569,0.005,0.853,0.017
    c0.905,0.008,1.808,0.004,2.71-0.009c0.824-0.007,1.65-0.024,2.477-0.043c0.258-0.006,0.519-0.015,0.777-0.015v0.111l-0.08,0.115
    l0.124,0.209h0.025l0.086-0.123c0.135,0,0.269-0.011,0.403-0.009l0.102,0.079l0.095-0.09c0.144-0.003,0.29-0.004,0.432-0.004
    l0.109,0.09l0.197-0.052l0.086-0.317L17.697,12.091z M17.364,12.546c-0.131,0.015-0.264,0.005-0.398,0.01l-0.104-0.078
    l-0.078,0.044l-0.005,0.038c-0.131,0.013-0.263,0.009-0.393,0.011l-0.077-0.099l-0.001-0.114c0.356-0.009,0.713-0.019,1.07-0.031
    L17.364,12.546z M17.746,8.397l0.067-0.194L17.797,8.17l-0.221-0.017L17.54,8.261l0.102,0.094l-0.145,0.202l0.102,0.052l0.27-0.128
    l-0.001-0.078L17.746,8.397z M19.311,5.952c-0.033-0.351-0.101-0.698-0.085-1.051l0.107,0.047l-0.02-0.136
    C19.246,4.67,19.18,4.526,19.119,4.38l-0.066-0.098L18.984,4.33l-0.1,0.163l0.02,0.195c0.014,0.152,0.047,0.308,0.056,0.46
    l0.021,0.199L19.01,5.59c0.054,0.472,0.106,0.945,0.138,1.42c0.012,0.233,0.018,0.474-0.066,0.696
    c-0.067,0.19-0.2,0.354-0.354,0.486c-0.12,0.106-0.258,0.187-0.384,0.283l-0.104,0.114l0.284-0.037
    c0.214-0.053,0.419-0.16,0.557-0.331c0.136-0.164,0.212-0.366,0.253-0.574L19.34,7.64c0.031-0.194,0.051-0.391,0.045-0.588
    C19.378,6.686,19.35,6.318,19.311,5.952z M6.931,6.085l0.127-0.111c0.073-0.119,0.098-0.26,0.117-0.397l0.022-0.154l0.006-0.008
    l0.101-0.332l0.025-0.006l0.01,0.149L7.309,5.482C7.303,5.659,7.325,5.857,7.437,6C7.517,6.103,7.65,6.146,7.775,6.144
    C7.794,6.365,7.828,6.588,7.848,6.81l0.005,0.008l0.021,0.231l0.024,0.297h0.024l0.085-0.238c0.011-0.216-0.022-0.43-0.029-0.645
    C7.972,6.315,7.956,6.168,7.948,6.021l0.136-0.158l0.073-0.118l0.027-0.003l0.09,0.21l0.306,0.091l0.247-0.168
    c0.078-0.112,0.069-0.254,0.059-0.383C8.864,5.329,8.816,5.166,8.775,5.005L8.86,4.972L8.857,4.869L8.778,4.743l-0.14-0.138
    L8.53,4.714L8.471,4.818L8.54,5.019c0.07,0.188,0.128,0.384,0.152,0.582L8.631,5.716L8.4,5.675L8.296,5.497
    C8.258,5.341,8.21,5.183,8.228,5.02c0.03-0.154-0.031-0.318-0.15-0.416L8.032,4.631C7.991,4.747,7.976,4.875,8.011,4.995
    C8.045,5.147,8.073,5.3,8.102,5.454L7.929,5.745L7.917,5.643L7.904,5.522c-0.021-0.211-0.046-0.424-0.06-0.637l0.082-0.093
    c0-0.125-0.064-0.238-0.12-0.348L7.701,4.32L7.586,4.492L7.63,4.654C7.618,4.774,7.675,4.883,7.688,5
    c0.013,0.122,0.016,0.249,0.031,0.372C7.725,5.507,7.737,5.641,7.75,5.776L7.63,5.742L7.497,5.536L7.473,5.451L7.461,5.223
    L7.53,4.942l0.011-0.194l-0.108-0.08l-0.151,0.12C7.21,4.893,7.156,5.009,7.121,5.132L7.118,5.139
    C7.065,5.327,7.085,5.531,7.011,5.712L6.927,5.784L6.816,5.65c-0.057-0.149-0.076-0.308-0.09-0.467l-0.01-0.334L6.684,4.85
    C6.643,4.961,6.622,5.079,6.622,5.199L6.615,5.208c0,0.261,0.043,0.527,0.159,0.763L6.931,6.085z M8.243,4.604l0.138-0.07
    l0.065,0.07l0.075,0.004l0.067-0.101L8.557,4.39L8.471,4.513l-0.06-0.18L8.39,4.333L8.292,4.498L8.227,4.481L8.207,4.343
    L8.191,4.301L8.17,4.296L8.13,4.466L8.243,4.604z M10.437,4.938l0.101-0.039L10.523,4.79l0.072-0.217l-0.033-0.204l-0.189-0.028
    l-0.141,0.162c-0.039,0.118-0.029,0.26,0.071,0.344c-0.141,0.198-0.331,0.358-0.528,0.498L9.606,5.472L9.603,5.504l0.22-0.066
    C10.062,5.321,10.29,5.164,10.437,4.938z M10.362,4.586l0.065-0.082L10.4,4.678l-0.023-0.005L10.362,4.586z M7.098,4.418
    L7.081,4.684l-0.004,0.01L7.043,4.805C7.102,4.704,7.162,4.598,7.183,4.48L7.135,4.272l-0.131,0.04L6.937,4.441L7.098,4.418z
     M10.292,5.356l-0.034-0.003l-0.13,0.158l-0.063,0.241l0.114,0.138l0.16-0.037l0.136-0.238l-0.127,0.1l-0.134,0.033l-0.04-0.119
    L10.292,5.356z"/>
</g>
</svg>
