<?xml version="1.0" encoding="utf-8"?>
<!-- Generator: Adobe Illustrator 20.0.0, SVG Export Plug-In . SVG Version: 6.00 Build 0)  -->
<svg version="1.1" id="Layer_1" xmlns="http://www.w3.org/2000/svg" xmlns:xlink="http://www.w3.org/1999/xlink" x="0px" y="0px"
   viewBox="0 0 26 17" width="26" height="17" style="enable-background:new 0 0 26 17;" xml:space="preserve">
<style type="text/css">
  .st0{fill:#E70013;}
  .st1{fill:#FFFFFF;}
</style>
<g>
  <rect class="st0" width="26" height="17"/>
  <g>
    <path class="st1" d="M13,4.247c-2.35,0-4.252,1.905-4.252,4.253c0,2.35,1.902,4.254,4.252,4.254c2.349,0,4.253-1.904,4.253-4.254
      C17.253,6.152,15.349,4.247,13,4.247z M13.315,11.826c-1.837,0-3.325-1.49-3.325-3.326c0-1.836,1.488-3.325,3.325-3.325
      c1.109,0,2.091,0.543,2.695,1.377c-0.475-0.439-1.108-0.712-1.807-0.712c-1.47,0-2.662,1.192-2.662,2.66
      c0,1.469,1.192,2.661,2.662,2.661c0.699,0,1.332-0.271,1.807-0.713C15.405,11.282,14.424,11.826,13.315,11.826z M15.142,8.509
      l0.853,1.188l-1.388-0.46l-0.867,1.178l0.009-1.462l-1.388-0.461l1.394-0.444l0.009-1.461l0.851,1.188l1.394-0.443L15.142,8.509z"
      />
  </g>
</g>
</svg>
