<?xml version="1.0" encoding="utf-8"?>
<!-- Generator: Adobe Illustrator 20.0.0, SVG Export Plug-In . SVG Version: 6.00 Build 0)  -->
<svg version="1.1" id="Layer_1" xmlns="http://www.w3.org/2000/svg" xmlns:xlink="http://www.w3.org/1999/xlink" x="0px" y="0px"
   viewBox="0 0 26 17" width="26" height="17" style="enable-background:new 0 0 26 17;" xml:space="preserve">
<style type="text/css">
  .st0{fill:#FFFFFF;}
  .st1{fill:#EE3424;}
  .st2{fill:#0055A4;}
  .st3{fill:#008A5F;}
  .st4{fill:#FDBB30;}
</style>
<g>
  <polygon class="st0" points="3.067,0 3.067,17 5.105,17 13.605,11.334 26,11.334 26,5.665 13.605,5.665 5.105,0  "/>
  <polygon class="st1" points="5.105,0 13.605,5.665 26,5.665 26,0   "/>
  <polygon class="st2" points="13.605,11.334 5.105,17 26,17 26,11.334   "/>
  <polygon class="st3" points="0,0 0,2.044 9.683,8.499 0,14.956 0,17 3.067,17 13.265,10.2 26,10.2 26,6.798 13.265,6.798 3.067,0   
    "/>
  <polygon class="st4" points="0,14.956 9.683,8.499 0,2.044   "/>
  <polygon points="0,13.594 7.641,8.499 0,3.407   "/>
</g>
</svg>
