<?xml version="1.0" encoding="utf-8"?>
<!-- Generator: Adobe Illustrator 20.0.0, SVG Export Plug-In . SVG Version: 6.00 Build 0)  -->
<svg version="1.1" id="Layer_1" xmlns="http://www.w3.org/2000/svg" xmlns:xlink="http://www.w3.org/1999/xlink" x="0px" y="0px"
   viewBox="0 0 26 17" width="26" height="17" style="enable-background:new 0 0 26 17;" xml:space="preserve">
<style type="text/css">
  .st0{fill:#198A00;}
  .st1{fill:#EF7D00;}
  .st2{fill:#DE2010;}
  .st3{fill:#291908;}
</style>
<g>
  <rect class="st0" width="26" height="17"/>
  <rect x="23.026" y="5.526" class="st1" width="2.974" height="11.474"/>
  <rect x="20.05" y="5.526" width="2.976" height="11.474"/>
  <rect x="17.075" y="5.525" class="st2" width="2.975" height="11.475"/>
  <path class="st3" d="M25.769,1.275l-0.146,0.08l-0.29,0.17l0.144-0.143l0.128-0.233l-0.014-0.08l-0.125,0.025
    c-0.177,0.09-0.339,0.204-0.511,0.302l0.257-0.271l0.018-0.099l-0.054,0.017l-0.253,0.133c-0.274,0.13-0.554,0.252-0.831,0.375
    l0.089-0.17l-0.088-0.04l-0.092,0.05c-0.112,0.053-0.232,0.088-0.35,0.124c-0.199,0.056-0.399,0.101-0.602,0.14
    c-0.15,0.05-0.299,0.105-0.452,0.15L22.434,1.84c-0.185-0.01-0.365-0.02-0.549-0.009c-0.124,0.007-0.248,0.018-0.362,0.063
    l-0.034-0.231l0.154-0.104l0.124-0.024l0.019,0.101l0.058-0.02l0.074-0.14l-0.074-0.097l-0.237-0.063
    c-0.088-0.088-0.216-0.122-0.34-0.121c-0.143-0.001-0.284,0.062-0.384,0.164c-0.118,0.12-0.182,0.286-0.215,0.449
    c-0.268-0.081-0.548-0.118-0.824-0.164c-0.311-0.09-0.599-0.242-0.886-0.387l-0.155-0.067l-0.069,0.021l0.029,0.078l0.207,0.238
    c-0.265-0.147-0.538-0.276-0.816-0.395c-0.117-0.046-0.222-0.117-0.33-0.184l-0.082-0.03l-0.029,0.053l0.068,0.188l0.269,0.308
    l-0.196-0.095L17.73,1.298l-0.269-0.235l-0.063-0.01L17.39,1.123c0.021,0.143,0.097,0.275,0.198,0.377l-0.166-0.134l-0.089-0.053
    l-0.039,0.033l0.036,0.107l0.18,0.216L17.35,1.552L17.28,1.524l-0.007,0.07l0.114,0.178c0.108,0.111,0.245,0.186,0.383,0.251
    c0.125,0.053,0.255,0.098,0.387,0.132L18.04,2.183l0.013,0.064l0.118,0.069c0.122,0.039,0.251,0.038,0.378,0.036l-0.272,0.057
    l0.016,0.067l0.327,0.104l0.324-0.031L18.85,2.581l-0.156,0.023l-0.011,0.019l0.053,0.063l0.208,0.066
    c0.177,0.019,0.352-0.014,0.522-0.057l-0.286,0.1l0.011,0.036l0.139,0.088l0.239,0.017l0.089-0.023l0.001-0.001l0.005,0.004
    l-0.002,0.004L19.598,2.97l0.057,0.048l0.299-0.015l-0.062,0.058l0.08,0.044l0.234-0.03l0.068-0.029l-0.053,0.065l0.036,0.067
    l0.102,0.007l0.307-0.082l-0.08,0.107l0.151,0.114l0.348-0.007l-0.018,0.104l0.063-0.037c-0.043,0.128-0.05,0.264-0.084,0.394
    l0.024,0.038l0.125-0.121l-0.016,0.196l0.039,0.01l-0.114,0.143l-0.138,0.02l-0.131,0.07l-0.056,0.131l-0.003,0.14l0.029,0.003
    l0.052-0.079l0.188-0.032l0.004,0.133l0.053,0.138l0.074,0.007l-0.02-0.08l0.114-0.073l0.021-0.026l0.074,0.102l0.081,0.101
    l0.066-0.017l-0.044-0.104l0.063-0.11l0.049,0.046l0.035-0.009l-0.013-0.09l0.108-0.03l0.019,0.112l0.015,0.077l0.075,0.086
    l0.058-0.009l-0.023-0.051v-0.05l0.062-0.056l0.026-0.207l0.013-0.014l0.056,0.113l0.095,0.027l-0.024,0.067l0.019,0.03
    l0.125-0.075l0.01-0.187l-0.094-0.09l0.043-0.008l0.093,0.066l0.042-0.011l-0.054-0.131l-0.185-0.047l-0.004-0.069l0.21,0.064
    l-0.004-0.034c-0.057-0.106-0.141-0.203-0.172-0.322l0.185,0.109l0.05-0.031l-0.073-0.06L22.18,3.48l0.263,0.118l0.043-0.055
    c0.098,0.061,0.215,0.121,0.333,0.087l0.043-0.08l-0.064-0.067l-0.167-0.122c0.109,0.063,0.223,0.119,0.347,0.149l0.208-0.005
    l0.015-0.076l-0.135-0.134l0.031,0.007l0.284-0.066l-0.01-0.057l0.188-0.037l0.039-0.046L23.54,3.044
    c0.169-0.011,0.337-0.063,0.488-0.147l0.117-0.072l0.017-0.034c0.185-0.03,0.368-0.072,0.544-0.134
    c0.202-0.071,0.394-0.168,0.555-0.308l0.196-0.245L25.46,2.04l-0.057,0.005l0.251-0.255l0.052-0.085l-0.04-0.049l-0.171,0.056
    l0.24-0.248l0.074-0.153L25.769,1.275z M21.801,3.998l-0.158,0.008l-0.066,0.021l-0.095-0.05l-0.011-0.035l0.002-0.177l0.073,0.069
    h0.032L21.57,3.704l-0.018-0.102c0.016-0.144,0.018-0.286,0.021-0.43c0.069,0.138,0.145,0.276,0.174,0.429l-0.005,0.277
    l0.072-0.016l0.007,0.1L21.801,3.998z"/>
  <path class="st1" d="M17.75,0.953l0.056,0.023l0.27,0.159c0.309,0.133,0.618,0.276,0.91,0.443l0.205,0.104l-0.23,0.071
    l-0.034,0.022l0.102,0.089l0.211-0.017l-0.217,0.149l0.041,0.046l0.321,0.006l-0.166,0.15l0.017,0.04l0.128,0.01l0.133-0.018
    l-0.132,0.088l0.003,0.02l0.124,0.014c0.121-0.005,0.237-0.037,0.35-0.077l-0.248,0.15L19.56,2.452l0.017,0.018l0.232,0.048
    c0.143-0.006,0.28-0.06,0.412-0.114l-0.27,0.182l-0.017,0.037l0.071,0.042c-0.117,0.117-0.27,0.208-0.436,0.232
    c-0.119,0.02-0.255,0.004-0.345-0.084l0.311-0.113l0.071-0.06l-0.036-0.018c-0.135,0.045-0.275,0.08-0.415,0.094
    c-0.115,0.009-0.233,0.007-0.343-0.033l-0.084-0.052l0.181-0.033c0.124-0.047,0.252-0.088,0.377-0.138l0.03-0.027l-0.04-0.012
    C19.1,2.475,18.921,2.528,18.74,2.547l-0.28-0.031l-0.155-0.078l0.149-0.025l0.129-0.032l0.345-0.114l0.045-0.037l-0.055-0.007
    l-0.292,0.084l-0.145,0.013l-0.266-0.026l-0.146-0.083l0.222-0.029l0.278-0.057l0.017-0.033l-0.053,0.001l-0.239,0.053
    l-0.078-0.008c-0.18-0.047-0.356-0.104-0.523-0.188L17.39,1.725l-0.09-0.164l0.204,0.144c0.162,0.068,0.325,0.134,0.488,0.198
    c0.121,0.051,0.241,0.102,0.364,0.145l0.026-0.025l-0.068-0.031l-0.3-0.119c-0.139-0.06-0.276-0.126-0.411-0.188l-0.207-0.188
    L17.33,1.35l0.101,0.069c0.104,0.083,0.208,0.175,0.335,0.222c0.298,0.125,0.597,0.249,0.897,0.371l0.046,0.005l-0.036-0.049
    c-0.255-0.111-0.521-0.2-0.777-0.311l-0.17-0.091c-0.135-0.089-0.239-0.223-0.285-0.379l-0.017-0.103l0.259,0.227l0.106,0.067
    c0.115,0.061,0.234,0.116,0.353,0.171c0.181,0.084,0.365,0.168,0.548,0.251l0.057,0.023l0.006-0.033l-0.035-0.019
    c-0.168-0.082-0.336-0.162-0.504-0.243l-0.122-0.073l-0.265-0.294L17.75,0.953z"/>
  <path class="st1" d="M24.828,1.27c0.118-0.054,0.234-0.114,0.35-0.174l-0.198,0.222c-0.202,0.177-0.434,0.317-0.683,0.417
    c-0.155,0.064-0.317,0.118-0.483,0.159l-0.014,0.041c-0.15-0.016-0.301-0.038-0.449-0.069c0.177-0.049,0.352-0.106,0.522-0.174
    l0.162-0.068C24.302,1.508,24.565,1.391,24.828,1.27z"/>
  <path class="st1" d="M25.433,1.164l0.134-0.057L25.47,1.323l-0.306,0.275l-0.246,0.149c-0.393,0.193-0.805,0.348-1.228,0.464
    l0.003-0.033L23.65,2.14c0.142,0.008,0.291-0.025,0.395-0.126l0.062-0.077l-0.035-0.011l-0.241,0.007
    c0.16-0.034,0.316-0.086,0.467-0.148L24.6,1.642c0.2-0.1,0.395-0.215,0.585-0.332L25.433,1.164z"/>
  <path class="st1" d="M18.766,1.219l0.125,0.041c0.307,0.152,0.613,0.319,0.944,0.415c0.261,0.045,0.526,0.078,0.781,0.153
    l0.121,0.042l0.02-0.026l-0.051-0.044c0.035-0.158,0.097-0.318,0.217-0.432c0.107-0.106,0.264-0.156,0.412-0.137l0.248,0.107
    l0.034,0.013L21.83,1.41l0.054,0.083l-0.06,0.09l-0.033-0.076l-0.175-0.056l-0.05-0.007l0.008,0.031l0.114,0.043l-0.205,0.078
    l-0.012,0.261l-0.062-0.106l-0.033,0.014l0.138,0.183l0.267,0.275l0.058,0.108c0.029,0.144,0.056,0.288,0.072,0.436l0.03,0.005
    l-0.006-0.114l-0.049-0.277c0.177,0.193,0.378,0.361,0.588,0.519l0.186,0.185l0.093,0.093l-0.317-0.102
    c-0.122-0.075-0.233-0.168-0.319-0.28l-0.049-0.067L22.048,2.77l0.064,0.099l0.198,0.221l0.065,0.107l-0.176-0.044l-0.234-0.155
    L21.82,2.834l-0.035,0.011l0.15,0.177c0.082,0.107,0.127,0.238,0.169,0.366l0.117,0.204l0.077,0.052l-0.162-0.107h-0.049
    L22.086,3.61l0.154,0.278c-0.133-0.029-0.249-0.122-0.302-0.244L21.908,3.56l-0.03,0.007l-0.094,0.276L21.777,3.56
    c-0.04-0.164-0.127-0.314-0.201-0.463l-0.044-0.102L21.303,2.86L21.195,2.8l-0.078-0.063l-0.024,0.01L21.058,2.88l-0.176-0.257
    c-0.086,0.073-0.19,0.148-0.31,0.133l0.211-0.286l-0.126-0.248l0.036-0.225l0.013-0.073l-0.03,0.002l-0.031,0.083
    c-0.089,0.109-0.185,0.214-0.304,0.29l-0.238,0.114l-0.293,0.07l-0.174-0.034c0.15-0.08,0.287-0.187,0.43-0.28l-0.013-0.033
    c-0.14,0.08-0.291,0.14-0.449,0.169L19.44,2.318l0.078-0.055l0.317-0.218l0.292-0.011l-0.048,0.075l0.005,0.017l0.148,0.012
    l0.005-0.033L20.13,2.096l0.073-0.1l-0.012-0.03l-0.322,0.05l0.084-0.087l-0.041-0.02l-0.297-0.027l0.09-0.074l-0.084-0.016
    c-0.162-0.028-0.313-0.098-0.462-0.166l-0.118-0.076l-0.234-0.264L18.766,1.219z"/>
  <polygon class="st3" points="21.095,1.377 21.284,1.275 21.409,1.327 21.378,1.396 21.235,1.396   "/>
  <polygon class="st1" points="21.198,1.35 21.329,1.311 21.381,1.347 21.336,1.371   "/>
  <path class="st1" d="M25.555,1.448l0.203-0.118l-0.191,0.259l-0.315,0.243c-0.185,0.091-0.37,0.187-0.559,0.271l-0.259,0.097
    l0.016,0.04l0.257-0.091c0.143-0.055,0.285-0.119,0.42-0.192l0.221-0.123l0.311-0.135l-0.078,0.11
    c-0.176,0.198-0.389,0.359-0.623,0.483c-0.183,0.095-0.377,0.17-0.578,0.22c-0.364,0.089-0.748,0.088-1.115,0.017l-0.112-0.023
    L23.14,2.544l0.094,0.025c0.331,0.076,0.683,0.084,1.019,0.018c0.239-0.047,0.471-0.123,0.687-0.235l0.299-0.163l0.178-0.102
    l-0.243,0.276c-0.166,0.129-0.361,0.214-0.56,0.28c-0.182,0.056-0.368,0.095-0.559,0.119c-0.177,0.008-0.354,0.019-0.53,0.043
    l-0.276-0.081c-0.244-0.065-0.476-0.172-0.682-0.319V2.403l0.323,0.101l0.257-0.034l0.102-0.01l0.207-0.009l0.008-0.031
    l-0.154,0.007l-0.148-0.006L22.923,2.29c0.161,0.034,0.324,0.062,0.488,0.065l0.114-0.012l0.018-0.044l-0.08-0.066l0.142,0.002
    l-0.009,0.022l0.044,0.016c0.385-0.106,0.766-0.23,1.127-0.4C25.035,1.74,25.299,1.605,25.555,1.448z"/>
  <path class="st1" d="M24.054,1.415l0.084-0.041l-0.045,0.104L23.926,1.62c-0.12,0.053-0.244,0.097-0.368,0.137
    c-0.157,0.05-0.317,0.097-0.48,0.124l-0.164,0.009l-0.03,0.02l0.012,0.021l0.117,0.028l-0.017,0.035l-0.094,0.032l-0.305-0.019
    l-0.029,0.034l0.14,0.1l-0.316-0.014l-0.14-0.048l-0.029,0.021l0.17,0.106c-0.126,0.005-0.255,0.016-0.374-0.034L22.01,2.215
    l0.102,0.047L21.864,2.25l-0.06-0.06l-0.173-0.197l-0.065-0.07c0.169-0.052,0.348-0.054,0.525-0.054l0.248,0.008l0.164-0.001
    c0.19-0.046,0.372-0.117,0.556-0.177c0.284-0.058,0.569-0.122,0.84-0.219L24.054,1.415z"/>
  <path class="st1" d="M19.232,1.699c0.129,0.056,0.258,0.111,0.398,0.131l-0.079,0.036l-0.107,0.117l-0.121,0.034L19.088,2.01
    l0.239-0.202l-0.031-0.016l-0.257,0.037l-0.067-0.039L19.232,1.699z"/>
  <path class="st1" d="M23.054,1.929l0.23-0.045l0.146,0.033c0.156,0.03,0.313,0.053,0.471,0.059l0.141-0.007
    c-0.101,0.107-0.255,0.147-0.398,0.133l-0.302-0.074L23.33,2.06l0.203,0.064l0.119,0.066l-0.31-0.006l-0.258-0.067l-0.031,0.009
    l0.018,0.024l0.198,0.061l0.182,0.059l0.057,0.041l-0.267-0.005c-0.137-0.017-0.274-0.037-0.403-0.082l-0.079-0.048l-0.021,0.026
    l0.061,0.048l0.201,0.125l0.123,0.066l-0.31,0.013c-0.156-0.036-0.297-0.114-0.427-0.201l0.045-0.022l0.007-0.054l0.262,0.009
    l0.041-0.011l-0.047-0.107l0.333-0.043L23.054,1.929z"/>
  <polygon class="st1" points="19.51,1.971 19.57,1.903 19.879,1.953 19.789,2.028 19.593,2.157 19.476,2.201 19.272,2.208   "/>
  <path class="st1" d="M19.974,2.616c0.234-0.153,0.466-0.312,0.653-0.522l0.024,0.246c-0.111,0.114-0.24,0.216-0.393,0.269
    L19.974,2.616z"/>
  <path class="st1" d="M22.162,2.252l0.161,0.006l0.107,0.088c0.234,0.194,0.51,0.333,0.801,0.413l0.281,0.083l0.001,0.012
    l-0.196,0.069c-0.126-0.004-0.245-0.045-0.361-0.091c-0.302-0.123-0.577-0.302-0.85-0.479l-0.015,0.031l0.037,0.032
    c0.142,0.102,0.284,0.201,0.43,0.298c0.158,0.102,0.314,0.21,0.483,0.291h-0.22l-0.16-0.036L22.624,2.96l0.013-0.02l-0.135-0.069
    l-0.123-0.09c-0.146-0.115-0.288-0.237-0.417-0.372l-0.088-0.108l0.247,0.006L22.162,2.252z"/>
  <path class="st1" d="M20.62,2.422l0.049-0.044l0.065,0.094l-0.175,0.162c-0.16,0.104-0.324,0.197-0.489,0.293l-0.113,0.039
    L19.68,2.989L19.647,2.97c0.115-0.083,0.243-0.145,0.354-0.233l0.042-0.065l0.331-0.073L20.62,2.422z"/>
  <polygon class="st3" points="21.441,2.592 21.467,2.607 21.594,2.82 21.723,3.028 21.693,3.047 21.647,2.935 21.516,2.786 
    21.435,2.623  "/>
  <path class="st1" d="M19.94,3.057c0.214-0.136,0.438-0.256,0.65-0.396l-0.061,0.107l0.026,0.019l0.189-0.027l0.134-0.087
    c0.093,0.119,0.177,0.246,0.22,0.391L21.1,3.264l-0.06,0.029l-0.27,0.006l-0.15-0.1l0.19-0.144l0.112-0.058l-0.01-0.036
    c-0.13,0.068-0.269,0.115-0.409,0.157l-0.219,0.034l-0.028-0.038c0.102-0.1,0.231-0.167,0.347-0.246l-0.01-0.035
    c-0.117,0.065-0.237,0.129-0.354,0.195l-0.212,0.047L19.94,3.057z"/>
  <path class="st1" d="M22.624,2.711c0.129,0.072,0.265,0.136,0.403,0.186L23.08,2.91l0.03,0.01l-0.054-0.003l0.007,0.037
    l0.306,0.088l0.179,0.057l-0.186,0.036l-0.19-0.014l-0.229-0.07l0.145-0.032L23.1,2.981L22.92,2.9L22.624,2.711z"/>
  <path class="st1" d="M21.112,2.813l0.016-0.016L21.308,2.9l0.19,0.109l0.04,0.129c-0.006,0.155-0.006,0.311-0.022,0.466
    l0.014,0.081l0.01,0.102l-0.107-0.146l-0.054-0.084l-0.033,0.093l-0.138,0.214l0.039-0.273l0.008-0.239l-0.033-0.005l-0.06,0.335
    l-0.077,0.087l0.068-0.338l0.051-0.167l-0.029-0.006l-0.06,0.091l0.033-0.135l-0.043-0.24L21.112,2.813z"/>
  <path class="st1" d="M23.909,2.824l0.178-0.017c-0.191,0.129-0.423,0.201-0.653,0.191l-0.254-0.052l-0.033-0.012l0.092,0.017
    l0.261-0.041l0.064-0.064L23.909,2.824z"/>
  <path class="st1" d="M22.564,2.952l0.125,0.095c0.118,0.112,0.255,0.202,0.38,0.305l0.101,0.114l-0.274-0.029
    c-0.134-0.051-0.258-0.122-0.381-0.198l-0.033,0.026l0.257,0.23l0.078,0.058l-0.007,0.034l-0.194-0.023l-0.22-0.139l-0.064-0.052
    L22.315,3.42l0.127,0.135l-0.247-0.119l-0.065-0.082l-0.107-0.264l0.307,0.142L22.41,3.19l-0.088-0.143
    c0.107,0.074,0.222,0.142,0.352,0.163l0.107,0.001l-0.014-0.073L22.564,2.952z"/>
  <polygon class="st1" points="22.734,3.028 22.805,3.041 22.877,3.082 23.157,3.166 23.335,3.212 23.122,3.262 22.913,3.172   "/>
  <polygon class="st1" points="21.388,3.638 21.431,3.714 21.426,3.96 21.446,4.006 21.535,4.06 21.496,4.155 21.446,4.201 
    21.466,4.244 21.474,4.398 21.426,4.459 21.426,4.536 21.407,4.474 21.31,4.268 21.268,4.268 21.218,4.417 21.127,4.462 
    21.114,4.524 21.1,4.417 21.075,4.364 21.154,4.225 21.138,4.19 21.065,4.238 20.866,4.286 20.814,4.311 20.85,4.194 20.975,4.11 
    21.127,4.085 21.262,3.891 21.308,3.811  "/>
  <polygon class="st1" points="21.868,3.771 21.905,3.661 22.028,3.826 22.038,3.943 22.091,3.978 22.202,3.993 22.262,4.036 
    22.152,4.009 22.101,4.073 22.145,4.113 22.203,4.235 22.148,4.359 22.133,4.278 22.043,4.257 21.996,4.157 21.895,4.177 
    21.881,4.368 21.814,4.417 21.81,4.512 21.784,4.397 21.754,4.347 21.786,4.192 21.745,4.181 21.643,4.273 21.568,4.27 
    21.558,4.33 21.542,4.175 21.594,4.073 21.799,4.04 21.864,3.986 21.857,3.815   "/>
</g>
</svg>
