<?xml version="1.0" encoding="utf-8"?>
<!-- Generator: Adobe Illustrator 20.0.0, SVG Export Plug-In . SVG Version: 6.00 Build 0)  -->
<svg version="1.1" id="Layer_1" xmlns="http://www.w3.org/2000/svg" xmlns:xlink="http://www.w3.org/1999/xlink" x="0px" y="0px"
   viewBox="0 0 26 17" width="26" height="17" style="enable-background:new 0 0 26 17;" xml:space="preserve">
<style type="text/css">
  .st0{fill:#FFD200;}
  .st1{fill:#DE2010;}
  .st2{fill:#319208;}
  .st3{fill:#FFFFFF;}
  .st4{fill:#FFC617;}
</style>
<g>
  <rect y="12.144" class="st0" width="26" height="2.427"/>
  <rect y="9.715" class="st1" width="26" height="2.429"/>
  <rect y="14.572" class="st2" width="26" height="2.428"/>
  <rect y="2.429" class="st0" width="26" height="2.428"/>
  <rect y="4.857" class="st1" width="26" height="2.428"/>
  <rect class="st2" width="26" height="2.429"/>
  <rect y="7.285" width="26" height="2.429"/>
  <polygon points="0.453,0 0,0 0,0.054 8.464,8.5 0,16.946 0,17 0.453,17 8.972,8.5   "/>
  <polygon class="st3" points="0,0.054 0,16.946 8.464,8.5   "/>
  <polygon class="st1" points="3.363,5.55 4.269,7.563 6.466,7.803 4.831,9.289 5.281,11.452 3.363,10.355 1.444,11.452 1.895,9.289 
    0.26,7.803 2.457,7.563  "/>
  <path d="M1.908,6.019h0.069L2.282,6.15C2.401,6.246,2.493,6.371,2.57,6.502c0.122,0.203,0.238,0.411,0.354,0.615l0.032,0.051
    l0.208,0.181c0.144,0.116,0.298,0.221,0.448,0.333c0.306,0.224,0.61,0.45,0.915,0.677c0.239,0.178,0.48,0.357,0.717,0.539
    l0.25,0.192l0.052,0.049L5.316,9.11c-0.162,0.625-0.323,1.247-0.484,1.871H1.777c-0.08-0.393-0.162-0.785-0.241-1.179L1.469,9.771
    L1.429,9.64c0.006-0.17,0.07-0.329,0.143-0.482c0.081-0.167,0.171-0.33,0.234-0.501c0.042-0.114,0.062-0.234,0.078-0.354
    C1.905,8.115,1.911,7.925,1.9,7.737C1.89,7.569,1.87,7.401,1.835,7.235L1.728,6.929l-0.204-0.17L1.301,6.731L1.183,6.748V6.715
    l0.044-0.1l0.131-0.119l0.08-0.047c0.036-0.116,0.09-0.234,0.181-0.317L1.908,6.019z"/>
  <path class="st4" d="M1.647,6.122l0.322-0.093L2.266,6.15l0.211,0.226l0.12,0.187c0.114,0.196,0.225,0.393,0.338,0.591
    C2.811,7.206,2.69,7.263,2.569,7.318C2.346,7.422,2.125,7.528,1.9,7.634C1.89,7.491,1.87,7.351,1.838,7.211L1.734,6.924
    L1.502,6.743L1.188,6.738l0.014-0.06l0.106-0.133l0.138-0.088l0.013-0.034L1.647,6.122z"/>
  <polygon points="1.851,6.284 1.921,6.302 1.971,6.387 1.908,6.487 1.81,6.483 1.754,6.401   "/>
  <polygon class="st4" points="1.835,6.317 1.935,6.373 1.875,6.465 1.786,6.394  "/>
  <path class="st4" d="M2.802,7.223l0.139-0.059C3.051,7.275,3.175,7.372,3.3,7.465C3.859,7.872,4.413,8.284,4.966,8.7
    C5.085,8.788,5.203,8.877,5.32,8.969l0.203,0.16C5.061,9.073,4.599,9.012,4.141,8.934C3.927,8.898,3.713,8.858,3.504,8.802
    L3.265,8.727l-0.29-0.113L2.799,8.499L2.634,8.263L2.543,8.078L2.54,8.095l0.15,0.288l0.135,0.151l0.238,0.128l0.273,0.1
    L3.302,8.855L3.153,9.02l-0.24,0.16L2.722,9.273L2.477,9.377L2.243,9.551L2.156,9.763L2.061,9.765L1.903,9.775L1.771,9.779
    L1.757,9.758L1.754,9.541l0.043-0.08l0.15-0.213c0.104-0.154,0.198-0.32,0.254-0.5l0.05-0.331L2.243,8.413
    c-0.001,0.193-0.053,0.381-0.14,0.553C2.029,9.118,1.93,9.256,1.834,9.39L1.759,9.507L1.728,9.632l0.03,0.15L1.545,9.795
    l-0.08-0.046L1.436,9.654c0-0.116,0.033-0.23,0.076-0.337c0.067-0.17,0.159-0.329,0.235-0.496l0.094-0.246
    C1.877,8.44,1.895,8.299,1.905,8.162c0.011-0.165,0.011-0.331-0.001-0.494l0.004-0.027C2.203,7.499,2.501,7.357,2.802,7.223z"/>
  <polygon class="st4" points="3.347,8.767 3.591,8.834 3.492,8.986 3.29,9.136 3.247,9.141 3.008,9.136 3.146,9.038 3.312,8.864   
    "/>
  <polygon class="st4" points="3.501,8.991 3.602,8.837 3.835,8.888 3.681,9.078 3.489,9.139 3.302,9.141  "/>
  <path class="st4" d="M3.827,8.931l0.02-0.04l0.251,0.043c0.35,0.061,0.703,0.111,1.058,0.159l0.15,0.017
    C5.269,9.254,5.232,9.398,5.195,9.541L5.166,9.534l-0.008,0.01L5.192,9.55C5.159,9.689,5.12,9.826,5.085,9.967
    C4.847,9.915,4.603,9.879,4.359,9.853C3.983,9.811,3.6,9.789,3.22,9.773L3.028,9.765L2.824,9.763
    C2.647,9.756,2.47,9.753,2.294,9.755L2.166,9.761l0.059-0.17l0.208-0.177l0.198-0.098l0.23,0.004l0.112,0.004L3.135,9.33
    L3.21,9.332L3.354,9.34c0.604,0.033,1.208,0.09,1.804,0.201l-0.005-0.01L5.125,9.527c-0.274-0.053-0.55-0.09-0.827-0.121
    C3.957,9.369,3.614,9.343,3.271,9.324L3.019,9.315L2.777,9.31L2.654,9.308l0.084-0.03l0.254-0.131l0.061,0.001l0.329,0.004
    l0.172-0.01L3.827,8.931z"/>
  <polygon points="3.193,9.424 3.314,9.457 3.339,9.619 3.215,9.688 3.09,9.577   "/>
  <polygon class="st4" points="3.211,9.451 3.322,9.531 3.248,9.654 3.17,9.644 3.123,9.525   "/>
  <polygon points="3.678,9.462 3.832,9.512 3.832,9.662 3.769,9.713 3.633,9.688 3.589,9.582  "/>
  <polygon class="st4" points="3.697,9.488 3.825,9.582 3.756,9.684 3.629,9.634 3.638,9.528  "/>
  <path class="st4" d="M2.363,9.765c0.149,0.003,0.298,0,0.446,0.005l0.135,0.002l-0.205,0.18l-0.094,0.081L2.363,9.765z"/>
  <path class="st4" d="M2.136,9.771l0.213-0.005L2.37,10.07l-0.005,0.007l0.01,0.044l0.02,0.182l0.007-0.015l-0.02-0.187l0.019,0.013
    l0.245,0.224L2.49,10.335l-0.079,0.001l-0.005-0.025L2.4,10.31c0.02,0.214,0.048,0.429,0.079,0.642v0.021
    c-0.232-0.002-0.464,0-0.696,0c-0.08-0.39-0.16-0.78-0.238-1.171l0.306-0.017l0.126-0.005L2.136,9.771z"/>
  <path class="st4" d="M2.356,9.773l0.288,0.274l0.037-0.032l0.274-0.239L3.13,9.962l0.095,0.096L3.534,9.8l0.247,0.278l0.02,0.02
    l0.305-0.258l0.234,0.273l0.016,0.005l0.3-0.215c0.118,0.113,0.239,0.226,0.358,0.338l-0.053,0.206l-0.318-0.281l-0.304,0.23
    l-0.25-0.291l-0.307,0.251l-0.27-0.282l-0.114,0.099l-0.18,0.16L2.943,10.05L2.675,10.32l-0.278-0.251l-0.018-0.012L2.356,9.773z"
    />
  <polygon class="st4" points="2.971,9.776 3.197,9.781 3.377,9.789 3.521,9.796 3.225,10.047   "/>
  <polygon class="st4" points="3.546,9.8 3.806,9.813 4.094,9.837 3.806,10.082 3.796,10.079  "/>
  <path class="st4" d="M4.12,9.839c0.175,0.014,0.35,0.033,0.523,0.059L4.352,10.11L4.12,9.839z"/>
  <path class="st4" d="M4.672,9.902c0.136,0.019,0.273,0.044,0.407,0.075l-0.062,0.254C4.901,10.122,4.787,10.013,4.672,9.902z"/>
  <polygon class="st4" points="2.799,10.239 2.943,10.094 3.054,10.208 3.19,10.348 2.987,10.341 2.801,10.339 2.702,10.338  "/>
  <path class="st4" d="M3.244,10.351l0.264-0.236l0.245,0.257l-0.067-0.003C3.539,10.361,3.391,10.354,3.244,10.351z"/>
  <path class="st4" d="M3.81,10.376l0.277-0.229l0.224,0.262l-0.02,0.009l0.044,0.019l0.023-0.015
    c0.198,0.018,0.394,0.04,0.591,0.067l-0.083,0.321l-0.042,0.162c-0.777,0-1.556,0-2.332,0c-0.03-0.21-0.057-0.418-0.081-0.628
    l0.076-0.001l0.162,0.001l0.027,0.015l0.018-0.015l0.205,0.005l0.162,0.003l0.132,0.002l0.022,0.019l0.017-0.017l0.207,0.007
    l0.125,0.006l0.199,0.01l0.019,0.018l0.024-0.014c0.159,0.007,0.321,0.019,0.482,0.033l-0.002-0.012H4.252
    C4.105,10.392,3.958,10.382,3.81,10.376z"/>
  <path class="st4" d="M4.395,10.392l0.245-0.188l0.23,0.204l0.081,0.073c-0.196-0.025-0.39-0.05-0.583-0.066L4.395,10.392z"/>
</g>
</svg>
